M48
;Layer_Color=9474304
;FILE_FORMAT=4:4
METRIC,LZ
;TYPE=PLATED
T1F00S00C0.7112
T2F00S00C0.7600
T3F00S00C1.0100
T4F00S00C1.1000
;TYPE=NON_PLATED
T5F00S00C1.1000
T6F00S00C3.2000
%
T01
X002187Y000749
X003684Y000406
X003617Y002264
T02
X002662Y0017585
X002916
X003678
X003932
X004186
X004178Y0037135
X003924
X00367
X002908
X002654
T03
X001425Y000341
Y000595
Y000849
Y001103
X002187
Y000341
X002188Y002909
Y003671
X001426
Y003417
Y003163
Y002909
T04
X00703998Y00057213
X00703798Y00093613
Y00119013
Y00149613
Y00188713
X007055Y002535
Y002895
Y003149
Y003487
X001332Y00252056
Y00163
X000556Y001697
Y001951
T05
X00729198Y00093613
Y00119013
X007309Y002895
Y003149
X000302Y001951
Y001697
T06
X00027Y000275
X007527
Y003936
X00027
M30
