M48
;Layer_Color=9474304
;FILE_FORMAT=4:4
METRIC,LZ
;TYPE=PLATED
T1F00S00C0.6600
T2F00S00C0.7112
T3F00S00C0.7600
T4F00S00C1.0100
T5F00S00C1.1000
;TYPE=NON_PLATED
T6F00S00C1.1000
%
T01
X006649Y000749
Y001049
Y0017605
Y00286731
Y003149
X001149Y002431
Y001539
T02
X001911Y000749
X003408Y000406
X003349Y002159
T03
X002386Y0017585
X00264
X003402
X003656
X00391
Y0036085
X003656
X003402
X00264
X002386
T04
X001149Y000341
Y000595
Y000849
Y001103
X001911
Y000341
Y002787
Y003549
X001149
Y003295
Y003041
Y002787
T05
X007249Y000795
Y001049
X007249Y00289931
Y00315331
X000549Y001949
Y001695
T06
X007503Y000795
Y001049
X007503Y00289931
Y00315331
X000295Y001949
Y001695
M30
