%TF.GenerationSoftware,Altium Limited,Altium Designer,23.2.1 (34)*%
G04 Layer_Color=8388736*
%FSLAX45Y45*%
%MOMM*%
%TF.SameCoordinates,3015DBAE-21F6-41EF-B07E-3AD50EAB7A3F*%
%TF.FilePolarity,Negative*%
%TF.FileFunction,Soldermask,Top*%
%TF.Part,Single*%
G01*
G75*
%TA.AperFunction,SMDPad,CuDef*%
%ADD13R,1.09220X1.24460*%
%ADD15R,1.24460X1.09220*%
%ADD52R,3.40320X1.80320*%
%ADD53R,2.35320X5.30320*%
%ADD54R,3.15320X1.90320*%
%ADD55R,1.70320X1.45320*%
%ADD56R,1.45320X1.70320*%
%TA.AperFunction,Conductor*%
%ADD57C,0.70320*%
%TA.AperFunction,ComponentPad*%
%ADD58C,1.50620*%
%ADD59C,1.85320*%
%ADD60R,1.85320X1.85320*%
%ADD61C,1.30320*%
%TA.AperFunction,WasherPad*%
%ADD62C,1.72720*%
%TA.AperFunction,ComponentPad*%
%ADD63C,1.72120*%
%ADD64R,1.72120X1.72120*%
%TA.AperFunction,ViaPad*%
%ADD65C,1.47320*%
D13*
X1800000Y2284570D02*
D03*
Y2519570D02*
D03*
Y1795070D02*
D03*
Y1560070D02*
D03*
D15*
X943930Y2277000D02*
D03*
X1178930D02*
D03*
D52*
X3034000Y599100D02*
D03*
X2534000D02*
D03*
X3034000Y2453000D02*
D03*
X2534000D02*
D03*
D53*
X4998000Y725000D02*
D03*
Y1585000D02*
D03*
X6098000D02*
D03*
Y725000D02*
D03*
X6100000Y2525000D02*
D03*
Y3385000D02*
D03*
X5000000Y2525000D02*
D03*
Y3385000D02*
D03*
D54*
X1755000Y2022000D02*
D03*
X1325000D02*
D03*
D55*
X2076000Y2522500D02*
D03*
Y2177500D02*
D03*
X2065000Y1570500D02*
D03*
Y1915500D02*
D03*
D56*
X588500Y2493000D02*
D03*
X933500D02*
D03*
D57*
X6097130Y725871D02*
X6098000Y725000D01*
D58*
X3678000Y1758500D02*
D03*
X3932000D02*
D03*
X4186000D02*
D03*
X2916000D02*
D03*
X2662000D02*
D03*
X4178000Y3713500D02*
D03*
X3924000D02*
D03*
X3670000D02*
D03*
X2908000D02*
D03*
X2654000D02*
D03*
D59*
X7037981Y1887134D02*
D03*
Y1496134D02*
D03*
Y1190134D02*
D03*
X7055000Y3487000D02*
D03*
Y2535000D02*
D03*
Y2895000D02*
D03*
X1332000Y1630000D02*
D03*
Y2520561D02*
D03*
X556000Y1697000D02*
D03*
X7039981Y572134D02*
D03*
D60*
X7037981Y936134D02*
D03*
X7055000Y3149000D02*
D03*
X556000Y1951000D02*
D03*
D61*
X7291981Y1190134D02*
D03*
Y936134D02*
D03*
X7309000Y2895000D02*
D03*
Y3149000D02*
D03*
X302000Y1697000D02*
D03*
Y1951000D02*
D03*
D62*
X270000Y275000D02*
D03*
Y3936000D02*
D03*
X7527000Y275000D02*
D03*
Y3936000D02*
D03*
D63*
X2187000Y341000D02*
D03*
Y1103000D02*
D03*
X1425000Y341000D02*
D03*
Y595000D02*
D03*
Y849000D02*
D03*
X2188000Y3671000D02*
D03*
Y2909000D02*
D03*
X1426000D02*
D03*
Y3163000D02*
D03*
Y3417000D02*
D03*
D64*
X1425000Y1103000D02*
D03*
X1426000Y3671000D02*
D03*
D65*
X3684000Y406000D02*
D03*
X2187000Y749000D02*
D03*
X3617000Y2264000D02*
D03*
%TF.MD5,1691bf85470dd3005291818fc2f3bdee*%
M02*
