%TF.GenerationSoftware,Altium Limited,Altium Designer,23.2.1 (34)*%
G04 Layer_Physical_Order=1*
G04 Layer_Color=255*
%FSLAX45Y45*%
%MOMM*%
%TF.SameCoordinates,30BCF74E-8D5C-4CB1-BD29-C8B6E5BAA9CA*%
%TF.FilePolarity,Positive*%
%TF.FileFunction,Copper,L1,Top,Signal*%
%TF.Part,Single*%
G01*
G75*
%TA.AperFunction,SMDPad,CuDef*%
%ADD10R,1.00000X0.90000*%
%ADD11R,0.60000X0.75000*%
%ADD12R,3.20000X1.60000*%
%ADD13R,1.12000X1.22000*%
%ADD14R,2.15000X5.10000*%
%TA.AperFunction,Conductor*%
%ADD15C,0.80000*%
%ADD16C,0.25400*%
%ADD17C,0.50000*%
%TA.AperFunction,ComponentPad*%
%ADD18C,1.51800*%
%ADD19R,1.51800X1.51800*%
%ADD20R,1.01000X1.01000*%
%ADD21C,1.30300*%
%ADD22R,1.01000X1.01000*%
%ADD23C,1.65000*%
%ADD24R,1.65000X1.65000*%
%ADD25C,1.10000*%
%TA.AperFunction,ViaPad*%
%ADD26C,1.27000*%
G36*
X2949000Y2544000D02*
X2827242D01*
Y3449501D01*
X2825092Y3460309D01*
X2818970Y3469471D01*
X2818969Y3469472D01*
X2659971Y3628471D01*
X2650808Y3634593D01*
X2640000Y3636743D01*
X2629192Y3634593D01*
X2620029Y3628471D01*
X2613907Y3619308D01*
X2611757Y3608500D01*
X2613907Y3597692D01*
X2620029Y3588529D01*
X2770757Y3437802D01*
Y2544000D01*
X2624000D01*
Y2461700D01*
X2798999D01*
Y2436300D01*
X2624000D01*
Y2354000D01*
X2770757D01*
Y2283108D01*
X2770756Y2283106D01*
X2772907Y2272298D01*
X2779029Y2263136D01*
X2870757Y2171407D01*
Y854805D01*
X2782350Y766398D01*
X2776228Y757235D01*
X2774078Y746427D01*
X2774078Y746425D01*
Y694100D01*
X2624000D01*
Y611800D01*
X2799000D01*
Y586400D01*
X2624000D01*
Y504100D01*
X2770757D01*
Y448698D01*
X2576301Y254243D01*
X1967932D01*
X1964529Y266943D01*
X1966814Y268262D01*
X1983738Y285186D01*
X1995705Y305914D01*
X2001900Y329033D01*
Y352967D01*
X1995705Y376086D01*
X1983738Y396814D01*
X1966814Y413738D01*
X1946086Y425705D01*
X1922967Y431900D01*
X1899033D01*
X1875914Y425705D01*
X1855186Y413738D01*
X1838262Y396814D01*
X1826295Y376086D01*
X1820100Y352967D01*
Y329033D01*
X1826295Y305914D01*
X1838262Y285186D01*
X1855186Y268262D01*
X1857471Y266943D01*
X1854068Y254243D01*
X1205932D01*
X1202529Y266943D01*
X1204814Y268262D01*
X1221738Y285186D01*
X1233705Y305914D01*
X1239900Y329033D01*
Y352967D01*
X1233705Y376086D01*
X1221738Y396814D01*
X1204814Y413738D01*
X1184086Y425705D01*
X1160967Y431900D01*
X1137033D01*
X1113914Y425705D01*
X1093186Y413738D01*
X1089134Y409686D01*
X1033243Y465578D01*
Y947301D01*
X1098041Y1012100D01*
X1239900D01*
Y1193900D01*
X1177243D01*
Y1473500D01*
X1214500D01*
Y1564558D01*
X1268699Y1618757D01*
X1496000D01*
Y1587000D01*
X1626000D01*
Y1707000D01*
X1496000D01*
Y1675243D01*
X1257000D01*
X1246192Y1673093D01*
X1237029Y1666971D01*
X1237029Y1666970D01*
X1174558Y1604500D01*
X1083500D01*
Y1473500D01*
X1120757D01*
Y1193900D01*
X1058100D01*
Y1052042D01*
X985029Y978971D01*
X978907Y969808D01*
X976757Y959000D01*
X976757Y958999D01*
Y453880D01*
X976757Y453879D01*
X978907Y443071D01*
X985029Y433908D01*
X1059763Y359174D01*
X1058100Y352967D01*
Y329033D01*
X1064295Y305914D01*
X1076262Y285186D01*
X1093186Y268262D01*
X1095471Y266943D01*
X1092068Y254243D01*
X791699D01*
X577243Y468699D01*
Y1601628D01*
X586634Y1604145D01*
X608866Y1616981D01*
X627019Y1635134D01*
X639855Y1657366D01*
X646500Y1682164D01*
Y1682300D01*
X549000D01*
X451500D01*
Y1682164D01*
X458145Y1657366D01*
X470981Y1635134D01*
X489134Y1616981D01*
X511366Y1604145D01*
X520757Y1601628D01*
Y457001D01*
X520757Y457000D01*
X522907Y446192D01*
X529029Y437029D01*
X760029Y206029D01*
X769192Y199907D01*
X780000Y197757D01*
X2587999D01*
X2588000Y197757D01*
X2598808Y199907D01*
X2607971Y206029D01*
X2818970Y417029D01*
X2818971Y417029D01*
X2825093Y426192D01*
X2827243Y437000D01*
X2827243Y437001D01*
Y504100D01*
X2949000D01*
Y1000D01*
X0D01*
Y4097000D01*
X2949000D01*
Y2544000D01*
D02*
G37*
G36*
Y694100D02*
X2830564D01*
Y734728D01*
X2918971Y823135D01*
X2925093Y832298D01*
X2927243Y843106D01*
X2927243Y843107D01*
Y2183106D01*
X2925093Y2193914D01*
X2918971Y2203077D01*
X2827242Y2294805D01*
Y2354000D01*
X2949000D01*
Y694100D01*
D02*
G37*
G36*
X7806000Y1979000D02*
X3159000D01*
Y4097000D01*
X7806000D01*
Y1979000D01*
D02*
G37*
G36*
Y1000D02*
X3159000D01*
Y330940D01*
X3171700Y334792D01*
X3179347Y323348D01*
X3283348Y219347D01*
X3301540Y207191D01*
X3323000Y202923D01*
X4707000D01*
X4728460Y207191D01*
X4746653Y219347D01*
X4888653Y361347D01*
X4900809Y379540D01*
X4905077Y401000D01*
Y449000D01*
X4971500D01*
Y989000D01*
X4726500D01*
Y449000D01*
X4792923D01*
Y424228D01*
X4683772Y315077D01*
X3419005D01*
X3418335Y327500D01*
X3438300Y332849D01*
X3456200Y343184D01*
X3470816Y357800D01*
X3481151Y375700D01*
X3486500Y395665D01*
Y416335D01*
X3481151Y436300D01*
X3470816Y454200D01*
X3461078Y463938D01*
Y759772D01*
X3910000Y1208694D01*
X3949347Y1169347D01*
X3967540Y1157191D01*
X3989000Y1152923D01*
X5735611D01*
X5886834Y1001700D01*
X5881574Y989000D01*
X5826500D01*
Y449000D01*
X6071500D01*
Y989000D01*
X6004207D01*
Y1019710D01*
X5999938Y1041170D01*
X5987782Y1059363D01*
X5798492Y1248653D01*
X5780299Y1260809D01*
X5758839Y1265077D01*
X4012228D01*
X3966077Y1311228D01*
Y1701228D01*
X3974136Y1709287D01*
X3984688Y1727563D01*
X3990150Y1747948D01*
Y1769052D01*
X3984688Y1789437D01*
X3974136Y1807713D01*
X3961627Y1820223D01*
X3965040Y1832923D01*
X4663271D01*
X4726500Y1769694D01*
Y1308999D01*
X4971500D01*
Y1522922D01*
X5826500D01*
Y1308999D01*
X6071500D01*
Y1522922D01*
X6395772D01*
X6592923Y1325772D01*
Y1114500D01*
X6583500D01*
Y983500D01*
X6714500D01*
Y992923D01*
X7168793D01*
X7170981Y989134D01*
X7189134Y970981D01*
X7211366Y958145D01*
X7236164Y951500D01*
X7261836D01*
X7286634Y958145D01*
X7308866Y970981D01*
X7327019Y989134D01*
X7339855Y1011366D01*
X7346500Y1036164D01*
Y1061836D01*
X7339855Y1086634D01*
X7327019Y1108866D01*
X7308866Y1127019D01*
X7286634Y1139855D01*
X7261836Y1146500D01*
X7236164D01*
X7211366Y1139855D01*
X7189134Y1127019D01*
X7170981Y1108866D01*
X7168793Y1105077D01*
X6714500D01*
Y1114500D01*
X6705077D01*
Y1349000D01*
X6700809Y1370460D01*
X6688653Y1388653D01*
X6458653Y1618652D01*
X6440460Y1630808D01*
X6419000Y1635077D01*
X6071500D01*
Y1848999D01*
X5826500D01*
Y1635077D01*
X4971500D01*
Y1848999D01*
X4805805D01*
X4739538Y1915267D01*
X4744398Y1927000D01*
X7806000D01*
Y1000D01*
D02*
G37*
G36*
X3733461Y1915267D02*
X3656845Y1838650D01*
X3645448D01*
X3625063Y1833188D01*
X3606787Y1822636D01*
X3591864Y1807713D01*
X3581312Y1789437D01*
X3575850Y1769052D01*
Y1747948D01*
X3581312Y1727563D01*
X3591864Y1709287D01*
X3606787Y1694364D01*
X3625063Y1683812D01*
X3645448Y1678350D01*
X3666552D01*
X3686937Y1683812D01*
X3705213Y1694364D01*
X3720136Y1709287D01*
X3730688Y1727563D01*
X3736150Y1747948D01*
Y1759344D01*
X3809728Y1832923D01*
X3854961D01*
X3858374Y1820223D01*
X3845864Y1807713D01*
X3835312Y1789437D01*
X3829850Y1769052D01*
Y1747948D01*
X3835312Y1727563D01*
X3845864Y1709287D01*
X3853923Y1701228D01*
Y1311228D01*
X3365348Y822653D01*
X3353192Y804460D01*
X3348923Y783000D01*
Y457939D01*
X3345184Y454200D01*
X3334850Y436300D01*
X3329500Y416335D01*
Y395665D01*
X3334850Y375700D01*
X3345184Y357800D01*
X3359800Y343184D01*
X3377700Y332849D01*
X3397665Y327500D01*
X3396995Y315077D01*
X3346228D01*
X3275077Y386228D01*
Y1552272D01*
X3401156Y1678350D01*
X3412552D01*
X3432937Y1683812D01*
X3451213Y1694364D01*
X3466136Y1709287D01*
X3476688Y1727563D01*
X3482150Y1747948D01*
Y1769052D01*
X3476688Y1789437D01*
X3466136Y1807713D01*
X3451213Y1822636D01*
X3432937Y1833188D01*
X3412552Y1838650D01*
X3391448D01*
X3371063Y1833188D01*
X3352787Y1822636D01*
X3337864Y1807713D01*
X3327312Y1789437D01*
X3321850Y1769052D01*
Y1757655D01*
X3179347Y1615152D01*
X3171700Y1603708D01*
X3159000Y1607560D01*
Y1927000D01*
X3728601D01*
X3733461Y1915267D01*
D02*
G37*
%LPC*%
G36*
X1922967Y3639900D02*
X1899033D01*
X1875914Y3633705D01*
X1855186Y3621738D01*
X1838262Y3604814D01*
X1826295Y3584086D01*
X1820100Y3560967D01*
Y3537033D01*
X1826295Y3513914D01*
X1838262Y3493186D01*
X1855186Y3476262D01*
X1875914Y3464295D01*
X1899033Y3458100D01*
X1922967D01*
X1946086Y3464295D01*
X1966814Y3476262D01*
X1983738Y3493186D01*
X1995705Y3513914D01*
X2001900Y3537033D01*
Y3560967D01*
X1995705Y3584086D01*
X1983738Y3604814D01*
X1966814Y3621738D01*
X1946086Y3633705D01*
X1922967Y3639900D01*
D02*
G37*
G36*
Y2877900D02*
X1899033D01*
X1875914Y2871705D01*
X1855186Y2859738D01*
X1838262Y2842814D01*
X1826295Y2822086D01*
X1820100Y2798967D01*
Y2775033D01*
X1826295Y2751914D01*
X1838262Y2731186D01*
X1855186Y2714262D01*
X1875914Y2702295D01*
X1899033Y2696100D01*
X1922967D01*
X1946086Y2702295D01*
X1966814Y2714262D01*
X1983738Y2731186D01*
X1995705Y2751914D01*
X2001900Y2775033D01*
Y2798967D01*
X1995705Y2822086D01*
X1983738Y2842814D01*
X1966814Y2859738D01*
X1946086Y2871705D01*
X1922967Y2877900D01*
D02*
G37*
G36*
X1239900Y3639900D02*
X1058100D01*
Y3498041D01*
X979029Y3418971D01*
X972907Y3409808D01*
X970757Y3399000D01*
X970757Y3398999D01*
Y2937001D01*
X970757Y2937000D01*
X972907Y2926192D01*
X979029Y2917029D01*
X1067837Y2828221D01*
X1064295Y2822086D01*
X1058100Y2798967D01*
Y2775033D01*
X1064295Y2751914D01*
X1076262Y2731186D01*
X1093186Y2714262D01*
X1113914Y2702295D01*
X1120757Y2700461D01*
Y2496500D01*
X1083500D01*
Y2365500D01*
X1214500D01*
Y2408257D01*
X1496000D01*
Y2376500D01*
X1626000D01*
Y2496500D01*
X1496000D01*
Y2464743D01*
X1214500D01*
Y2496500D01*
X1177243D01*
Y2700461D01*
X1184086Y2702295D01*
X1204814Y2714262D01*
X1221738Y2731186D01*
X1233705Y2751914D01*
X1239900Y2775033D01*
Y2798967D01*
X1233705Y2822086D01*
X1221738Y2842814D01*
X1204814Y2859738D01*
X1184086Y2871705D01*
X1160967Y2877900D01*
X1137033D01*
X1113914Y2871705D01*
X1107779Y2868163D01*
X1027243Y2948699D01*
Y3387301D01*
X1098041Y3458100D01*
X1239900D01*
Y3639900D01*
D02*
G37*
G36*
X304216Y2019000D02*
X285784D01*
X267981Y2014229D01*
X252019Y2005014D01*
X238986Y1991981D01*
X229770Y1976019D01*
X225000Y1958216D01*
Y1939784D01*
X229770Y1921981D01*
X238986Y1906019D01*
X252019Y1892986D01*
X267981Y1883770D01*
X285784Y1879000D01*
X304216D01*
X322019Y1883770D01*
X337981Y1892986D01*
X351014Y1906019D01*
X360229Y1921981D01*
X365000Y1939784D01*
Y1958216D01*
X360229Y1976019D01*
X351014Y1991981D01*
X337981Y2005014D01*
X322019Y2014229D01*
X304216Y2019000D01*
D02*
G37*
G36*
X620000Y2325000D02*
X478000D01*
Y2173000D01*
X520757D01*
Y2046500D01*
X451500D01*
Y1851500D01*
X646500D01*
Y2046500D01*
X577243D01*
Y2173000D01*
X620000D01*
Y2325000D01*
D02*
G37*
G36*
X561836Y1792500D02*
X561700D01*
Y1707700D01*
X646500D01*
Y1707836D01*
X639855Y1732634D01*
X627019Y1754866D01*
X608866Y1773019D01*
X586634Y1785855D01*
X561836Y1792500D01*
D02*
G37*
G36*
X536300D02*
X536164D01*
X511366Y1785855D01*
X489134Y1773019D01*
X470981Y1754866D01*
X458145Y1732634D01*
X451500Y1707836D01*
Y1707700D01*
X536300D01*
Y1792500D01*
D02*
G37*
G36*
X2396552Y3688650D02*
X2375448D01*
X2355063Y3683188D01*
X2336787Y3672636D01*
X2321864Y3657713D01*
X2311312Y3639437D01*
X2305850Y3619052D01*
Y3597948D01*
X2311312Y3577563D01*
X2321864Y3559287D01*
X2336787Y3544364D01*
X2355063Y3533812D01*
X2357757Y3533090D01*
Y2544000D01*
X2124000D01*
Y2354000D01*
X2220757D01*
Y2023001D01*
X2220757Y2023000D01*
X2222907Y2012192D01*
X2229029Y2003029D01*
X2357757Y1874302D01*
Y1833910D01*
X2355063Y1833188D01*
X2336787Y1822636D01*
X2321864Y1807713D01*
X2311312Y1789437D01*
X2305850Y1769052D01*
Y1747948D01*
X2311312Y1727563D01*
X2321864Y1709287D01*
X2336787Y1694364D01*
X2355063Y1683812D01*
X2375448Y1678350D01*
X2396552D01*
X2416937Y1683812D01*
X2435213Y1694364D01*
X2450136Y1709287D01*
X2460688Y1727563D01*
X2466150Y1747948D01*
Y1769052D01*
X2460688Y1789437D01*
X2450136Y1807713D01*
X2435213Y1822636D01*
X2416937Y1833188D01*
X2414243Y1833910D01*
Y1874301D01*
X2460698Y1920757D01*
X2691301D01*
X2750757Y1861302D01*
Y1290699D01*
X2637301Y1177243D01*
X2349001D01*
X2349000Y1177243D01*
X2338192Y1175093D01*
X2329029Y1168971D01*
X2279029Y1118971D01*
X2272907Y1109808D01*
X2270757Y1099000D01*
X2270757Y1098999D01*
Y694100D01*
X2124000D01*
Y627343D01*
X2072599D01*
X1983086Y716856D01*
X1984150Y718700D01*
X1989500Y738665D01*
Y759335D01*
X1984150Y779300D01*
X1973816Y797200D01*
X1959200Y811816D01*
X1941300Y822151D01*
X1921335Y827500D01*
X1900665D01*
X1880700Y822151D01*
X1878856Y821086D01*
X1788243Y911699D01*
Y1652000D01*
X1805000D01*
Y1676258D01*
X1919620D01*
X1919621Y1676257D01*
X1930429Y1678407D01*
X1939592Y1684530D01*
X2018971Y1763908D01*
X2025093Y1773071D01*
X2027243Y1783879D01*
X2027243Y1783880D01*
Y1959999D01*
X2027243Y1960000D01*
X2025093Y1970808D01*
X2018971Y1979971D01*
X2018970Y1979971D01*
X1948941Y2050000D01*
X2034971Y2136029D01*
X2041093Y2145192D01*
X2043243Y2156000D01*
X2043243Y2156001D01*
Y2318000D01*
X2041093Y2328808D01*
X2034971Y2337971D01*
X2034970Y2337971D01*
X1973971Y2398971D01*
X1964808Y2405093D01*
X1954000Y2407243D01*
X1953999Y2407243D01*
X1805000D01*
Y2431500D01*
X1788243D01*
Y2775999D01*
X1788243Y2776000D01*
X1786093Y2786808D01*
X1779971Y2795971D01*
X1514971Y3060971D01*
X1505808Y3067093D01*
X1495000Y3069243D01*
X1494999Y3069243D01*
X1235539D01*
X1233705Y3076086D01*
X1221738Y3096814D01*
X1204814Y3113738D01*
X1184086Y3125705D01*
X1160967Y3131900D01*
X1137033D01*
X1113914Y3125705D01*
X1093186Y3113738D01*
X1076262Y3096814D01*
X1064295Y3076086D01*
X1058100Y3052967D01*
Y3029033D01*
X1064295Y3005914D01*
X1076262Y2985186D01*
X1093186Y2968262D01*
X1113914Y2956295D01*
X1137033Y2950100D01*
X1160967D01*
X1184086Y2956295D01*
X1204814Y2968262D01*
X1221738Y2985186D01*
X1233705Y3005914D01*
X1235539Y3012757D01*
X1483301D01*
X1731757Y2764301D01*
Y2431500D01*
X1715000D01*
Y2334200D01*
X1715000Y2326500D01*
X1715000Y2313800D01*
Y2297243D01*
X1626000D01*
Y2336500D01*
X1496000D01*
Y2216500D01*
X1626000D01*
Y2240757D01*
X1715000D01*
Y2216500D01*
X1805000D01*
Y2313800D01*
X1805000Y2321500D01*
X1805000Y2334200D01*
Y2350757D01*
X1942301D01*
X1986757Y2306301D01*
Y2167699D01*
X1897301Y2078243D01*
X1178698D01*
X987971Y2268971D01*
X978808Y2275093D01*
X968000Y2277243D01*
X967999Y2277243D01*
X930000D01*
Y2325000D01*
X788000D01*
Y2173000D01*
X930000D01*
Y2220757D01*
X956301D01*
X1147029Y2030030D01*
X1147029Y2030029D01*
X1156192Y2023907D01*
X1167000Y2021757D01*
X1167001Y2021757D01*
X1897301D01*
X1970757Y1948301D01*
Y1795578D01*
X1907923Y1732743D01*
X1813980D01*
X1805000Y1741723D01*
X1805000Y1757000D01*
X1805000Y1769701D01*
Y1867000D01*
X1715000D01*
Y1842743D01*
X1626000D01*
Y1867000D01*
X1496000D01*
Y1747000D01*
X1626000D01*
Y1786257D01*
X1706020D01*
X1715000Y1777277D01*
X1715000Y1762000D01*
X1715000Y1749300D01*
Y1652000D01*
X1731757D01*
Y900001D01*
X1731757Y900000D01*
X1733907Y889192D01*
X1740029Y880029D01*
X1838914Y781144D01*
X1837850Y779300D01*
X1832500Y759335D01*
Y738665D01*
X1837850Y718700D01*
X1838914Y716856D01*
X1745301Y623243D01*
X1235539D01*
X1233705Y630086D01*
X1221738Y650814D01*
X1204814Y667738D01*
X1184086Y679705D01*
X1160967Y685900D01*
X1137033D01*
X1113914Y679705D01*
X1093186Y667738D01*
X1076262Y650814D01*
X1064295Y630086D01*
X1058100Y606967D01*
Y583033D01*
X1064295Y559914D01*
X1076262Y539186D01*
X1093186Y522262D01*
X1113914Y510295D01*
X1137033Y504100D01*
X1160967D01*
X1184086Y510295D01*
X1204814Y522262D01*
X1221738Y539186D01*
X1233705Y559914D01*
X1235539Y566757D01*
X1756999D01*
X1757000Y566757D01*
X1767808Y568907D01*
X1776971Y575029D01*
X1878856Y676914D01*
X1880700Y675850D01*
X1900665Y670500D01*
X1921335D01*
X1941300Y675850D01*
X1943144Y676914D01*
X2040929Y579130D01*
X2040929Y579129D01*
X2050092Y573007D01*
X2060900Y570857D01*
X2124000D01*
Y504100D01*
X2474000D01*
Y694100D01*
X2327243D01*
Y1087301D01*
X2360699Y1120757D01*
X2648999D01*
X2649000Y1120757D01*
X2659808Y1122907D01*
X2668971Y1129029D01*
X2798971Y1259029D01*
X2805093Y1268192D01*
X2807243Y1279000D01*
X2807243Y1279001D01*
Y1872999D01*
X2807243Y1873000D01*
X2805093Y1883808D01*
X2798971Y1892971D01*
X2798970Y1892971D01*
X2722971Y1968971D01*
X2713808Y1975093D01*
X2703000Y1977243D01*
X2702999Y1977243D01*
X2449001D01*
X2449000Y1977243D01*
X2438192Y1975093D01*
X2429029Y1968971D01*
X2429029Y1968970D01*
X2386000Y1925941D01*
X2277243Y2034699D01*
Y2354000D01*
X2473999D01*
Y2544000D01*
X2414243D01*
Y3533090D01*
X2416937Y3533812D01*
X2435213Y3544364D01*
X2450136Y3559287D01*
X2460688Y3577563D01*
X2466150Y3597948D01*
Y3619052D01*
X2460688Y3639437D01*
X2450136Y3657713D01*
X2435213Y3672636D01*
X2416937Y3683188D01*
X2396552Y3688650D01*
D02*
G37*
G36*
X304216Y1765000D02*
X285784D01*
X267981Y1760229D01*
X252019Y1751014D01*
X238986Y1737981D01*
X229770Y1722019D01*
X225000Y1704216D01*
Y1685784D01*
X229770Y1667981D01*
X238986Y1652019D01*
X252019Y1638986D01*
X267981Y1629770D01*
X285784Y1625000D01*
X304216D01*
X322019Y1629770D01*
X337981Y1638986D01*
X351014Y1652019D01*
X360229Y1667981D01*
X365000Y1685784D01*
Y1704216D01*
X360229Y1722019D01*
X351014Y1737981D01*
X337981Y1751014D01*
X322019Y1760229D01*
X304216Y1765000D01*
D02*
G37*
G36*
X1922967Y1193900D02*
X1899033D01*
X1875914Y1187705D01*
X1855186Y1175738D01*
X1838262Y1158814D01*
X1826295Y1138086D01*
X1820100Y1114967D01*
Y1091033D01*
X1826295Y1067914D01*
X1838262Y1047186D01*
X1855186Y1030262D01*
X1875914Y1018295D01*
X1899033Y1012100D01*
X1922967D01*
X1946086Y1018295D01*
X1966814Y1030262D01*
X1983738Y1047186D01*
X1995705Y1067914D01*
X2001900Y1091033D01*
Y1114967D01*
X1995705Y1138086D01*
X1983738Y1158814D01*
X1966814Y1175738D01*
X1946086Y1187705D01*
X1922967Y1193900D01*
D02*
G37*
G36*
X1161700Y939704D02*
Y861700D01*
X1239704D01*
X1233705Y884086D01*
X1221738Y904814D01*
X1204814Y921738D01*
X1184086Y933705D01*
X1161700Y939704D01*
D02*
G37*
G36*
X1136300D02*
X1113914Y933705D01*
X1093186Y921738D01*
X1076262Y904814D01*
X1064295Y884086D01*
X1058296Y861700D01*
X1136300D01*
Y939704D01*
D02*
G37*
G36*
X1239704Y836300D02*
X1161700D01*
Y758296D01*
X1184086Y764295D01*
X1204814Y776262D01*
X1221738Y793186D01*
X1233705Y813914D01*
X1239704Y836300D01*
D02*
G37*
G36*
X1136300D02*
X1058296D01*
X1064295Y813914D01*
X1076262Y793186D01*
X1093186Y776262D01*
X1113914Y764295D01*
X1136300Y758296D01*
Y836300D01*
D02*
G37*
G36*
X6199000Y3855077D02*
X4100500D01*
X4079040Y3850809D01*
X4060847Y3838653D01*
X3910845Y3688650D01*
X3909156D01*
X3769153Y3828653D01*
X3750960Y3840809D01*
X3729500Y3845077D01*
X3330000D01*
X3308540Y3840809D01*
X3290347Y3828653D01*
X3189347Y3727652D01*
X3177191Y3709460D01*
X3172923Y3688000D01*
Y2279527D01*
X3177191Y2258067D01*
X3189347Y2239875D01*
X3270500Y2158722D01*
Y2148665D01*
X3275849Y2128700D01*
X3286184Y2110800D01*
X3300800Y2096184D01*
X3318700Y2085850D01*
X3338665Y2080500D01*
X3359335D01*
X3379300Y2085850D01*
X3397200Y2096184D01*
X3411816Y2110800D01*
X3422150Y2128700D01*
X3427500Y2148665D01*
Y2169335D01*
X3422150Y2189300D01*
X3411816Y2207200D01*
X3397200Y2221816D01*
X3379300Y2232150D01*
X3359335Y2237500D01*
X3350333D01*
X3285077Y2302755D01*
Y3664772D01*
X3353228Y3732923D01*
X3706272D01*
X3829850Y3609345D01*
Y3597948D01*
X3835312Y3577563D01*
X3845864Y3559287D01*
X3860787Y3544364D01*
X3879063Y3533812D01*
X3899448Y3528350D01*
X3920552D01*
X3940937Y3533812D01*
X3959213Y3544364D01*
X3974136Y3559287D01*
X3984688Y3577563D01*
X3990150Y3597948D01*
Y3609345D01*
X4123728Y3742923D01*
X6175772D01*
X6292923Y3625772D01*
Y2672228D01*
X6195772Y2575077D01*
X6071500D01*
Y2789000D01*
X5826500D01*
Y2249000D01*
X6071500D01*
Y2462923D01*
X6219000D01*
X6240460Y2467191D01*
X6258653Y2479347D01*
X6388653Y2609347D01*
X6400809Y2627540D01*
X6405077Y2649000D01*
Y3649000D01*
X6400809Y3670460D01*
X6388653Y3688653D01*
X6238652Y3838653D01*
X6220460Y3850809D01*
X6199000Y3855077D01*
D02*
G37*
G36*
X7236299Y3250810D02*
X7236163D01*
X7211365Y3244165D01*
X7189133Y3231329D01*
X7170980Y3213176D01*
X7168792Y3209387D01*
X6714500D01*
Y3214500D01*
X6661700D01*
Y3149000D01*
Y3083500D01*
X6714500D01*
Y3097233D01*
X7168792D01*
X7170980Y3093444D01*
X7189133Y3075291D01*
X7211365Y3062455D01*
X7236163Y3055810D01*
X7236299D01*
Y3153310D01*
Y3250810D01*
D02*
G37*
G36*
X7261835D02*
X7261699D01*
Y3166010D01*
X7346499D01*
Y3166146D01*
X7339854Y3190944D01*
X7327018Y3213176D01*
X7308865Y3231329D01*
X7286633Y3244165D01*
X7261835Y3250810D01*
D02*
G37*
G36*
X6636300Y3214500D02*
X6583500D01*
Y3161700D01*
X6636300D01*
Y3214500D01*
D02*
G37*
G36*
Y3136300D02*
X6583500D01*
Y3083500D01*
X6636300D01*
Y3136300D01*
D02*
G37*
G36*
X7512215Y3223310D02*
X7493783D01*
X7475980Y3218539D01*
X7460018Y3209324D01*
X7446985Y3196291D01*
X7437769Y3180329D01*
X7432999Y3162526D01*
Y3144094D01*
X7437769Y3126291D01*
X7446985Y3110329D01*
X7460018Y3097296D01*
X7475980Y3088080D01*
X7493783Y3083310D01*
X7512215D01*
X7530018Y3088080D01*
X7545980Y3097296D01*
X7559013Y3110329D01*
X7568228Y3126291D01*
X7572999Y3144094D01*
Y3162526D01*
X7568228Y3180329D01*
X7559013Y3196291D01*
X7545980Y3209324D01*
X7530018Y3218539D01*
X7512215Y3223310D01*
D02*
G37*
G36*
X7346499Y3140610D02*
X7261699D01*
Y3055810D01*
X7261835D01*
X7286633Y3062455D01*
X7308865Y3075291D01*
X7327018Y3093444D01*
X7339854Y3115676D01*
X7346499Y3140474D01*
Y3140610D01*
D02*
G37*
G36*
X7512215Y2969310D02*
X7493783D01*
X7475980Y2964539D01*
X7460018Y2955324D01*
X7446985Y2942291D01*
X7437769Y2926329D01*
X7432999Y2908526D01*
Y2890094D01*
X7437769Y2872291D01*
X7446985Y2856329D01*
X7460018Y2843296D01*
X7475980Y2834080D01*
X7493783Y2829310D01*
X7512215D01*
X7530018Y2834080D01*
X7545980Y2843296D01*
X7559013Y2856329D01*
X7568228Y2872291D01*
X7572999Y2890094D01*
Y2908526D01*
X7568228Y2926329D01*
X7559013Y2942291D01*
X7545980Y2955324D01*
X7530018Y2964539D01*
X7512215Y2969310D01*
D02*
G37*
G36*
X3666552Y3688650D02*
X3645448D01*
X3625063Y3683188D01*
X3606787Y3672636D01*
X3591864Y3657713D01*
X3581312Y3639437D01*
X3575850Y3619052D01*
Y3597948D01*
X3581312Y3577563D01*
X3591864Y3559287D01*
X3606593Y3544558D01*
Y3513329D01*
X3610862Y3491869D01*
X3623018Y3473677D01*
X3757347Y3339347D01*
X3775540Y3327191D01*
X3797000Y3322922D01*
X4726500D01*
Y3109000D01*
X4971500D01*
Y3322922D01*
X5826500D01*
Y3109000D01*
X5892923D01*
Y3020228D01*
X5848772Y2976077D01*
X5720000D01*
X5698540Y2971809D01*
X5680347Y2959653D01*
X5609347Y2888653D01*
X5597191Y2870460D01*
X5592923Y2849000D01*
Y2249000D01*
X5597191Y2227540D01*
X5609347Y2209347D01*
X5709347Y2109347D01*
X5727540Y2097191D01*
X5749000Y2092923D01*
X6549000D01*
X6570460Y2097191D01*
X6588653Y2109347D01*
X6688653Y2209347D01*
X6700809Y2227540D01*
X6705077Y2249000D01*
Y2801810D01*
X6714500D01*
Y2840156D01*
X6718750Y2841001D01*
X6722089Y2843233D01*
X7151499D01*
Y2801810D01*
X7346499D01*
Y2996810D01*
X7151499D01*
Y2955387D01*
X6703789D01*
X6682330Y2951119D01*
X6678990Y2948887D01*
X6674500D01*
X6653040Y2944619D01*
X6635367Y2932810D01*
X6583500D01*
Y2801810D01*
X6592923D01*
Y2272228D01*
X6525772Y2205077D01*
X5772228D01*
X5705077Y2272228D01*
Y2825772D01*
X5743228Y2863923D01*
X5872000D01*
X5893460Y2868191D01*
X5911653Y2880347D01*
X5988653Y2957347D01*
X6000809Y2975540D01*
X6005077Y2997000D01*
Y3109000D01*
X6071500D01*
Y3649000D01*
X5826500D01*
Y3435077D01*
X4971500D01*
Y3649000D01*
X4726500D01*
Y3435077D01*
X3820228D01*
X3718748Y3536557D01*
Y3557899D01*
X3720136Y3559287D01*
X3730688Y3577563D01*
X3736150Y3597948D01*
Y3619052D01*
X3730688Y3639437D01*
X3720136Y3657713D01*
X3705213Y3672636D01*
X3686937Y3683188D01*
X3666552Y3688650D01*
D02*
G37*
G36*
X3412552D02*
X3391448D01*
X3371063Y3683188D01*
X3352787Y3672636D01*
X3337864Y3657713D01*
X3327312Y3639437D01*
X3321850Y3619052D01*
Y3597948D01*
X3327312Y3577563D01*
X3337864Y3559287D01*
X3345923Y3551228D01*
Y2786000D01*
X3350191Y2764540D01*
X3362347Y2746347D01*
X3629347Y2479347D01*
X3647540Y2467191D01*
X3669000Y2462923D01*
X4726500D01*
Y2249000D01*
X4971500D01*
Y2789000D01*
X4726500D01*
Y2575077D01*
X3692228D01*
X3458077Y2809228D01*
Y3551228D01*
X3466136Y3559287D01*
X3476688Y3577563D01*
X3482150Y3597948D01*
Y3619052D01*
X3476688Y3639437D01*
X3466136Y3657713D01*
X3451213Y3672636D01*
X3432937Y3683188D01*
X3412552Y3688650D01*
D02*
G37*
G36*
X6714500Y1826000D02*
X6583500D01*
Y1695000D01*
X6714500D01*
Y1826000D01*
D02*
G37*
G36*
X7512216Y1119000D02*
X7493784D01*
X7475981Y1114229D01*
X7460019Y1105014D01*
X7446986Y1091981D01*
X7437770Y1076019D01*
X7433000Y1058216D01*
Y1039784D01*
X7437770Y1021981D01*
X7446986Y1006019D01*
X7460019Y992986D01*
X7475981Y983770D01*
X7493784Y979000D01*
X7512216D01*
X7530019Y983770D01*
X7545981Y992986D01*
X7559014Y1006019D01*
X7568229Y1021981D01*
X7573000Y1039784D01*
Y1058216D01*
X7568229Y1076019D01*
X7559014Y1091981D01*
X7545981Y1105014D01*
X7530019Y1114229D01*
X7512216Y1119000D01*
D02*
G37*
G36*
X7346500Y892500D02*
X7261700D01*
Y807700D01*
X7346500D01*
Y892500D01*
D02*
G37*
G36*
X7512216Y865000D02*
X7493784D01*
X7475981Y860229D01*
X7460019Y851014D01*
X7446986Y837981D01*
X7437770Y822019D01*
X7433000Y804216D01*
Y785784D01*
X7437770Y767981D01*
X7446986Y752019D01*
X7460019Y738986D01*
X7475981Y729770D01*
X7493784Y725000D01*
X7512216D01*
X7530019Y729770D01*
X7545981Y738986D01*
X7559014Y752019D01*
X7568229Y767981D01*
X7573000Y785784D01*
Y804216D01*
X7568229Y822019D01*
X7559014Y837981D01*
X7545981Y851014D01*
X7530019Y860229D01*
X7512216Y865000D01*
D02*
G37*
G36*
X7346500Y782300D02*
X7261700D01*
Y697500D01*
X7346500D01*
Y782300D01*
D02*
G37*
G36*
X7236300Y892500D02*
X7151500D01*
Y851077D01*
X6695000D01*
X6673540Y846809D01*
X6655347Y834653D01*
X6635195Y814500D01*
X6583500D01*
Y761700D01*
X6649000D01*
Y749000D01*
X6661700D01*
Y683500D01*
X6714500D01*
Y735195D01*
X6718228Y738923D01*
X7151500D01*
Y697500D01*
X7236300D01*
Y795000D01*
Y892500D01*
D02*
G37*
G36*
X6636300Y736300D02*
X6583500D01*
Y683500D01*
X6636300D01*
Y736300D01*
D02*
G37*
%LPD*%
D10*
X1561000Y1807000D02*
D03*
Y1647000D02*
D03*
Y2276500D02*
D03*
Y2436500D02*
D03*
D11*
X1760000Y1704500D02*
D03*
Y1814500D02*
D03*
Y2379000D02*
D03*
Y2269000D02*
D03*
D12*
X2299000Y599100D02*
D03*
X2298999Y2449000D02*
D03*
X2798999D02*
D03*
X2799000Y599100D02*
D03*
D13*
X859000Y2249000D02*
D03*
X549000D02*
D03*
D14*
X4849000Y719000D02*
D03*
Y1578999D02*
D03*
X5949000Y3379000D02*
D03*
Y2519000D02*
D03*
Y1578999D02*
D03*
Y719000D02*
D03*
X4849000Y3379000D02*
D03*
Y2519000D02*
D03*
D15*
X4707000Y259000D02*
X4849000Y401000D01*
X3219000Y363000D02*
X3323000Y259000D01*
X4707000D01*
X3649000Y3601500D02*
X3662671Y3587830D01*
X6695000Y795000D02*
X7249000D01*
X6649000Y749000D02*
X6695000Y795000D01*
X3786500Y1889000D02*
X4686499D01*
X4849000Y1726499D01*
X6703789Y2899310D02*
X7248999D01*
X6674500Y2892810D02*
X6697290D01*
X5872000Y2920000D02*
X5949000Y2997000D01*
Y3379000D01*
X4849000D02*
X5949000D01*
X5720000Y2920000D02*
X5872000D01*
X5649000Y2849000D02*
X5720000Y2920000D01*
X3662671Y3513329D02*
X3797000Y3379000D01*
X4849000D01*
X3662671Y3513329D02*
Y3587830D01*
X3330000Y3789000D02*
X3729500D01*
X3910000Y3608500D01*
X3229000Y2279527D02*
Y3688000D01*
Y2279527D02*
X3349000Y2159527D01*
X3229000Y3688000D02*
X3330000Y3789000D01*
X3910000Y3608500D02*
X4100500Y3799000D01*
X6199000D01*
X6349000Y3649000D01*
Y2649000D02*
Y3649000D01*
X6219000Y2519000D02*
X6349000Y2649000D01*
X5949000Y2519000D02*
X6219000D01*
X3402000Y2786000D02*
Y3608500D01*
X3669000Y2519000D02*
X4849000D01*
X3402000Y2786000D02*
X3669000Y2519000D01*
X3405000Y409000D02*
Y783000D01*
X3910000Y1288000D01*
X4849000Y401000D02*
Y719000D01*
X3219000Y363000D02*
Y1575500D01*
X3656000Y1758500D02*
X3786500Y1889000D01*
X3910000Y1288000D02*
X3989000Y1209000D01*
X5758839D02*
X5948129Y1019710D01*
X3989000Y1209000D02*
X5758839D01*
X5948129Y719870D02*
Y1019710D01*
X5649000Y2249000D02*
Y2849000D01*
Y2249000D02*
X5749000Y2149000D01*
X6549000D01*
X6649000Y2249000D01*
Y2867310D01*
X6653310Y3153310D02*
X7248999D01*
X3219000Y1575500D02*
X3402000Y1758500D01*
X3910000Y1288000D02*
Y1758500D01*
X4849000Y1578999D02*
X5949000D01*
X6419000D01*
X6649000Y1349000D01*
Y1049000D02*
Y1349000D01*
Y1049000D02*
X7249000D01*
D16*
X1954000Y2379000D02*
X2015000Y2318000D01*
Y2156000D02*
Y2318000D01*
X1760000Y2379000D02*
X1954000D01*
X1909000Y2050000D02*
X2015000Y2156000D01*
X1760000Y1704500D02*
X1919621D01*
X1999000Y1783879D02*
Y1960000D01*
X1919621Y1704500D02*
X1999000Y1783879D01*
X1909000Y2050000D02*
X1999000Y1960000D01*
X1167000Y2050000D02*
X1909000D01*
X859000Y2249000D02*
X968000D01*
X1167000Y2050000D01*
X2386000Y1886000D02*
X2449000Y1949000D01*
X2249000Y2023000D02*
X2386000Y1886000D01*
X2249000Y2023000D02*
Y2399000D01*
X2299000Y2449000D01*
X2386000Y1758500D02*
Y1886000D01*
X2449000Y1949000D02*
X2703000D01*
X1760000Y900000D02*
Y1704500D01*
Y900000D02*
X1911000Y749000D01*
X1561000Y1807000D02*
X1568500Y1814500D01*
X1760000D01*
X1149000Y1103000D02*
Y1539000D01*
X1257000Y1647000D01*
X1561000D01*
X1568500Y2269000D02*
X1760000D01*
X1561000Y2276500D02*
X1568500Y2269000D01*
X1149000Y3041000D02*
X1495000D01*
X1760000Y2776000D01*
Y2379000D02*
Y2776000D01*
X1149000Y2431000D02*
X1154500Y2436500D01*
X1561000D01*
X1149000Y2431000D02*
Y2787000D01*
X1152000Y2784000D01*
X7203000Y749000D02*
X7249000Y795000D01*
X4849000Y1578999D02*
Y1726499D01*
X3649000Y3601500D02*
X3656000Y3608500D01*
X999000Y3399000D02*
X1149000Y3549000D01*
X999000Y2937000D02*
Y3399000D01*
Y2937000D02*
X1149000Y2787000D01*
X2703000Y1949000D02*
X2779000Y1873000D01*
Y1279000D02*
Y1873000D01*
X2649000Y1149000D02*
X2779000Y1279000D01*
X2349000Y1149000D02*
X2649000D01*
X2588000Y226000D02*
X2799000Y437000D01*
Y599100D01*
X780000Y226000D02*
X2588000D01*
X549000Y457000D02*
X780000Y226000D01*
X549000Y457000D02*
Y1695000D01*
X2299000Y2449000D02*
X2318700D01*
X2386000Y2516300D01*
X2299000Y599100D02*
Y1099000D01*
X2349000Y1149000D01*
X2060900Y599100D02*
X2299000D01*
X1911000Y749000D02*
X2060900Y599100D01*
X1149000Y595000D02*
X1757000D01*
X1911000Y749000D01*
X2386000Y2516300D02*
Y3608500D01*
X2640000D02*
X2798999Y3449501D01*
Y2449000D02*
Y3449501D01*
Y2283106D02*
Y2449000D01*
Y2283106D02*
X2899000Y2183106D01*
X2802321Y746427D02*
X2899000Y843106D01*
Y2183106D01*
X2802321Y649000D02*
X2879000D01*
X2802321D02*
Y746427D01*
Y602421D02*
Y649000D01*
X2799000Y599100D02*
X2802321Y602421D01*
X1117879Y341000D02*
X1149000D01*
X1005000Y959000D02*
X1149000Y1103000D01*
X1005000Y453879D02*
Y959000D01*
Y453879D02*
X1117879Y341000D01*
X6649000Y3149000D02*
X6653310Y3153310D01*
X549000Y1949000D02*
Y2249000D01*
D17*
X6649000Y2867310D02*
X6674500Y2892810D01*
X6697290D02*
X6703789Y2899310D01*
X3405000Y409000D02*
X3408000Y406000D01*
X5948129Y719870D02*
X5949000Y719000D01*
D18*
X1911000Y3549000D02*
D03*
Y2787000D02*
D03*
X1149000D02*
D03*
Y3041000D02*
D03*
Y3295000D02*
D03*
Y849000D02*
D03*
Y595000D02*
D03*
Y341000D02*
D03*
X1911000Y1103000D02*
D03*
Y341000D02*
D03*
D19*
X1149000Y3549000D02*
D03*
Y1103000D02*
D03*
D20*
X6649000Y3149000D02*
D03*
Y1049000D02*
D03*
Y1760500D02*
D03*
Y749000D02*
D03*
Y2867310D02*
D03*
D21*
X3910000Y3608500D02*
D03*
X3656000D02*
D03*
X3402000D02*
D03*
X2640000D02*
D03*
X2386000D02*
D03*
X3910000Y1758500D02*
D03*
X3656000D02*
D03*
X3402000D02*
D03*
X2640000D02*
D03*
X2386000D02*
D03*
D22*
X1149000Y1539000D02*
D03*
Y2431000D02*
D03*
D23*
X549000Y1695000D02*
D03*
X7249000Y1049000D02*
D03*
X7248999Y3153310D02*
D03*
D24*
X549000Y1949000D02*
D03*
X7249000Y795000D02*
D03*
X7248999Y2899310D02*
D03*
D25*
X295000Y1949000D02*
D03*
Y1695000D02*
D03*
X7503000Y1049000D02*
D03*
Y795000D02*
D03*
X7502999Y2899310D02*
D03*
Y3153310D02*
D03*
D26*
X3408000Y406000D02*
D03*
X1911000Y749000D02*
D03*
X3349000Y2159000D02*
D03*
%TF.MD5,262b8b59b2884fb0257cf7aff8c34e2c*%
M02*
