%TF.GenerationSoftware,Altium Limited,Altium Designer,23.2.1 (34)*%
G04 Layer_Color=0*
%FSLAX45Y45*%
%MOMM*%
%TF.SameCoordinates,3015DBAE-21F6-41EF-B07E-3AD50EAB7A3F*%
%TF.FilePolarity,Positive*%
%TF.FileFunction,Plated,1,2,PTH,Drill*%
%TF.Part,Single*%
G01*
G75*
%TA.AperFunction,ComponentDrill*%
%ADD85C,1.10000*%
%ADD90C,0.76000*%
%ADD91C,1.10000*%
%ADD92C,1.01000*%
%TA.AperFunction,ViaDrill,NotFilled*%
%ADD93C,0.71120*%
D85*
X7037981Y936134D02*
D03*
Y1190134D02*
D03*
X7055000Y3149000D02*
D03*
Y2895000D02*
D03*
X556000Y1951000D02*
D03*
Y1697000D02*
D03*
D90*
X3678000Y1758500D02*
D03*
X3932000D02*
D03*
X4186000D02*
D03*
X2916000D02*
D03*
X2662000D02*
D03*
X4178000Y3713500D02*
D03*
X3924000D02*
D03*
X3670000D02*
D03*
X2908000D02*
D03*
X2654000D02*
D03*
D91*
X7037981Y1887134D02*
D03*
Y1496134D02*
D03*
X7055000Y3487000D02*
D03*
Y2535000D02*
D03*
X1332000Y1630000D02*
D03*
Y2520561D02*
D03*
X7039981Y572134D02*
D03*
D92*
X2187000Y341000D02*
D03*
Y1103000D02*
D03*
X1425000Y341000D02*
D03*
Y595000D02*
D03*
Y849000D02*
D03*
Y1103000D02*
D03*
X2188000Y3671000D02*
D03*
Y2909000D02*
D03*
X1426000D02*
D03*
Y3163000D02*
D03*
Y3417000D02*
D03*
Y3671000D02*
D03*
D93*
X3684000Y406000D02*
D03*
X2187000Y749000D02*
D03*
X3617000Y2264000D02*
D03*
%TF.MD5,7c8fc927c30b5ae765a8d0d435eedae9*%
M02*
