%TF.GenerationSoftware,Altium Limited,Altium Designer,23.2.1 (34)*%
G04 Layer_Color=16711935*
%FSLAX45Y45*%
%MOMM*%
%TF.SameCoordinates,30BCF74E-8D5C-4CB1-BD29-C8B6E5BAA9CA*%
%TF.FilePolarity,Negative*%
%TF.FileFunction,Soldermask,Bot*%
%TF.Part,Single*%
G01*
G75*
%TA.AperFunction,Conductor*%
%ADD15C,0.80000*%
%ADD16C,0.25400*%
%ADD17C,0.50000*%
%TA.AperFunction,SMDPad,CuDef*%
%ADD53R,1.32320X1.42320*%
%TA.AperFunction,Conductor*%
%ADD56C,0.45400*%
%TA.AperFunction,ComponentPad*%
%ADD58C,1.72120*%
%ADD59R,1.72120X1.72120*%
%ADD60R,1.21320X1.21320*%
%ADD61C,1.50620*%
%ADD62R,1.21320X1.21320*%
%ADD63C,1.85320*%
%ADD64R,1.85320X1.85320*%
%ADD65C,1.30320*%
%TA.AperFunction,ViaPad*%
%ADD66C,1.47320*%
%TA.AperFunction,SMDPad,CuDef*%
%ADD67R,1.10320X0.85320*%
%ADD68R,0.85320X1.10320*%
%ADD69R,2.00660X1.32080*%
%ADD70R,3.52320X1.44320*%
%ADD71R,2.45320X2.35320*%
%ADD72R,1.25320X2.00320*%
%ADD73R,1.36320X2.02320*%
%ADD74R,1.45320X1.70320*%
G04:AMPARAMS|DCode=75|XSize=1.4132mm|YSize=0.7832mm|CornerRadius=0.1741mm|HoleSize=0mm|Usage=FLASHONLY|Rotation=90.000|XOffset=0mm|YOffset=0mm|HoleType=Round|Shape=RoundedRectangle|*
%AMROUNDEDRECTD75*
21,1,1.41320,0.43500,0,0,90.0*
21,1,1.06500,0.78320,0,0,90.0*
1,1,0.34820,0.21750,0.53250*
1,1,0.34820,0.21750,-0.53250*
1,1,0.34820,-0.21750,-0.53250*
1,1,0.34820,-0.21750,0.53250*
%
%ADD75ROUNDEDRECTD75*%
%ADD76R,1.32080X2.00660*%
%TA.AperFunction,BGAPad,CuDef*%
%ADD77C,1.33320*%
%TA.AperFunction,SMDPad,CuDef*%
%ADD78R,1.33320X1.33320*%
%ADD79R,1.82320X2.56320*%
%ADD80R,1.44320X3.52320*%
%ADD81R,2.00320X1.25320*%
%TA.AperFunction,Conductor*%
%ADD82C,1.00000*%
%ADD83C,0.70000*%
D15*
X3235020Y1415069D02*
X3303327Y1346762D01*
X3235020Y1415069D02*
Y1533120D01*
X3658000Y3504000D02*
Y3606500D01*
X3563000Y3409000D02*
X3658000Y3504000D01*
X3762430Y3399570D01*
X4806830Y3186830D02*
X4909000Y3289000D01*
X4889000Y969000D02*
X5134000D01*
X5334000Y1174000D02*
X6149000D01*
X5216500Y1056500D02*
X5334000Y1174000D01*
X3534740Y1637240D02*
X3656000Y1758500D01*
X3351984Y473790D02*
Y565016D01*
X5216500Y421500D02*
X5349000Y289000D01*
X6439000D01*
X3351984Y473790D02*
X3408000Y417774D01*
X4799000Y879000D02*
X4889000Y969000D01*
X4799000Y601500D02*
Y879000D01*
X3986330Y1296330D02*
X4048720Y1358720D01*
X3898860Y1296330D02*
X3986330D01*
D16*
X1153500Y2435500D02*
Y2596000D01*
X1151250Y2598250D02*
Y2784750D01*
X1154500Y2145500D02*
X1249000Y2240000D01*
X1154500Y1930500D02*
Y2145500D01*
X1249000Y2240000D02*
X1993000D01*
X2027479Y2127860D02*
Y2205521D01*
X1993000Y2240000D02*
X2027479Y2205521D01*
X1951619Y2052000D02*
X2027479Y2127860D01*
X1249000Y1479000D02*
Y2111381D01*
X1316619Y2179000D01*
X1387739D02*
X1880499D01*
X1149000Y1539000D02*
Y1780000D01*
X1822000Y2398000D02*
X1862839Y2357161D01*
Y2321240D02*
Y2357161D01*
X1369000Y2398000D02*
X1822000D01*
X1298500Y2468500D02*
X1369000Y2398000D01*
X1298500Y2468500D02*
Y2596000D01*
X1387739Y1925000D02*
X1880499D01*
X1669000Y1989000D02*
X2019000D01*
X1606000Y2052000D02*
X1669000Y1989000D01*
X2019000D02*
X2109000Y2079000D01*
X1387739Y2052000D02*
X1606000D01*
X1880499Y1925000D02*
X2055000D01*
X1383290Y869020D02*
X1701828Y550482D01*
X1880499Y1380499D02*
Y1544000D01*
X1749000Y1249000D02*
X1880499Y1380499D01*
X1739000Y1614379D02*
Y1727621D01*
Y1614379D02*
X1809379Y1544000D01*
X1739000Y1727621D02*
X1809379Y1798000D01*
X1527999Y2629000D02*
X1859000D01*
X1453999Y2555000D02*
X1527999Y2629000D01*
X1859000D02*
X2179000Y2309000D01*
X2055000Y1925000D02*
X2179000Y2049000D01*
Y2309000D01*
X1549000Y1371000D02*
Y1580859D01*
X1458859Y1671000D02*
X1549000Y1580859D01*
X2253000Y2605000D02*
X2551999D01*
X1648499Y2519000D02*
X1849000D01*
X2109000Y2259000D01*
Y2079000D02*
Y2259000D01*
X1149000Y1103000D02*
Y1539000D01*
X1644000Y1371000D02*
Y1612859D01*
X1458859Y1798000D02*
X1644000Y1612859D01*
X1249000Y1479000D02*
X1357000Y1371000D01*
X1454000D01*
D17*
X5134000Y969000D02*
X5216500Y1051500D01*
Y1056500D01*
D53*
X3895500Y349000D02*
D03*
X3585500D02*
D03*
X3899500Y2123000D02*
D03*
X3589500D02*
D03*
D56*
X955000Y2306000D02*
X1362920D01*
X847000Y2414000D02*
X955000Y2306000D01*
X847000Y2861000D02*
X1027000Y3041000D01*
X847000Y2414000D02*
Y2861000D01*
X1027000Y3041000D02*
X1149000D01*
X1307140D01*
X749000Y1749000D02*
Y3179000D01*
X3444500Y2714500D02*
Y2723500D01*
X3362760Y2805240D02*
Y2842238D01*
X3345999Y2859000D02*
X3362760Y2842238D01*
X865000Y3295000D02*
X1149000D01*
X749000Y3179000D02*
X865000Y3295000D01*
X1149000D02*
X1345140D01*
X1379346Y228000D02*
X1701828Y550482D01*
X2537482D01*
X780000Y228000D02*
X1379346D01*
X2537482Y550482D02*
X2555000Y568000D01*
X549000Y459000D02*
Y1695000D01*
Y459000D02*
X780000Y228000D01*
X1375732Y2675733D02*
X1475732D01*
X1349000Y2702465D02*
Y2999140D01*
Y2702465D02*
X1375732Y2675733D01*
X1494534Y2675900D02*
X1532700Y2714066D01*
X1458221Y2778721D02*
Y2858221D01*
X1509000Y2909000D01*
X2249000D01*
X1749000Y1151500D02*
X1846500Y1249000D01*
X1949000D01*
X1660300Y1151500D02*
X1749000D01*
X1349000Y869020D02*
Y1234121D01*
X1149000Y595000D02*
X1323300D01*
X2386000Y1585450D02*
Y1758500D01*
X1549000Y2774500D02*
X1644000D01*
X1454000Y1120000D02*
X1549000D01*
X1565300Y1059566D02*
X1856426Y768440D01*
X2386000Y3435860D02*
Y3608500D01*
X2658860Y3219861D02*
Y3409000D01*
X2640000Y3427860D02*
Y3608500D01*
Y1758500D02*
Y2168000D01*
X2551999Y3113000D02*
X2658860Y3219861D01*
X2551999Y2256001D02*
X2640000Y2168000D01*
X2551999Y2859000D02*
Y3113000D01*
Y2256001D02*
Y2351000D01*
X2649270Y1424270D02*
Y1549000D01*
X2555000Y1330000D02*
X2649270Y1424270D01*
X2640000Y1558270D02*
Y1758500D01*
X2555000Y1076000D02*
Y1330000D01*
X695000Y1695000D02*
X749000Y1749000D01*
X549000Y1695000D02*
X695000D01*
X1565300Y1302340D02*
X1618640Y1249000D01*
X1749000D01*
X1471134D02*
X1549000Y1326866D01*
X1363879Y1249000D02*
X1471134D01*
X1149000Y849000D02*
X1328980D01*
X4499000Y2119000D02*
X4512500Y2105500D01*
X1949000Y1249000D02*
X2049000Y1149000D01*
X2218000D01*
X2253000Y822000D02*
X2555000D01*
D58*
X1911000Y3549000D02*
D03*
Y2787000D02*
D03*
X1149000D02*
D03*
Y3041000D02*
D03*
Y3295000D02*
D03*
Y849000D02*
D03*
Y595000D02*
D03*
Y341000D02*
D03*
X1911000Y1103000D02*
D03*
Y341000D02*
D03*
D59*
X1149000Y3549000D02*
D03*
Y1103000D02*
D03*
D60*
X6649000Y3149000D02*
D03*
Y1049000D02*
D03*
Y1760500D02*
D03*
Y749000D02*
D03*
Y2867310D02*
D03*
D61*
X3910000Y3608500D02*
D03*
X3656000D02*
D03*
X3402000D02*
D03*
X2640000D02*
D03*
X2386000D02*
D03*
X3910000Y1758500D02*
D03*
X3656000D02*
D03*
X3402000D02*
D03*
X2640000D02*
D03*
X2386000D02*
D03*
D62*
X1149000Y1539000D02*
D03*
Y2431000D02*
D03*
D63*
X549000Y1695000D02*
D03*
X7249000Y1049000D02*
D03*
X7248999Y3153310D02*
D03*
D64*
X549000Y1949000D02*
D03*
X7249000Y795000D02*
D03*
X7248999Y2899310D02*
D03*
D65*
X295000Y1949000D02*
D03*
Y1695000D02*
D03*
X7503000Y1049000D02*
D03*
Y795000D02*
D03*
X7502999Y2899310D02*
D03*
Y3153310D02*
D03*
D66*
X3408000Y406000D02*
D03*
X1911000Y749000D02*
D03*
X3349000Y2159000D02*
D03*
D67*
X1154500Y1785500D02*
D03*
Y1930500D02*
D03*
D68*
X1298500Y2596000D02*
D03*
X1153500D02*
D03*
D69*
X1349000Y3298860D02*
D03*
Y2999140D02*
D03*
Y569300D02*
D03*
Y869020D02*
D03*
D70*
X6149000Y1174000D02*
D03*
Y1772000D02*
D03*
D71*
X5129000Y969000D02*
D03*
X5569000D02*
D03*
X5128999Y2105500D02*
D03*
X5129000Y509000D02*
D03*
Y2611500D02*
D03*
X5569000D02*
D03*
X5569000Y2105500D02*
D03*
X5569000Y509000D02*
D03*
D72*
X4499000Y601500D02*
D03*
Y2359000D02*
D03*
X4799000D02*
D03*
Y601500D02*
D03*
D73*
X3882500Y600500D02*
D03*
X3587500D02*
D03*
X3882500Y2359000D02*
D03*
X3587500D02*
D03*
D74*
X4489000Y349000D02*
D03*
X4509000Y2109000D02*
D03*
X4164000D02*
D03*
X4144000Y349000D02*
D03*
D75*
X1548999Y2774500D02*
D03*
X1643999D02*
D03*
X1454000Y1120000D02*
D03*
X1549000D02*
D03*
X1548999Y2523500D02*
D03*
X1549000Y1371000D02*
D03*
X1454000D02*
D03*
X1453999Y2523500D02*
D03*
X1643999D02*
D03*
X1644000Y1371000D02*
D03*
Y1120000D02*
D03*
X1453999Y2774500D02*
D03*
D76*
X2349550Y1549000D02*
D03*
X2359140Y3409000D02*
D03*
X2658860D02*
D03*
X2649270Y1549000D02*
D03*
X3599140Y1296330D02*
D03*
X3898860D02*
D03*
X3749000Y1549000D02*
D03*
X4048720D02*
D03*
X3518860D02*
D03*
X3219140D02*
D03*
X3898860Y3159000D02*
D03*
X3599140D02*
D03*
X4098860Y3409000D02*
D03*
X3799140D02*
D03*
X3518860D02*
D03*
X3219140D02*
D03*
D77*
X2551999Y3113000D02*
D03*
Y2859000D02*
D03*
X2555000Y1330000D02*
D03*
Y1076000D02*
D03*
X3349000Y1330000D02*
D03*
Y1076000D02*
D03*
Y822000D02*
D03*
Y568000D02*
D03*
X2555000Y822000D02*
D03*
X2551999Y2605000D02*
D03*
X3345999Y2351000D02*
D03*
Y2605000D02*
D03*
Y2859000D02*
D03*
Y3113000D02*
D03*
D78*
X2551999Y2351000D02*
D03*
X2555000Y568000D02*
D03*
D79*
X4649000Y1669160D02*
D03*
Y1324160D02*
D03*
Y3186830D02*
D03*
Y3531830D02*
D03*
D80*
X4189500Y931500D02*
D03*
X3591500D02*
D03*
X3591500Y2714500D02*
D03*
X4189500D02*
D03*
D81*
X2249000Y2609000D02*
D03*
Y2909000D02*
D03*
Y1118000D02*
D03*
Y818000D02*
D03*
D82*
X6649000Y2867310D02*
X6681000Y2899310D01*
X7248999D01*
X4649000Y3186830D02*
X4806830D01*
X4909000Y3289000D02*
Y3629000D01*
X4759000Y3779000D02*
X4909000Y3629000D01*
X6653310Y3153310D02*
X7248999D01*
X5207310Y2867310D02*
X6649000D01*
X5129000Y2611500D02*
Y2789000D01*
X5207310Y2867310D01*
X5129000Y3149000D02*
X6649000D01*
X4679000Y2699000D02*
X5129000Y3149000D01*
X4205000Y2699000D02*
X4679000D01*
X5569000Y2105500D02*
Y2611500D01*
X4901500D02*
X5129000D01*
X4799000Y2509000D02*
X4901500Y2611500D01*
X4799000Y2359000D02*
Y2509000D01*
X4499000Y2119000D02*
Y2359000D01*
X4512500Y2105500D02*
X5128999D01*
X3899500Y2109000D02*
X4164000D01*
X4289500Y2359000D02*
X4499000D01*
X4189500Y2459000D02*
X4289500Y2359000D01*
X4189500Y2459000D02*
Y2714500D01*
X4089500Y2359000D02*
X4189500Y2459000D01*
X3882500Y2359000D02*
X4089500D01*
X3591500Y2363000D02*
Y2714500D01*
X3589500Y2123000D02*
Y2357000D01*
X3347500Y2160500D02*
Y2349499D01*
X3444500Y2714500D02*
X3591500D01*
X3345999Y2615999D02*
X3444500Y2714500D01*
X3362760Y2805240D02*
X3444500Y2723500D01*
X6149000Y1772000D02*
X6154250D01*
X6164750Y1761500D01*
X6648000D01*
X6649000Y1760500D01*
Y749000D02*
X6695000Y795000D01*
X7249000D01*
X4048720Y1358720D02*
Y1583290D01*
X3656000Y1758500D02*
X3749000Y1665500D01*
X3409651Y1758500D02*
X3530151Y1879000D01*
X3219140Y1583290D02*
X3235020Y1599170D01*
X3242670D01*
X3530151Y1879000D02*
X4819000D01*
X3219140Y1549000D02*
Y1583290D01*
X3242670Y1599170D02*
X3402000Y1758500D01*
X3349000Y1330000D02*
X3565470D01*
X3351157Y1066023D02*
X3485680Y931500D01*
X3388513Y836491D02*
X3483522Y931500D01*
X6439000Y289000D02*
X6649000Y499000D01*
X6154000Y1179000D02*
X6519000D01*
X6649000Y1049000D01*
Y499000D02*
Y749000D01*
X3749000Y1549000D02*
Y1665500D01*
X4819000Y1879000D02*
X4949000Y1749000D01*
X3898860Y3159000D02*
X4049000D01*
X4098860Y3208860D01*
Y3409000D01*
X3910000Y3608500D02*
X4059500D01*
X4099000Y3569000D01*
Y3409140D02*
Y3569000D01*
X4098860Y3409000D02*
X4339000D01*
X4461830Y3531830D01*
X4649000D01*
X3572500Y3779000D02*
X4759000D01*
X3402000Y3608500D02*
X3572500Y3779000D01*
X3219140Y3222811D02*
X3328951Y3113000D01*
X3360788D02*
X3406788Y3159000D01*
X3599140D01*
X3219140Y3222811D02*
Y3409000D01*
X3289000Y3619000D02*
X3391500D01*
X3219140Y3409000D02*
Y3549140D01*
X3289000Y3619000D01*
X4949000Y1449000D02*
Y1749000D01*
X4849000Y1349000D02*
X4949000Y1449000D01*
X4673839Y1349000D02*
X4849000D01*
X6649000Y1049000D02*
X7249000D01*
X4045251Y1758500D02*
X4134590Y1669160D01*
X3910000Y1758500D02*
X4045251D01*
X4048720Y1583290D02*
X4134590Y1669160D01*
X4649000D01*
X4277499Y601500D02*
X4499000D01*
X4189500Y689500D02*
X4277499Y601500D01*
X4100500Y600500D02*
X4189500Y689500D01*
X3882500Y600500D02*
X4100500D01*
X4189500Y689500D02*
Y931500D01*
X4489000Y349000D02*
Y591500D01*
X3895500Y349000D02*
X4144000D01*
X3585500D02*
Y598500D01*
X3485680Y931500D02*
X3591500D01*
Y604500D02*
Y931500D01*
D83*
X3587500Y2359000D02*
X3591500Y2363000D01*
X3328951Y3113000D02*
X3360788D01*
%TF.MD5,3d6834dc353526a3d67ca0bd8fb8b242*%
M02*
