%TF.GenerationSoftware,Altium Limited,Altium Designer,23.2.1 (34)*%
G04 Layer_Color=16711935*
%FSLAX45Y45*%
%MOMM*%
%TF.SameCoordinates,30BCF74E-8D5C-4CB1-BD29-C8B6E5BAA9CA*%
%TF.FilePolarity,Positive*%
%TF.FileFunction,Other,Mechanical_13*%
%TF.Part,Single*%
G01*
G75*
%TA.AperFunction,NonConductor*%
%ADD43C,0.20000*%
%ADD44C,0.12700*%
%ADD46C,0.10000*%
%ADD47C,0.15240*%
%ADD48C,0.07620*%
%ADD84C,0.00000*%
%ADD85C,0.02540*%
D43*
X1159000Y3943000D02*
G03*
X1159000Y3943000I-10000J0D01*
G01*
X6659000Y3355900D02*
G03*
X6659000Y3355900I-10000J0D01*
G01*
X1159000Y1497000D02*
G03*
X1159000Y1497000I-10000J0D01*
G01*
X1365900Y1539000D02*
G03*
X1365900Y1539000I-10000J0D01*
G01*
Y2431000D02*
G03*
X1365900Y2431000I-10000J0D01*
G01*
X1464000Y1495500D02*
G03*
X1464000Y1495500I-10000J0D01*
G01*
X1653999Y2399000D02*
G03*
X1653999Y2399000I-10000J0D01*
G01*
X4509000Y1786660D02*
G03*
X4509000Y1786660I-10000J0D01*
G01*
Y3649330D02*
G03*
X4509000Y3649330I-10000J0D01*
G01*
X6659000Y1255900D02*
G03*
X6659000Y1255900I-10000J0D01*
G01*
X559000Y2149000D02*
G03*
X559000Y2149000I-10000J0D01*
G01*
X7259000Y595000D02*
G03*
X7259000Y595000I-10000J0D01*
G01*
X7258999Y2699310D02*
G03*
X7258999Y2699310I-10000J0D01*
G01*
X6659000Y1967400D02*
G03*
X6659000Y1967400I-10000J0D01*
G01*
X2144000Y2584000D02*
G03*
X2144000Y2584000I-10000J0D01*
G01*
X6659000Y955900D02*
G03*
X6659000Y955900I-10000J0D01*
G01*
X2144000Y734100D02*
G03*
X2144000Y734100I-10000J0D01*
G01*
X6659000Y3074210D02*
G03*
X6659000Y3074210I-10000J0D01*
G01*
X2136500Y2896500D02*
Y3901500D01*
Y2896500D02*
X4101500D01*
Y3901500D01*
X2136500D02*
X4101500D01*
X2136500Y1046500D02*
Y2051500D01*
Y1046500D02*
X4101500D01*
Y2051500D01*
X2136500D02*
X4101500D01*
D44*
X255000Y3879000D02*
X2084000D01*
Y2660000D02*
Y3879000D01*
X255000Y2660000D02*
X2084000D01*
X255000D02*
Y3879000D01*
X1194500Y1778000D02*
Y1938000D01*
X1114500Y1778000D02*
Y1938000D01*
Y1778000D02*
X1194500D01*
X1114500Y1938000D02*
X1194500D01*
X1146000Y2636000D02*
X1306000D01*
X1146000Y2556000D02*
X1306000D01*
Y2636000D01*
X1146000Y2556000D02*
Y2636000D01*
X255000Y1433000D02*
X2084000D01*
Y214000D02*
Y1689000D01*
X255000Y214000D02*
X2084000D01*
X255000D02*
Y1433000D01*
X5984000Y1798000D02*
X6314000D01*
X5984000Y1147999D02*
X6314000D01*
X5984000D02*
Y1798000D01*
X6314000Y1147999D02*
Y1798000D01*
X1404000Y1165500D02*
Y1325500D01*
X1694000D01*
Y1165500D02*
Y1325500D01*
X1404000Y1165500D02*
X1694000D01*
X1403999Y2729000D02*
X1693999D01*
X1403999Y2569000D02*
Y2729000D01*
Y2569000D02*
X1693999D01*
Y2729000D01*
X4520000Y1711661D02*
X4778000D01*
X4864000Y1625660D01*
Y1281660D02*
Y1625660D01*
X4434000Y1281660D02*
X4864000D01*
X4434000D02*
Y1625660D01*
X4520000Y1711661D01*
X3565000Y510500D02*
Y690500D01*
X3905000Y510500D02*
Y690500D01*
X3565000Y510500D02*
X3905000D01*
X3565000Y690500D02*
X3905000D01*
X3565500Y766500D02*
Y1096500D01*
X4215500Y766500D02*
Y1096500D01*
X3565500Y766500D02*
X4215500D01*
X3565500Y1096500D02*
X4215500D01*
X3565000Y2269000D02*
Y2449000D01*
X3905000Y2269000D02*
Y2449000D01*
X3565000Y2269000D02*
X3905000D01*
X3565000Y2449000D02*
X3905000D01*
X3565500Y2879500D02*
X4215500D01*
X3565500Y2549500D02*
X4215500D01*
Y2879500D01*
X3565500Y2549500D02*
Y2879500D01*
X4434000Y3488330D02*
X4520000Y3574330D01*
X4434000Y3144330D02*
Y3488330D01*
Y3144330D02*
X4864000D01*
Y3488330D01*
X4778000Y3574330D02*
X4864000Y3488330D01*
X4520000Y3574330D02*
X4778000D01*
X239000Y1545000D02*
Y2099000D01*
X859000Y1545000D02*
Y2099000D01*
X239000D02*
X859000D01*
X239000Y1545000D02*
X859000D01*
X6939000Y1199000D02*
X7559000D01*
X6939000Y645000D02*
X7559000D01*
X6939000D02*
Y1199000D01*
X7559000Y645000D02*
Y1199000D01*
X7558999Y2749310D02*
Y3303310D01*
X6938999Y2749310D02*
Y3303310D01*
Y2749310D02*
X7558999D01*
X6938999Y3303310D02*
X7558999D01*
X2218999Y2679000D02*
X2318999Y2779000D01*
X2879000D01*
Y2119000D02*
Y2779000D01*
X2318999Y2119000D02*
X2879000D01*
X2218999Y2219000D02*
X2318999Y2119000D01*
X2218999Y2219000D02*
Y2679000D01*
X2219000Y829100D02*
X2319000Y929100D01*
X2879000D01*
Y269100D02*
Y929100D01*
X2319000Y269100D02*
X2879000D01*
X2219000Y369100D02*
X2319000Y269100D01*
X2219000Y369100D02*
Y829100D01*
D46*
X1521000Y1647000D02*
Y1807000D01*
X1601000D01*
Y1647000D02*
Y1807000D01*
X1521000Y1647000D02*
X1601000D01*
X1521000Y1673700D02*
X1547700Y1647000D01*
X1785000Y1709500D02*
Y1809500D01*
X1735000Y1709500D02*
X1785000D01*
X1735000D02*
Y1809500D01*
X1785000D01*
X1735000Y2274000D02*
Y2374000D01*
X1785000D01*
Y2274000D02*
Y2374000D01*
X1735000Y2274000D02*
X1785000D01*
X1601000Y2276500D02*
Y2436500D01*
X1521000Y2276500D02*
X1601000D01*
X1521000D02*
Y2436500D01*
X1601000D01*
X1574300D02*
X1601000Y2409800D01*
X6585500Y3270920D02*
X6712500D01*
X6585500Y3027080D02*
X6712500D01*
X6585500D02*
Y3270920D01*
X6712500Y3027080D02*
Y3270920D01*
X5078800Y787800D02*
X5619200D01*
Y1150200D01*
X5078800D02*
X5619200D01*
X5078800Y787800D02*
Y1150200D01*
Y895200D02*
X5186200Y787800D01*
X1270920Y1475500D02*
Y1602500D01*
X1027080Y1475500D02*
Y1602500D01*
X1270920D01*
X1027080Y1475500D02*
X1270920D01*
X1027080Y2367500D02*
X1270920D01*
X1027080Y2494500D02*
X1270920D01*
X1027080Y2367500D02*
Y2494500D01*
X1270920Y2367500D02*
Y2494500D01*
X4324000Y624000D02*
X5374000D01*
X4324000D02*
Y1411500D01*
X4586500Y1673999D01*
X5111500D01*
X5374000Y1411500D01*
Y624000D02*
Y1411500D01*
X5424000Y3474000D02*
X6474000D01*
Y2686500D02*
Y3474000D01*
X6211500Y2424000D02*
X6474000Y2686500D01*
X5686500Y2424000D02*
X6211500D01*
X5424000Y2686500D02*
X5686500Y2424000D01*
X5424000Y2686500D02*
Y3474000D01*
X4806500Y2279000D02*
Y2439000D01*
X4491500Y2279000D02*
X4806500D01*
X4491500D02*
Y2439000D01*
X4806500D01*
Y521500D02*
Y681500D01*
X4491500Y521500D02*
X4806500D01*
X4491500D02*
Y681500D01*
X4806500D01*
X4180300Y2031500D02*
Y2186500D01*
X4492700D01*
Y2031500D02*
Y2186500D01*
X4180300Y2031500D02*
X4492700D01*
X5078800Y2430300D02*
X5619200D01*
Y2792700D01*
X5078800D02*
X5619200D01*
X5078800Y2430300D02*
Y2792700D01*
Y2537700D02*
X5186200Y2430300D01*
X5078799Y2031700D02*
X5186199Y1924300D01*
X5078799D02*
Y2286700D01*
X5619200D01*
Y1924300D02*
Y2286700D01*
X5078799Y1924300D02*
X5619200D01*
X5078800Y327800D02*
X5619200D01*
Y690200D01*
X5078800D02*
X5619200D01*
X5078800Y327800D02*
Y690200D01*
Y435200D02*
X5186200Y327800D01*
X3600500Y439000D02*
X3880500D01*
X3600500Y259000D02*
Y439000D01*
Y259000D02*
X3880500D01*
Y439000D01*
X3824500D02*
X3880500Y383000D01*
X3604500Y2213000D02*
X3884500D01*
X3604500Y2033000D02*
Y2213000D01*
Y2033000D02*
X3884500D01*
Y2213000D01*
X3828500D02*
X3884500Y2157000D01*
X2622000Y441000D02*
X3282000D01*
Y1457000D01*
X2622000D02*
X3282000D01*
X2622000Y441000D02*
Y1457000D01*
Y568000D02*
X2749000Y441000D01*
X2618999Y2351000D02*
X2745999Y2224000D01*
X2618999D02*
Y3240000D01*
X3278999D01*
Y2224000D02*
Y3240000D01*
X2618999Y2224000D02*
X3278999D01*
X6585500Y1170920D02*
X6712500D01*
X6585500Y927080D02*
X6712500D01*
X6585500D02*
Y1170920D01*
X6712500Y927080D02*
Y1170920D01*
X5424000Y1673999D02*
X6474000D01*
Y886499D02*
Y1673999D01*
X6211500Y624000D02*
X6474000Y886499D01*
X5686500Y624000D02*
X6211500D01*
X5424000Y886499D02*
X5686500Y624000D01*
X5424000Y886499D02*
Y1673999D01*
X5374000Y2424000D02*
Y3211500D01*
X5111500Y3474000D02*
X5374000Y3211500D01*
X4586500Y3474000D02*
X5111500D01*
X4324000Y3211500D02*
X4586500Y3474000D01*
X4324000Y2424000D02*
Y3211500D01*
Y2424000D02*
X5374000D01*
X6712500Y1638580D02*
Y1882420D01*
X6585500Y1638580D02*
Y1882420D01*
Y1638580D02*
X6712500D01*
X6585500Y1882420D02*
X6712500D01*
X2169000Y2916500D02*
X2329000D01*
Y2601500D02*
Y2916500D01*
X2169000Y2601500D02*
X2329000D01*
X2169000D02*
Y2916500D01*
Y1125500D02*
X2329000D01*
Y810500D02*
Y1125500D01*
X2169000Y810500D02*
X2329000D01*
X2169000D02*
Y1125500D01*
X6712500Y627080D02*
Y870920D01*
X6585500Y627080D02*
Y870920D01*
Y627080D02*
X6712500D01*
X6585500Y870920D02*
X6712500D01*
X788000Y2159000D02*
X844000Y2215000D01*
Y2159000D02*
Y2339000D01*
X564000D02*
X844000D01*
X564000Y2159000D02*
Y2339000D01*
Y2159000D02*
X844000D01*
X4160300Y271500D02*
X4472700D01*
Y426500D01*
X4160300D02*
X4472700D01*
X4160300Y271500D02*
Y426500D01*
X6585500Y2989230D02*
X6712500D01*
X6585500Y2745390D02*
X6712500D01*
X6585500D02*
Y2989230D01*
X6712500Y2745390D02*
Y2989230D01*
D47*
X1260100Y2978820D02*
X1437900D01*
Y3055020D02*
Y3242980D01*
X1260100Y3319180D02*
X1437900D01*
X1260100Y3055020D02*
Y3242980D01*
X1437900D02*
Y3319180D01*
X1260100Y3242980D02*
Y3319180D01*
Y3242980D02*
X1437900D01*
X1260100Y2978820D02*
Y3055020D01*
X1437900Y2978820D02*
Y3055020D01*
X1260100D02*
X1437900D01*
X3655020Y1207430D02*
Y1385230D01*
X3578820Y1207430D02*
X3655020D01*
X3578820Y1385230D02*
X3655020D01*
X3842980Y1207430D02*
Y1385230D01*
X3919180D01*
X3842980Y1207430D02*
X3919180D01*
X3655020Y1385230D02*
X3842980D01*
X3919180Y1207430D02*
Y1385230D01*
X3655020Y1207430D02*
X3842980D01*
X3578820D02*
Y1385230D01*
X3804880Y1460100D02*
Y1637900D01*
X3728680Y1460100D02*
X3804880D01*
X3728680Y1637900D02*
X3804880D01*
X3992840Y1460100D02*
Y1637900D01*
X4069040D01*
X3992840Y1460100D02*
X4069040D01*
X3804880Y1637900D02*
X3992840D01*
X4069040Y1460100D02*
Y1637900D01*
X3804880Y1460100D02*
X3992840D01*
X3728680D02*
Y1637900D01*
X3198820Y1460100D02*
Y1637900D01*
X3275020Y1460100D02*
X3462980D01*
X3539180D02*
Y1637900D01*
X3275020D02*
X3462980D01*
Y1460100D02*
X3539180D01*
X3462980Y1637900D02*
X3539180D01*
X3462980Y1460100D02*
Y1637900D01*
X3198820D02*
X3275020D01*
X3198820Y1460100D02*
X3275020D01*
Y1637900D01*
X3578820Y3070100D02*
Y3247900D01*
X3655020Y3070100D02*
X3842980D01*
X3919180D02*
Y3247900D01*
X3655020D02*
X3842980D01*
Y3070100D02*
X3919180D01*
X3842980Y3247900D02*
X3919180D01*
X3842980Y3070100D02*
Y3247900D01*
X3578820D02*
X3655020D01*
X3578820Y3070100D02*
X3655020D01*
Y3247900D01*
X3778820Y3320100D02*
Y3497900D01*
X3855020Y3320100D02*
X4042980D01*
X4119180D02*
Y3497900D01*
X3855020D02*
X4042980D01*
Y3320100D02*
X4119180D01*
X4042980Y3497900D02*
X4119180D01*
X4042980Y3320100D02*
Y3497900D01*
X3778820D02*
X3855020D01*
X3778820Y3320100D02*
X3855020D01*
Y3497900D01*
X3198820Y3320100D02*
Y3497900D01*
X3275020Y3320100D02*
X3462980D01*
X3539180D02*
Y3497900D01*
X3275020D02*
X3462980D01*
Y3320100D02*
X3539180D01*
X3462980Y3497900D02*
X3539180D01*
X3462980Y3320100D02*
Y3497900D01*
X3198820D02*
X3275020D01*
X3198820Y3320100D02*
X3275020D01*
Y3497900D01*
X2679180Y3320100D02*
Y3497900D01*
X2415020D02*
X2602980D01*
X2338820Y3320100D02*
Y3497900D01*
X2415020Y3320100D02*
X2602980D01*
X2338820Y3497900D02*
X2415020D01*
X2338820Y3320100D02*
X2415020D01*
Y3497900D01*
X2602980Y3320100D02*
X2679180D01*
X2602980Y3497900D02*
X2679180D01*
X2602980Y3320100D02*
Y3497900D01*
X2669590Y1460100D02*
Y1637900D01*
X2405430D02*
X2593390D01*
X2329230Y1460100D02*
Y1637900D01*
X2405430Y1460100D02*
X2593390D01*
X2329230Y1637900D02*
X2405430D01*
X2329230Y1460100D02*
X2405430D01*
Y1637900D01*
X2593390Y1460100D02*
X2669590D01*
X2593390Y1637900D02*
X2669590D01*
X2593390Y1460100D02*
Y1637900D01*
X1260100Y625180D02*
X1437900D01*
Y548980D02*
Y625180D01*
X1260100Y548980D02*
Y625180D01*
Y813140D02*
X1437900D01*
X1260100D02*
Y889340D01*
X1437900Y813140D02*
Y889340D01*
X1260100Y625180D02*
Y813140D01*
Y889340D02*
X1437900D01*
Y625180D02*
Y813140D01*
X1260100Y548980D02*
X1437900D01*
D48*
X1937649Y2454979D02*
X1853010Y2370340D01*
X1937649D02*
X1853010Y2454979D01*
X1937649Y2412659D02*
X1853010D01*
X1895329Y2370340D02*
Y2454979D01*
D84*
X1603639Y2361880D02*
G03*
X1664599Y2361880I30480J0D01*
G01*
D85*
X1833509Y2280600D02*
Y2331400D01*
X1943999D01*
Y2280600D02*
Y2331400D01*
X1833509Y2280600D02*
X1943999D01*
X1833509Y2153600D02*
Y2204400D01*
X1943999D01*
Y2153600D02*
Y2204400D01*
X1833509Y2153600D02*
X1943999D01*
X1833509Y2026600D02*
Y2077400D01*
X1943999D01*
Y2026600D02*
Y2077400D01*
X1833509Y2026600D02*
X1943999D01*
X1833509Y1899600D02*
Y1950400D01*
X1943999D01*
Y1899600D02*
Y1950400D01*
X1833509Y1899600D02*
X1943999D01*
X1833509Y1772600D02*
Y1823400D01*
X1943999D01*
Y1772600D02*
Y1823400D01*
X1833509Y1772600D02*
X1943999D01*
X1833509Y1645600D02*
Y1696400D01*
X1943999D01*
Y1645600D02*
Y1696400D01*
X1833509Y1645600D02*
X1943999D01*
X1833509Y1518600D02*
Y1569400D01*
X1943999D01*
Y1518600D02*
Y1569400D01*
X1833509Y1518600D02*
X1943999D01*
X1434729D02*
Y1569400D01*
X1324239Y1518600D02*
X1434729D01*
X1324239D02*
Y1569400D01*
X1434729D01*
Y1645600D02*
Y1696400D01*
X1324239Y1645600D02*
X1434729D01*
X1324239D02*
Y1696400D01*
X1434729D01*
Y1772600D02*
Y1823400D01*
X1324239Y1772600D02*
X1434729D01*
X1324239D02*
Y1823400D01*
X1434729D01*
Y1899600D02*
Y1950400D01*
X1324239Y1899600D02*
X1434729D01*
X1324239D02*
Y1950400D01*
X1434729D01*
Y2026600D02*
Y2077400D01*
X1324239Y2026600D02*
X1434729D01*
X1324239D02*
Y2077400D01*
X1434729D01*
Y2153600D02*
Y2204400D01*
X1324239Y2153600D02*
X1434729D01*
X1324239D02*
Y2204400D01*
X1434729D01*
Y2280600D02*
Y2331400D01*
X1324239Y2280600D02*
X1434729D01*
X1324239D02*
Y2331400D01*
X1434729D01*
Y1488120D02*
X1833509D01*
X1434729D02*
Y2361880D01*
X1833509D01*
Y1488120D02*
Y2361880D01*
%TF.MD5,a331d114d3430d2bfb62eeec43392e3e*%
M02*
