%TF.GenerationSoftware,Altium Limited,Altium Designer,23.2.1 (34)*%
G04 Layer_Color=8421504*
%FSLAX45Y45*%
%MOMM*%
%TF.SameCoordinates,3015DBAE-21F6-41EF-B07E-3AD50EAB7A3F*%
%TF.FilePolarity,Positive*%
%TF.FileFunction,Paste,Top*%
%TF.Part,Single*%
G01*
G75*
%TA.AperFunction,SMDPad,CuDef*%
%ADD10R,3.20000X1.60000*%
%ADD11R,2.15000X5.10000*%
%ADD12R,2.95000X1.70000*%
%ADD13R,1.09220X1.24460*%
%ADD14R,1.50000X1.25000*%
%ADD15R,1.24460X1.09220*%
%ADD16R,1.25000X1.50000*%
%TA.AperFunction,Conductor*%
%ADD79C,0.70000*%
D10*
X3034000Y599100D02*
D03*
X2534000D02*
D03*
X3034000Y2453000D02*
D03*
X2534000D02*
D03*
D11*
X4998000Y725000D02*
D03*
Y1585000D02*
D03*
X6098000D02*
D03*
Y725000D02*
D03*
X6100000Y2525000D02*
D03*
Y3385000D02*
D03*
X5000000Y2525000D02*
D03*
Y3385000D02*
D03*
D12*
X1755000Y2022000D02*
D03*
X1325000D02*
D03*
D13*
X1800000Y2284570D02*
D03*
Y2519570D02*
D03*
Y1795070D02*
D03*
Y1560070D02*
D03*
D14*
X2076000Y2522500D02*
D03*
Y2177500D02*
D03*
X2065000Y1570500D02*
D03*
Y1915500D02*
D03*
D15*
X943930Y2277000D02*
D03*
X1178930D02*
D03*
D16*
X588500Y2493000D02*
D03*
X933500D02*
D03*
D79*
X6097130Y725871D02*
X6098000Y725000D01*
%TF.MD5,fa599516d55aa9190db8b77369993128*%
M02*
