%TF.GenerationSoftware,Altium Limited,Altium Designer,23.2.1 (34)*%
G04 Layer_Physical_Order=2*
G04 Layer_Color=16711680*
%FSLAX45Y45*%
%MOMM*%
%TF.SameCoordinates,30BCF74E-8D5C-4CB1-BD29-C8B6E5BAA9CA*%
%TF.FilePolarity,Positive*%
%TF.FileFunction,Copper,L2,Bot,Signal*%
%TF.Part,Single*%
G01*
G75*
%TA.AperFunction,SMDPad,CuDef*%
%ADD13R,1.12000X1.22000*%
%TA.AperFunction,Conductor*%
%ADD15C,0.80000*%
%ADD16C,0.25400*%
%ADD17C,0.50000*%
%TA.AperFunction,ComponentPad*%
%ADD18C,1.51800*%
%ADD19R,1.51800X1.51800*%
%ADD20R,1.01000X1.01000*%
%ADD21C,1.30300*%
%ADD22R,1.01000X1.01000*%
%ADD23C,1.65000*%
%ADD24R,1.65000X1.65000*%
%ADD25C,1.10000*%
%TA.AperFunction,ViaPad*%
%ADD26C,1.27000*%
%TA.AperFunction,SMDPad,CuDef*%
%ADD27R,0.90000X0.65000*%
%ADD28R,0.65000X0.90000*%
%ADD29R,1.80340X1.11760*%
%ADD30R,3.32000X1.24000*%
%ADD31R,2.25000X2.15000*%
%ADD32R,1.05000X1.80000*%
%ADD33R,1.16000X1.82000*%
%ADD34R,1.25000X1.50000*%
%TA.AperFunction,SMDPad,SMDef*%
%ADD35R,1.98120X0.55880*%
%TA.AperFunction,SMDPad,CuDef*%
G04:AMPARAMS|DCode=36|XSize=1.21mm|YSize=0.58mm|CornerRadius=0.0725mm|HoleSize=0mm|Usage=FLASHONLY|Rotation=90.000|XOffset=0mm|YOffset=0mm|HoleType=Round|Shape=RoundedRectangle|*
%AMROUNDEDRECTD36*
21,1,1.21000,0.43500,0,0,90.0*
21,1,1.06500,0.58000,0,0,90.0*
1,1,0.14500,0.21750,0.53250*
1,1,0.14500,0.21750,-0.53250*
1,1,0.14500,-0.21750,-0.53250*
1,1,0.14500,-0.21750,0.53250*
%
%ADD36ROUNDEDRECTD36*%
%ADD37R,1.11760X1.80340*%
%TA.AperFunction,BGAPad,CuDef*%
%ADD38C,1.13000*%
%TA.AperFunction,SMDPad,CuDef*%
%ADD39R,1.13000X1.13000*%
%ADD40R,1.62000X2.36000*%
%ADD41R,1.24000X3.32000*%
%ADD42R,1.80000X1.05000*%
G36*
X7806000Y1979000D02*
X5707543D01*
X5696500Y1983001D01*
X5696499Y1991700D01*
Y2228000D01*
X5625077D01*
Y2489000D01*
X5696500D01*
Y2734000D01*
X5441500D01*
Y2489000D01*
X5512923D01*
Y2228000D01*
X5441500D01*
Y1991700D01*
X5441499Y1983001D01*
X5430457Y1979000D01*
X5267542D01*
X5256500Y1983001D01*
X5256499Y1991700D01*
Y2092800D01*
X5128999D01*
Y2105500D01*
X5116299D01*
Y2228000D01*
X5001500D01*
Y2161578D01*
X4586500D01*
Y2199000D01*
X4555077D01*
Y2254000D01*
X4566500D01*
Y2346300D01*
X4499000D01*
Y2359000D01*
X4486300D01*
Y2464000D01*
X4431500D01*
Y2415077D01*
X4312728D01*
X4245577Y2482228D01*
Y2533500D01*
X4266500D01*
Y2642923D01*
X4679000D01*
X4700460Y2647191D01*
X4718653Y2659347D01*
X5152228Y3092923D01*
X6583500D01*
Y3083500D01*
X6636300D01*
Y3149000D01*
Y3214500D01*
X6583500D01*
Y3205077D01*
X5129000D01*
X5107540Y3200809D01*
X5089347Y3188653D01*
X4655772Y2755077D01*
X4266500D01*
Y2895500D01*
X4202200D01*
Y2714500D01*
X4189500D01*
Y2701800D01*
X4112500D01*
Y2533500D01*
X4133423D01*
Y2482228D01*
X4066272Y2415077D01*
X3955500D01*
Y2465000D01*
X3895200D01*
Y2359000D01*
Y2253000D01*
X3955500D01*
Y2302923D01*
X4089500D01*
X4110960Y2307191D01*
X4129153Y2319347D01*
X4189500Y2379695D01*
X4249847Y2319347D01*
X4268040Y2307191D01*
X4289500Y2302923D01*
X4431500D01*
Y2254000D01*
X4442923D01*
Y2199000D01*
X4431500D01*
Y2121700D01*
X4509001D01*
Y2109000D01*
X4521701D01*
Y2019000D01*
X4586500D01*
Y2049423D01*
X5001500D01*
X5001499Y1983001D01*
X4990457Y1979000D01*
X3159000D01*
Y3190960D01*
X3171700Y3194813D01*
X3179487Y3183158D01*
X3282278Y3080367D01*
X3288785Y3069098D01*
X3302097Y3055786D01*
X3318401Y3046373D01*
X3336586Y3041500D01*
X3355412D01*
X3373597Y3046373D01*
X3389901Y3055786D01*
X3403213Y3069098D01*
X3412626Y3085402D01*
X3412674Y3085580D01*
X3430017Y3102923D01*
X3528260D01*
Y3053830D01*
X3670020D01*
Y3264170D01*
X3528260D01*
Y3215077D01*
X3406788D01*
X3385329Y3210809D01*
X3367136Y3198653D01*
X3352983Y3184500D01*
X3336757D01*
X3275217Y3246039D01*
Y3303830D01*
X3290020D01*
Y3514170D01*
X3277531D01*
X3276176Y3526870D01*
X3312228Y3562923D01*
X3335765D01*
X3337864Y3559287D01*
X3352787Y3544364D01*
X3371063Y3533812D01*
X3391448Y3528350D01*
X3412552D01*
X3432937Y3533812D01*
X3451213Y3544364D01*
X3466136Y3559287D01*
X3476688Y3577563D01*
X3482150Y3597948D01*
Y3609345D01*
X3595728Y3722923D01*
X4735772D01*
X4852923Y3605772D01*
Y3312228D01*
X4783602Y3242907D01*
X4745000D01*
Y3319830D01*
X4553000D01*
Y3053830D01*
X4745000D01*
Y3130753D01*
X4806830D01*
X4828290Y3135021D01*
X4846483Y3147177D01*
X4948653Y3249347D01*
X4960809Y3267540D01*
X4965077Y3289000D01*
Y3629000D01*
X4960809Y3650460D01*
X4948653Y3668653D01*
X4798653Y3818653D01*
X4780460Y3830809D01*
X4759000Y3835077D01*
X3572500D01*
X3551040Y3830809D01*
X3532847Y3818653D01*
X3402845Y3688650D01*
X3391448D01*
X3371063Y3683188D01*
X3357015Y3675077D01*
X3289000D01*
X3267540Y3670809D01*
X3249347Y3658653D01*
X3179487Y3588792D01*
X3171700Y3577138D01*
X3159000Y3580991D01*
Y4097000D01*
X7806000D01*
Y1979000D01*
D02*
G37*
G36*
X3479145Y1907300D02*
X3410495Y1838650D01*
X3391448D01*
X3371063Y1833188D01*
X3352787Y1822636D01*
X3337864Y1807713D01*
X3327312Y1789437D01*
X3321850Y1769052D01*
Y1757655D01*
X3218365Y1654170D01*
X3159000D01*
Y1920000D01*
X3473885D01*
X3479145Y1907300D01*
D02*
G37*
G36*
X7806000Y1000D02*
X3159000D01*
Y1443830D01*
X3178942D01*
Y1415069D01*
X3183211Y1393609D01*
X3195367Y1375416D01*
X3263674Y1307109D01*
X3281867Y1294953D01*
X3287297Y1293873D01*
X3291786Y1286098D01*
X3305098Y1272786D01*
X3321402Y1263373D01*
X3339587Y1258500D01*
X3358413D01*
X3376598Y1263373D01*
X3392902Y1272786D01*
X3394039Y1273923D01*
X3528260D01*
Y1191160D01*
X3670020D01*
Y1401500D01*
X3528260D01*
Y1386078D01*
X3394039D01*
X3392902Y1387215D01*
X3376598Y1396628D01*
X3358413Y1401500D01*
X3339587D01*
X3330365Y1399029D01*
X3291097Y1438297D01*
Y1533120D01*
X3290020Y1538536D01*
Y1567214D01*
X3401156Y1678350D01*
X3412552D01*
X3432937Y1683812D01*
X3451213Y1694364D01*
X3466136Y1709287D01*
X3476688Y1727563D01*
X3482150Y1747948D01*
Y1751694D01*
X3553379Y1822923D01*
X3589113D01*
X3594374Y1810223D01*
X3591864Y1807713D01*
X3581312Y1789437D01*
X3575850Y1769052D01*
Y1757655D01*
X3495087Y1676892D01*
X3482931Y1658700D01*
X3482030Y1654170D01*
X3447980D01*
Y1443830D01*
X3589740D01*
Y1559464D01*
X3590817Y1564880D01*
Y1614012D01*
X3655156Y1678350D01*
X3656845D01*
X3671403Y1663791D01*
X3678119Y1654170D01*
X3678120D01*
X3678120Y1654169D01*
Y1443830D01*
X3819880D01*
Y1654170D01*
X3805077D01*
Y1665500D01*
X3800809Y1686960D01*
X3788653Y1705153D01*
X3736150Y1757655D01*
Y1769052D01*
X3730688Y1789437D01*
X3720136Y1807713D01*
X3717627Y1810223D01*
X3722887Y1822923D01*
X3843113D01*
X3848374Y1810223D01*
X3845864Y1807713D01*
X3835312Y1789437D01*
X3829850Y1769052D01*
Y1747948D01*
X3835312Y1727563D01*
X3845864Y1709287D01*
X3860787Y1694364D01*
X3879063Y1683812D01*
X3899448Y1678350D01*
X3920552D01*
X3940937Y1683812D01*
X3959213Y1694364D01*
X3967272Y1702423D01*
X4022023D01*
X4055285Y1669160D01*
X4040294Y1654170D01*
X3977840D01*
Y1443830D01*
X3992643D01*
Y1381948D01*
X3981473Y1370779D01*
X3969740Y1375639D01*
Y1401500D01*
X3827980D01*
Y1191160D01*
X3969740D01*
Y1240253D01*
X3986330D01*
X4007790Y1244522D01*
X4025983Y1256678D01*
X4088373Y1319067D01*
X4100529Y1337260D01*
X4104797Y1358720D01*
Y1443830D01*
X4119600D01*
Y1574865D01*
X4157818Y1613083D01*
X4553000D01*
Y1536161D01*
X4745000D01*
Y1802160D01*
X4553000D01*
Y1725238D01*
X4157818D01*
X4084904Y1798153D01*
X4066711Y1810309D01*
X4068394Y1822923D01*
X4795772D01*
X4892923Y1725772D01*
Y1472228D01*
X4825772Y1405077D01*
X4745000D01*
Y1457160D01*
X4553000D01*
Y1191160D01*
X4745000D01*
Y1292922D01*
X4849000D01*
X4870460Y1297191D01*
X4888653Y1309347D01*
X4988653Y1409347D01*
X5000809Y1427540D01*
X5005077Y1449000D01*
Y1749000D01*
X5000809Y1770460D01*
X4988653Y1788653D01*
X4870005Y1907300D01*
X4875266Y1920000D01*
X7806000D01*
Y1000D01*
D02*
G37*
G36*
X2949000D02*
X8992D01*
X23Y9992D01*
X10807Y4097000D01*
X2949000Y4097000D01*
Y1000D01*
D02*
G37*
%LPC*%
G36*
X3666552Y3688650D02*
X3645448D01*
X3625063Y3683188D01*
X3606787Y3672636D01*
X3591864Y3657713D01*
X3581312Y3639437D01*
X3575850Y3619052D01*
Y3597948D01*
X3581312Y3577563D01*
X3591864Y3559287D01*
X3601923Y3549228D01*
Y3527228D01*
X3588865Y3514170D01*
X3540155D01*
X3534740Y3515247D01*
X3529324Y3514170D01*
X3447980D01*
Y3303830D01*
X3589740D01*
Y3360719D01*
X3602653Y3369347D01*
X3658000Y3424695D01*
X3722777Y3359918D01*
X3728260Y3356254D01*
Y3303830D01*
X3870020D01*
Y3514170D01*
X3728261D01*
X3728260Y3514170D01*
Y3514171D01*
X3719301Y3522005D01*
X3714077Y3527228D01*
Y3553228D01*
X3720136Y3559287D01*
X3730688Y3577563D01*
X3736150Y3597948D01*
Y3619052D01*
X3730688Y3639437D01*
X3720136Y3657713D01*
X3705213Y3672636D01*
X3686937Y3683188D01*
X3666552Y3688650D01*
D02*
G37*
G36*
X3920552D02*
X3899448D01*
X3879063Y3683188D01*
X3860787Y3672636D01*
X3845864Y3657713D01*
X3835312Y3639437D01*
X3829850Y3619052D01*
Y3597948D01*
X3835312Y3577563D01*
X3845864Y3559287D01*
X3860787Y3544364D01*
X3879063Y3533812D01*
X3899448Y3528350D01*
X3920552D01*
X3940937Y3533812D01*
X3959213Y3544364D01*
X3967272Y3552423D01*
X4036272D01*
X4042923Y3545772D01*
Y3514170D01*
X4027980D01*
Y3303830D01*
X4042783D01*
Y3232088D01*
X4025772Y3215077D01*
X3969740D01*
Y3264170D01*
X3827980D01*
Y3053830D01*
X3969740D01*
Y3102923D01*
X4049000D01*
X4070460Y3107191D01*
X4088653Y3119347D01*
X4138513Y3169207D01*
X4150669Y3187400D01*
X4154937Y3208860D01*
Y3303830D01*
X4169740D01*
Y3352923D01*
X4339000D01*
X4360460Y3357191D01*
X4378653Y3369347D01*
X4485058Y3475753D01*
X4553000D01*
Y3398830D01*
X4745000D01*
Y3664830D01*
X4553000D01*
Y3587907D01*
X4461830D01*
X4440370Y3583639D01*
X4422177Y3571483D01*
X4315772Y3465077D01*
X4169740D01*
Y3514170D01*
X4155077D01*
Y3569000D01*
X4150809Y3590460D01*
X4138653Y3608653D01*
X4099153Y3648153D01*
X4080960Y3660309D01*
X4059500Y3664577D01*
X3967272D01*
X3959213Y3672636D01*
X3940937Y3683188D01*
X3920552Y3688650D01*
D02*
G37*
G36*
X7236299Y3250810D02*
X7236163D01*
X7211365Y3244165D01*
X7189133Y3231329D01*
X7170980Y3213176D01*
X7168792Y3209387D01*
X6714500D01*
Y3214500D01*
X6661700D01*
Y3149000D01*
Y3083500D01*
X6714500D01*
Y3097233D01*
X7168792D01*
X7170980Y3093444D01*
X7189133Y3075291D01*
X7211365Y3062455D01*
X7236163Y3055810D01*
X7236299D01*
Y3153310D01*
Y3250810D01*
D02*
G37*
G36*
X7261835D02*
X7261699D01*
Y3166010D01*
X7346499D01*
Y3166146D01*
X7339854Y3190944D01*
X7327018Y3213176D01*
X7308865Y3231329D01*
X7286633Y3244165D01*
X7261835Y3250810D01*
D02*
G37*
G36*
X7512215Y3223310D02*
X7493783D01*
X7475980Y3218539D01*
X7460018Y3209324D01*
X7446985Y3196291D01*
X7437769Y3180329D01*
X7432999Y3162526D01*
Y3144094D01*
X7437769Y3126291D01*
X7446985Y3110329D01*
X7460018Y3097296D01*
X7475980Y3088080D01*
X7493783Y3083310D01*
X7512215D01*
X7530018Y3088080D01*
X7545980Y3097296D01*
X7559013Y3110329D01*
X7568228Y3126291D01*
X7572999Y3144094D01*
Y3162526D01*
X7568228Y3180329D01*
X7559013Y3196291D01*
X7545980Y3209324D01*
X7530018Y3218539D01*
X7512215Y3223310D01*
D02*
G37*
G36*
X7346499Y3140610D02*
X7261699D01*
Y3055810D01*
X7261835D01*
X7286633Y3062455D01*
X7308865Y3075291D01*
X7327018Y3093444D01*
X7339854Y3115676D01*
X7346499Y3140474D01*
Y3140610D01*
D02*
G37*
G36*
X7512215Y2969310D02*
X7493783D01*
X7475980Y2964539D01*
X7460018Y2955324D01*
X7446985Y2942291D01*
X7437769Y2926329D01*
X7432999Y2908526D01*
Y2890094D01*
X7437769Y2872291D01*
X7446985Y2856329D01*
X7460018Y2843296D01*
X7475980Y2834080D01*
X7493783Y2829310D01*
X7512215D01*
X7530018Y2834080D01*
X7545980Y2843296D01*
X7559013Y2856329D01*
X7568228Y2872291D01*
X7572999Y2890094D01*
Y2908526D01*
X7568228Y2926329D01*
X7559013Y2942291D01*
X7545980Y2955324D01*
X7530018Y2964539D01*
X7512215Y2969310D01*
D02*
G37*
G36*
X7346499Y2996810D02*
X7151499D01*
Y2955387D01*
X6681000D01*
X6659540Y2951119D01*
X6641347Y2938963D01*
X6635195Y2932810D01*
X6583500D01*
Y2923387D01*
X5207310D01*
X5185850Y2919119D01*
X5167657Y2906963D01*
X5089347Y2828653D01*
X5077191Y2810460D01*
X5072923Y2789000D01*
Y2734000D01*
X5001500D01*
Y2667577D01*
X4901500D01*
X4880040Y2663309D01*
X4861847Y2651153D01*
X4759347Y2548653D01*
X4747191Y2530460D01*
X4742922Y2509000D01*
Y2464000D01*
X4731500D01*
Y2254000D01*
X4866500D01*
Y2464000D01*
X4855077D01*
Y2485772D01*
X4924728Y2555423D01*
X5001500D01*
Y2489000D01*
X5256500D01*
Y2734000D01*
X5185077D01*
Y2765772D01*
X5230538Y2811233D01*
X6583500D01*
Y2801810D01*
X6714500D01*
Y2843233D01*
X7151499D01*
Y2801810D01*
X7346499D01*
Y2996810D01*
D02*
G37*
G36*
X4176800Y2895500D02*
X4112500D01*
Y2727200D01*
X4176800D01*
Y2895500D01*
D02*
G37*
G36*
X3869800Y2465000D02*
X3809501D01*
Y2371700D01*
X3869800D01*
Y2465000D01*
D02*
G37*
G36*
X4566500Y2464000D02*
X4511700D01*
Y2371700D01*
X4566500D01*
Y2464000D01*
D02*
G37*
G36*
X3869800Y2346300D02*
X3809501D01*
Y2253000D01*
X3869800D01*
Y2346300D01*
D02*
G37*
G36*
X4241500Y2199000D02*
X4086500D01*
Y2165077D01*
X3970500D01*
Y2199000D01*
X3828500D01*
Y2047000D01*
X3970500D01*
Y2052923D01*
X4086500D01*
Y2019000D01*
X4241500D01*
Y2199000D01*
D02*
G37*
G36*
X5256499Y2228000D02*
X5141699D01*
Y2118200D01*
X5256499D01*
Y2228000D01*
D02*
G37*
G36*
X3355412Y2422500D02*
X3336586D01*
X3318401Y2417627D01*
X3302097Y2408214D01*
X3288785Y2394902D01*
X3279372Y2378598D01*
X3274499Y2360413D01*
Y2341587D01*
X3279372Y2323402D01*
X3288785Y2307098D01*
X3291422Y2304460D01*
Y2212438D01*
X3286184Y2207200D01*
X3275849Y2189300D01*
X3270500Y2169335D01*
Y2148665D01*
X3275849Y2128700D01*
X3286184Y2110800D01*
X3300800Y2096184D01*
X3318700Y2085850D01*
X3338665Y2080500D01*
X3359335D01*
X3379300Y2085850D01*
X3397200Y2096184D01*
X3411816Y2110800D01*
X3422150Y2128700D01*
X3427500Y2148665D01*
Y2169335D01*
X3422150Y2189300D01*
X3411816Y2207200D01*
X3403577Y2215439D01*
Y2307728D01*
X3412626Y2323402D01*
X3417499Y2341587D01*
Y2360413D01*
X3412626Y2378598D01*
X3403213Y2394902D01*
X3389901Y2408214D01*
X3373597Y2417627D01*
X3355412Y2422500D01*
D02*
G37*
G36*
Y2930500D02*
X3336586D01*
X3318401Y2925627D01*
X3302097Y2916214D01*
X3288785Y2902902D01*
X3279372Y2886598D01*
X3274499Y2868413D01*
Y2849587D01*
X3279372Y2831402D01*
X3288785Y2815098D01*
X3302097Y2801786D01*
X3308054Y2798346D01*
X3310952Y2783780D01*
X3323108Y2765587D01*
X3369695Y2719000D01*
X3323757Y2673062D01*
X3318401Y2671627D01*
X3302097Y2662214D01*
X3288785Y2648902D01*
X3279372Y2632598D01*
X3274499Y2614413D01*
Y2595587D01*
X3279372Y2577402D01*
X3288785Y2561098D01*
X3302097Y2547786D01*
X3318401Y2538373D01*
X3336586Y2533500D01*
X3355412D01*
X3373597Y2538373D01*
X3389901Y2547786D01*
X3403213Y2561098D01*
X3412626Y2577402D01*
X3417499Y2595587D01*
Y2608193D01*
X3467728Y2658422D01*
X3514500D01*
Y2533500D01*
X3535423D01*
Y2465000D01*
X3514500D01*
Y2253000D01*
X3533423D01*
Y2199000D01*
X3518500D01*
Y2047000D01*
X3660500D01*
Y2199000D01*
X3645578D01*
Y2253000D01*
X3660500D01*
Y2465000D01*
X3647578D01*
Y2533500D01*
X3668500D01*
Y2895500D01*
X3514500D01*
Y2770577D01*
X3476728D01*
X3413319Y2833986D01*
X3417499Y2849587D01*
Y2868413D01*
X3412626Y2886598D01*
X3403213Y2902902D01*
X3389901Y2916214D01*
X3373597Y2925627D01*
X3355412Y2930500D01*
D02*
G37*
G36*
X4496301Y2096300D02*
X4431500D01*
Y2019000D01*
X4496301D01*
Y2096300D01*
D02*
G37*
G36*
X6330000Y1848999D02*
X5968000D01*
Y1695000D01*
X6330000D01*
Y1705422D01*
X6583500D01*
Y1695000D01*
X6714500D01*
Y1826000D01*
X6583500D01*
Y1817577D01*
X6330000D01*
Y1848999D01*
D02*
G37*
G36*
X7512216Y1119000D02*
X7493784D01*
X7475981Y1114229D01*
X7460019Y1105014D01*
X7446986Y1091981D01*
X7437770Y1076019D01*
X7433000Y1058216D01*
Y1039784D01*
X7437770Y1021981D01*
X7446986Y1006019D01*
X7460019Y992986D01*
X7475981Y983770D01*
X7493784Y979000D01*
X7512216D01*
X7530019Y983770D01*
X7545981Y992986D01*
X7559014Y1006019D01*
X7568229Y1021981D01*
X7573000Y1039784D01*
Y1058216D01*
X7568229Y1076019D01*
X7559014Y1091981D01*
X7545981Y1105014D01*
X7530019Y1114229D01*
X7512216Y1119000D01*
D02*
G37*
G36*
X6330000Y1251000D02*
X5968000D01*
Y1230077D01*
X5334000D01*
X5312540Y1225808D01*
X5294347Y1213652D01*
X5176847Y1096153D01*
X5173738Y1091500D01*
X5001500D01*
Y1025077D01*
X4889000D01*
X4867540Y1020809D01*
X4849347Y1008653D01*
X4759347Y918652D01*
X4747191Y900460D01*
X4742922Y879000D01*
Y706500D01*
X4731500D01*
Y496500D01*
X4866500D01*
Y706500D01*
X4855077D01*
Y855772D01*
X4912228Y912922D01*
X5001500D01*
Y846500D01*
X5256500D01*
Y1017194D01*
X5357228Y1117922D01*
X5968000D01*
Y1097000D01*
X6330000D01*
Y1122923D01*
X6495772D01*
X6583500Y1035195D01*
Y983500D01*
X6714500D01*
Y992923D01*
X7168793D01*
X7170981Y989134D01*
X7189134Y970981D01*
X7211366Y958145D01*
X7236164Y951500D01*
X7261836D01*
X7286634Y958145D01*
X7308866Y970981D01*
X7327019Y989134D01*
X7339855Y1011366D01*
X7346500Y1036164D01*
Y1061836D01*
X7339855Y1086634D01*
X7327019Y1108866D01*
X7308866Y1127019D01*
X7286634Y1139855D01*
X7261836Y1146500D01*
X7236164D01*
X7211366Y1139855D01*
X7189134Y1127019D01*
X7170981Y1108866D01*
X7168793Y1105077D01*
X6714500D01*
Y1114500D01*
X6662805D01*
X6558653Y1218653D01*
X6540460Y1230809D01*
X6519000Y1235077D01*
X6330000D01*
Y1251000D01*
D02*
G37*
G36*
X4266499Y1112500D02*
X4202200D01*
Y944200D01*
X4266499D01*
Y1112500D01*
D02*
G37*
G36*
X4176800D02*
X4112500D01*
Y944200D01*
X4176800D01*
Y1112500D01*
D02*
G37*
G36*
X3358413Y1147500D02*
X3339587D01*
X3321402Y1142628D01*
X3305098Y1133215D01*
X3291786Y1119903D01*
X3282373Y1103598D01*
X3277500Y1085414D01*
Y1066587D01*
X3282373Y1048403D01*
X3291786Y1032098D01*
X3305098Y1018786D01*
X3321402Y1009373D01*
X3331100Y1006774D01*
X3405296Y932579D01*
X3364568Y891851D01*
X3358413Y893500D01*
X3339587D01*
X3321402Y888628D01*
X3305098Y879215D01*
X3291786Y865903D01*
X3282373Y849598D01*
X3277500Y831414D01*
Y812587D01*
X3282373Y794403D01*
X3291786Y778098D01*
X3305098Y764786D01*
X3321402Y755373D01*
X3339587Y750500D01*
X3358413D01*
X3376598Y755373D01*
X3392902Y764786D01*
X3406214Y778098D01*
X3410042Y784729D01*
X3428166Y796838D01*
X3501800Y870472D01*
X3514500Y865212D01*
Y750500D01*
X3535423D01*
Y706500D01*
X3514500D01*
Y494500D01*
X3529423D01*
Y425000D01*
X3514500D01*
Y273000D01*
X3656500D01*
Y425000D01*
X3641578D01*
Y494500D01*
X3660500D01*
Y706500D01*
X3647578D01*
Y750500D01*
X3668500D01*
Y1112500D01*
X3514500D01*
Y999946D01*
X3501800Y994686D01*
X3420500Y1075986D01*
Y1085414D01*
X3415627Y1103598D01*
X3406214Y1119903D01*
X3392902Y1133215D01*
X3376598Y1142628D01*
X3358413Y1147500D01*
D02*
G37*
G36*
X7346500Y892500D02*
X7261700D01*
Y807700D01*
X7346500D01*
Y892500D01*
D02*
G37*
G36*
X7512216Y865000D02*
X7493784D01*
X7475981Y860229D01*
X7460019Y851014D01*
X7446986Y837981D01*
X7437770Y822019D01*
X7433000Y804216D01*
Y785784D01*
X7437770Y767981D01*
X7446986Y752019D01*
X7460019Y738986D01*
X7475981Y729770D01*
X7493784Y725000D01*
X7512216D01*
X7530019Y729770D01*
X7545981Y738986D01*
X7559014Y752019D01*
X7568229Y767981D01*
X7573000Y785784D01*
Y804216D01*
X7568229Y822019D01*
X7559014Y837981D01*
X7545981Y851014D01*
X7530019Y860229D01*
X7512216Y865000D01*
D02*
G37*
G36*
X7346500Y782300D02*
X7261700D01*
Y697500D01*
X7346500D01*
Y782300D01*
D02*
G37*
G36*
X7236300Y892500D02*
X7151500D01*
Y851077D01*
X6695000D01*
X6673540Y846809D01*
X6655347Y834653D01*
X6635195Y814500D01*
X6583500D01*
Y761700D01*
X6649000D01*
Y736300D01*
X6583500D01*
Y683500D01*
X6592923D01*
Y522228D01*
X6415772Y345077D01*
X5372228D01*
X5256500Y460806D01*
Y496300D01*
X5141700D01*
Y386500D01*
X5173738D01*
X5176847Y381847D01*
X5309347Y249347D01*
X5327540Y237191D01*
X5349000Y232923D01*
X6439000D01*
X6460460Y237191D01*
X6478653Y249347D01*
X6688653Y459347D01*
X6700809Y477540D01*
X6705077Y499000D01*
Y683500D01*
X6714500D01*
Y735195D01*
X6718228Y738923D01*
X7151500D01*
Y697500D01*
X7236300D01*
Y795000D01*
Y892500D01*
D02*
G37*
G36*
X4266499Y918800D02*
X4112500D01*
Y750500D01*
X4133422D01*
Y712728D01*
X4077272Y656578D01*
X3955500D01*
Y706500D01*
X3895200D01*
Y600500D01*
Y494500D01*
X3955500D01*
Y544423D01*
X4100500D01*
X4121960Y548692D01*
X4140153Y560847D01*
X4189500Y610194D01*
X4237846Y561847D01*
X4256039Y549692D01*
X4277499Y545423D01*
X4431500D01*
Y496500D01*
X4432923D01*
Y439000D01*
X4411500D01*
Y361700D01*
X4488999D01*
X4566500D01*
Y439000D01*
X4545077D01*
Y496500D01*
X4566500D01*
Y588800D01*
X4499000D01*
Y601500D01*
X4486300D01*
Y706500D01*
X4431500D01*
Y657578D01*
X4300727D01*
X4245577Y712728D01*
Y750500D01*
X4266499D01*
Y918800D01*
D02*
G37*
G36*
X4566500Y706500D02*
X4511700D01*
Y614200D01*
X4566500D01*
Y706500D01*
D02*
G37*
G36*
X3869800D02*
X3809501D01*
Y613200D01*
X3869800D01*
Y706500D01*
D02*
G37*
G36*
X5256500Y631500D02*
X5141700D01*
Y521700D01*
X5256500D01*
Y631500D01*
D02*
G37*
G36*
X5116300D02*
X5001500D01*
Y521700D01*
X5116300D01*
Y631500D01*
D02*
G37*
G36*
X3869800Y587800D02*
X3809501D01*
Y494500D01*
X3869800D01*
Y587800D01*
D02*
G37*
G36*
X4221500Y439000D02*
X4066500D01*
Y405077D01*
X3966500D01*
Y425000D01*
X3824500D01*
Y273000D01*
X3966500D01*
Y292923D01*
X4066500D01*
Y259000D01*
X4221500D01*
Y439000D01*
D02*
G37*
G36*
X5696500Y1091500D02*
X5441500D01*
Y846500D01*
X5512923D01*
Y631500D01*
X5441500D01*
Y386500D01*
X5696500D01*
Y631500D01*
X5625077D01*
Y846500D01*
X5696500D01*
Y1091500D01*
D02*
G37*
G36*
X5116300Y496300D02*
X5001500D01*
Y386500D01*
X5116300D01*
Y496300D01*
D02*
G37*
G36*
X3358413Y639500D02*
X3339587D01*
X3321402Y634628D01*
X3305098Y625215D01*
X3291786Y611903D01*
X3282373Y595598D01*
X3277500Y577414D01*
Y558587D01*
X3282373Y540403D01*
X3291786Y524098D01*
X3295907Y519977D01*
Y473790D01*
X3300176Y452330D01*
X3312331Y434137D01*
X3329634Y416834D01*
X3329500Y416335D01*
Y395665D01*
X3334850Y375700D01*
X3345184Y357800D01*
X3359800Y343184D01*
X3377700Y332849D01*
X3397665Y327500D01*
X3418335D01*
X3438300Y332849D01*
X3456200Y343184D01*
X3470816Y357800D01*
X3481151Y375700D01*
X3486500Y395665D01*
Y416335D01*
X3481151Y436300D01*
X3470816Y454200D01*
X3456200Y468816D01*
X3438300Y479150D01*
X3421401Y483678D01*
X3408062Y497018D01*
Y527298D01*
X3415627Y540403D01*
X3420500Y558587D01*
Y577414D01*
X3415627Y595598D01*
X3406214Y611903D01*
X3392902Y625215D01*
X3376598Y634628D01*
X3358413Y639500D01*
D02*
G37*
G36*
X4566500Y336300D02*
X4501699D01*
Y259000D01*
X4566500D01*
Y336300D01*
D02*
G37*
G36*
X4476299D02*
X4411500D01*
Y259000D01*
X4476299D01*
Y336300D01*
D02*
G37*
G36*
X1922967Y3639900D02*
X1899033D01*
X1875914Y3633705D01*
X1855186Y3621738D01*
X1838262Y3604814D01*
X1826295Y3584086D01*
X1820100Y3560967D01*
Y3537033D01*
X1826295Y3513914D01*
X1838262Y3493186D01*
X1855186Y3476262D01*
X1875914Y3464295D01*
X1899033Y3458100D01*
X1922967D01*
X1946086Y3464295D01*
X1966814Y3476262D01*
X1983738Y3493186D01*
X1995705Y3513914D01*
X2001900Y3537033D01*
Y3560967D01*
X1995705Y3584086D01*
X1983738Y3604814D01*
X1966814Y3621738D01*
X1946086Y3633705D01*
X1922967Y3639900D01*
D02*
G37*
G36*
X1239900D02*
X1058100D01*
Y3458100D01*
X1239900D01*
Y3639900D01*
D02*
G37*
G36*
X2640000Y3636743D02*
X2629192Y3634593D01*
X2620029Y3628471D01*
X2613907Y3619308D01*
X2611757Y3608500D01*
Y3514170D01*
X2587980D01*
Y3421700D01*
X2658861D01*
X2729740D01*
Y3514170D01*
X2668243D01*
Y3608500D01*
X2666093Y3619308D01*
X2659971Y3628471D01*
X2650808Y3634593D01*
X2640000Y3636743D01*
D02*
G37*
G36*
X1454170Y3369740D02*
X1361700D01*
Y3311560D01*
X1454170D01*
Y3369740D01*
D02*
G37*
G36*
X2396552Y3688650D02*
X2375448D01*
X2355063Y3683188D01*
X2336787Y3672636D01*
X2321864Y3657713D01*
X2311312Y3639437D01*
X2305850Y3619052D01*
Y3597948D01*
X2311312Y3577563D01*
X2321864Y3559287D01*
X2336787Y3544364D01*
X2355063Y3533812D01*
X2357757Y3533090D01*
Y3514170D01*
X2288260D01*
Y3303830D01*
X2430020D01*
Y3514170D01*
X2414243D01*
Y3533090D01*
X2416937Y3533812D01*
X2435213Y3544364D01*
X2450136Y3559287D01*
X2460688Y3577563D01*
X2466150Y3597948D01*
Y3619052D01*
X2460688Y3639437D01*
X2450136Y3657713D01*
X2435213Y3672636D01*
X2416937Y3683188D01*
X2396552Y3688650D01*
D02*
G37*
G36*
X1454170Y3286160D02*
X1361700D01*
Y3227980D01*
X1454170D01*
Y3286160D01*
D02*
G37*
G36*
X1336300Y3369740D02*
X1243830D01*
Y3323243D01*
X865000D01*
X854192Y3321093D01*
X845029Y3314971D01*
X845029Y3314970D01*
X729029Y3198971D01*
X722907Y3189808D01*
X720757Y3179000D01*
X720757Y3178999D01*
Y1760699D01*
X683301Y1723243D01*
X642372D01*
X639855Y1732634D01*
X627019Y1754866D01*
X608866Y1773019D01*
X586634Y1785855D01*
X561836Y1792500D01*
X561700D01*
Y1695000D01*
X549000D01*
Y1682300D01*
X451500D01*
Y1682164D01*
X458145Y1657366D01*
X470981Y1635134D01*
X489134Y1616981D01*
X511366Y1604145D01*
X520757Y1601628D01*
Y459001D01*
X520757Y459000D01*
X522907Y448192D01*
X529029Y439029D01*
X760029Y208029D01*
X769192Y201907D01*
X780000Y199757D01*
X1379345D01*
X1379346Y199757D01*
X1390154Y201907D01*
X1399317Y208029D01*
X1713526Y522239D01*
X2473100D01*
Y486100D01*
X2542300D01*
Y568000D01*
Y649900D01*
X2473100D01*
Y578725D01*
X1713527D01*
X1454170Y838082D01*
Y856320D01*
X1361700D01*
Y798140D01*
X1414228D01*
X1661886Y550482D01*
X1367647Y256243D01*
X1209396D01*
X1205728Y265865D01*
X1205495Y268943D01*
X1221738Y285186D01*
X1233705Y305914D01*
X1239900Y329033D01*
Y352967D01*
X1233705Y376086D01*
X1221738Y396814D01*
X1204814Y413738D01*
X1184086Y425705D01*
X1160967Y431900D01*
X1137033D01*
X1113914Y425705D01*
X1093186Y413738D01*
X1076262Y396814D01*
X1064295Y376086D01*
X1058100Y352967D01*
Y329033D01*
X1064295Y305914D01*
X1076262Y285186D01*
X1092505Y268943D01*
X1092272Y265865D01*
X1088604Y256243D01*
X791699D01*
X577243Y470699D01*
Y1601628D01*
X586634Y1604145D01*
X608866Y1616981D01*
X627019Y1635134D01*
X639855Y1657366D01*
X642372Y1666757D01*
X694999D01*
X695000Y1666757D01*
X705808Y1668907D01*
X714971Y1675029D01*
X768970Y1729029D01*
X768971Y1729029D01*
X775093Y1738192D01*
X777243Y1749000D01*
Y3167301D01*
X876699Y3266757D01*
X1243830D01*
Y3227980D01*
X1336300D01*
Y3298860D01*
Y3369740D01*
D02*
G37*
G36*
X2729740Y3396300D02*
X2658861D01*
X2587980D01*
Y3303830D01*
X2630617D01*
Y3231560D01*
X2586632Y3187574D01*
X2583611Y3189318D01*
X2564699Y3194386D01*
Y3125700D01*
X2633385D01*
X2628318Y3144612D01*
X2626573Y3147633D01*
X2678831Y3199890D01*
X2684953Y3209053D01*
X2687103Y3219861D01*
X2687103Y3219862D01*
Y3303830D01*
X2729740D01*
Y3396300D01*
D02*
G37*
G36*
X2539299Y3194386D02*
X2520387Y3189318D01*
X2501711Y3178536D01*
X2486463Y3163288D01*
X2475680Y3144612D01*
X2470613Y3125700D01*
X2539299D01*
Y3194386D01*
D02*
G37*
G36*
X1160967Y3131900D02*
X1137033D01*
X1113914Y3125705D01*
X1093186Y3113738D01*
X1076262Y3096814D01*
X1064295Y3076086D01*
X1062461Y3069243D01*
X1027001D01*
X1027000Y3069243D01*
X1016192Y3067093D01*
X1007029Y3060971D01*
X827029Y2880971D01*
X820907Y2871808D01*
X818757Y2861000D01*
X818757Y2860999D01*
Y2414001D01*
X818757Y2414000D01*
X820907Y2403192D01*
X827029Y2394029D01*
X935029Y2286030D01*
X935029Y2286029D01*
X944192Y2279907D01*
X955000Y2277757D01*
X1226789D01*
X1228935Y2275182D01*
X1229029Y2259971D01*
X1134529Y2165471D01*
X1128407Y2156308D01*
X1126257Y2145500D01*
X1126257Y2145499D01*
Y1978000D01*
X1094500D01*
Y1883000D01*
X1214500D01*
X1220757Y1872892D01*
Y1843108D01*
X1214500Y1833000D01*
X1208057Y1833000D01*
X1094500D01*
Y1738000D01*
X1120757D01*
Y1604500D01*
X1083500D01*
Y1473500D01*
X1120757D01*
Y1193900D01*
X1058100D01*
Y1012100D01*
X1239900D01*
Y1193900D01*
X1177243D01*
Y1464520D01*
X1186223Y1473500D01*
X1212343Y1473500D01*
X1218938Y1470186D01*
X1224200Y1466257D01*
X1229029Y1459029D01*
X1337029Y1351029D01*
X1346192Y1344907D01*
X1357000Y1342757D01*
X1357001Y1342757D01*
X1409564D01*
Y1317750D01*
X1411291Y1309069D01*
X1416208Y1301709D01*
X1423568Y1296791D01*
X1432250Y1295064D01*
X1450542D01*
X1456909Y1282364D01*
X1453085Y1277243D01*
X1363879D01*
X1353071Y1275093D01*
X1343908Y1268971D01*
X1343908Y1268970D01*
X1329029Y1254092D01*
X1322907Y1244929D01*
X1320757Y1234121D01*
X1320757Y1234120D01*
Y939900D01*
X1243830D01*
Y891950D01*
X1231130Y888547D01*
X1221738Y904814D01*
X1204814Y921738D01*
X1184086Y933705D01*
X1161700Y939704D01*
Y849000D01*
Y758296D01*
X1184086Y764295D01*
X1204814Y776262D01*
X1221738Y793186D01*
X1231130Y809453D01*
X1243830Y806050D01*
Y798140D01*
X1336300D01*
Y869020D01*
X1349000D01*
Y881720D01*
X1454170D01*
Y939900D01*
X1377243D01*
Y1220757D01*
X1471133D01*
X1471134Y1220757D01*
X1481942Y1222907D01*
X1491105Y1229029D01*
X1544524Y1282448D01*
X1545329Y1282369D01*
X1598668Y1229030D01*
X1598669Y1229029D01*
X1607832Y1222907D01*
X1618640Y1220757D01*
X1748999D01*
X1749000Y1220757D01*
X1759808Y1222907D01*
X1768971Y1229029D01*
X1777364Y1219806D01*
X1737301Y1179743D01*
X1687144D01*
X1686709Y1181932D01*
X1681791Y1189292D01*
X1674432Y1194209D01*
X1665750Y1195936D01*
X1622250D01*
X1613569Y1194209D01*
X1606209Y1189292D01*
X1603556Y1185321D01*
X1601306Y1184678D01*
X1591694D01*
X1589444Y1185321D01*
X1586791Y1189292D01*
X1579431Y1194209D01*
X1570750Y1195936D01*
X1527250D01*
X1518568Y1194209D01*
X1511209Y1189292D01*
X1508556Y1185321D01*
X1506306Y1184678D01*
X1496693D01*
X1494444Y1185321D01*
X1491791Y1189292D01*
X1484431Y1194209D01*
X1475750Y1195936D01*
X1432250D01*
X1423568Y1194209D01*
X1416208Y1189292D01*
X1411291Y1181932D01*
X1409564Y1173250D01*
Y1066750D01*
X1411291Y1058069D01*
X1416208Y1050709D01*
X1423568Y1045791D01*
X1432250Y1044064D01*
X1475750D01*
X1484431Y1045791D01*
X1491791Y1050709D01*
X1494444Y1054679D01*
X1496693Y1055323D01*
X1506306D01*
X1508556Y1054679D01*
X1511209Y1050709D01*
X1518568Y1045791D01*
X1527250Y1044064D01*
X1542343D01*
X1545329Y1039595D01*
X1832500Y752424D01*
Y738665D01*
X1837850Y718700D01*
X1848184Y700800D01*
X1862800Y686184D01*
X1880700Y675850D01*
X1900665Y670500D01*
X1921335D01*
X1941300Y675850D01*
X1959200Y686184D01*
X1973816Y700800D01*
X1984150Y718700D01*
X1989500Y738665D01*
Y759335D01*
X1984150Y779300D01*
X1973816Y797200D01*
X1959200Y811816D01*
X1941300Y822151D01*
X1921335Y827500D01*
X1900665D01*
X1880700Y822151D01*
X1862800Y811816D01*
X1857896Y806912D01*
X1633443Y1031364D01*
X1638704Y1044064D01*
X1665750D01*
X1674432Y1045791D01*
X1681791Y1050709D01*
X1686709Y1058069D01*
X1688436Y1066750D01*
Y1123258D01*
X1748999D01*
X1749000Y1123257D01*
X1759808Y1125407D01*
X1768971Y1131530D01*
X1858198Y1220757D01*
X1937301D01*
X1968806Y1189253D01*
X1961008Y1179090D01*
X1946086Y1187705D01*
X1922967Y1193900D01*
X1899033D01*
X1875914Y1187705D01*
X1855186Y1175738D01*
X1838262Y1158814D01*
X1826295Y1138086D01*
X1820100Y1114967D01*
Y1091033D01*
X1826295Y1067914D01*
X1838262Y1047186D01*
X1855186Y1030262D01*
X1875914Y1018295D01*
X1899033Y1012100D01*
X1922967D01*
X1946086Y1018295D01*
X1966814Y1030262D01*
X1983738Y1047186D01*
X1995705Y1067914D01*
X2001900Y1091033D01*
Y1114967D01*
X1995705Y1138086D01*
X1987090Y1153008D01*
X1997253Y1160806D01*
X2029029Y1129030D01*
X2029029Y1129029D01*
X2038192Y1122907D01*
X2049000Y1120757D01*
X2144000D01*
Y1050500D01*
X2354000D01*
Y1185500D01*
X2144000D01*
Y1177243D01*
X2060698D01*
X1968971Y1268971D01*
X1959808Y1275093D01*
X1949000Y1277243D01*
X1948999Y1277243D01*
X1846501D01*
X1846500Y1277243D01*
X1835692Y1275093D01*
X1826529Y1268971D01*
X1826528Y1268971D01*
X1818135Y1278193D01*
X1900469Y1360528D01*
X1900470Y1360528D01*
X1906592Y1369691D01*
X1908742Y1380499D01*
Y1501060D01*
X1994559D01*
Y1531300D01*
X1880498D01*
X1766439D01*
Y1501060D01*
X1852256D01*
Y1392197D01*
X1737301Y1277243D01*
X1636689D01*
X1632865Y1282364D01*
X1639232Y1295064D01*
X1665750D01*
X1674432Y1296791D01*
X1681791Y1301709D01*
X1686709Y1309069D01*
X1688436Y1317750D01*
Y1424250D01*
X1686709Y1432932D01*
X1681791Y1440292D01*
X1674432Y1445209D01*
X1672243Y1445644D01*
Y1612859D01*
X1670093Y1623667D01*
X1663971Y1632830D01*
X1501799Y1795001D01*
Y1840940D01*
X1277243D01*
Y1882060D01*
X1501799D01*
Y1896757D01*
X1766439D01*
Y1882060D01*
X1994559D01*
Y1896757D01*
X2054999D01*
X2055000Y1896757D01*
X2065808Y1898907D01*
X2074971Y1905029D01*
X2198970Y2029029D01*
X2198971Y2029029D01*
X2205093Y2038192D01*
X2207243Y2049000D01*
X2207243Y2049001D01*
Y2308999D01*
X2207243Y2309000D01*
X2205093Y2319808D01*
X2198971Y2328971D01*
X1878971Y2648971D01*
X1869808Y2655093D01*
X1859000Y2657243D01*
X1858999Y2657243D01*
X1533779D01*
X1528519Y2669943D01*
X1552670Y2694094D01*
X1552671Y2694095D01*
X1555657Y2698564D01*
X1570749D01*
X1579430Y2700291D01*
X1586790Y2705208D01*
X1589443Y2709179D01*
X1591693Y2709822D01*
X1601305D01*
X1603555Y2709179D01*
X1606208Y2705208D01*
X1613568Y2700291D01*
X1622249Y2698564D01*
X1665749D01*
X1674430Y2700291D01*
X1681790Y2705208D01*
X1686708Y2712568D01*
X1688435Y2721250D01*
Y2827750D01*
X1686708Y2836431D01*
X1681790Y2843791D01*
X1674430Y2848709D01*
X1665749Y2850436D01*
X1622249D01*
X1613568Y2848709D01*
X1606208Y2843791D01*
X1603555Y2839821D01*
X1601305Y2839177D01*
X1591693D01*
X1589443Y2839821D01*
X1586790Y2843791D01*
X1579430Y2848709D01*
X1570749Y2850436D01*
X1527249D01*
X1518567Y2848709D01*
X1511208Y2843791D01*
X1508555Y2839821D01*
X1506305Y2839177D01*
X1496692D01*
X1494443Y2839821D01*
X1491791Y2843791D01*
X1491068Y2851126D01*
X1520698Y2880757D01*
X1866192D01*
X1869595Y2868057D01*
X1855186Y2859738D01*
X1838262Y2842814D01*
X1826295Y2822086D01*
X1820100Y2798967D01*
Y2775033D01*
X1826295Y2751914D01*
X1838262Y2731186D01*
X1855186Y2714262D01*
X1875914Y2702295D01*
X1899033Y2696100D01*
X1922967D01*
X1946086Y2702295D01*
X1966814Y2714262D01*
X1983738Y2731186D01*
X1995705Y2751914D01*
X2001900Y2775033D01*
Y2798967D01*
X1995705Y2822086D01*
X1983738Y2842814D01*
X1966814Y2859738D01*
X1952405Y2868057D01*
X1955808Y2880757D01*
X2144000D01*
Y2841500D01*
X2354000D01*
Y2976500D01*
X2144000D01*
Y2937243D01*
X1509000D01*
X1498192Y2935093D01*
X1489029Y2928971D01*
X1489029Y2928970D01*
X1438250Y2878192D01*
X1432128Y2869029D01*
X1429978Y2858221D01*
X1423567Y2848709D01*
X1416207Y2843791D01*
X1411290Y2836431D01*
X1409563Y2827750D01*
Y2721250D01*
X1410473Y2716676D01*
X1404264Y2706235D01*
X1401757Y2703975D01*
X1387431D01*
X1377243Y2714164D01*
Y2928260D01*
X1454170D01*
Y3070020D01*
X1243830D01*
X1233669Y3076149D01*
X1221738Y3096814D01*
X1204814Y3113738D01*
X1184086Y3125705D01*
X1160967Y3131900D01*
D02*
G37*
G36*
X2633385Y3100300D02*
X2470613D01*
X2475680Y3081388D01*
X2486463Y3062712D01*
X2501711Y3047464D01*
X2520387Y3036681D01*
X2523756Y3035779D01*
Y2936221D01*
X2520387Y2935318D01*
X2501711Y2924536D01*
X2486463Y2909288D01*
X2475680Y2890612D01*
X2470613Y2871700D01*
X2633385D01*
X2628318Y2890612D01*
X2617535Y2909288D01*
X2602287Y2924536D01*
X2583611Y2935318D01*
X2580242Y2936221D01*
Y3035779D01*
X2583611Y3036681D01*
X2602287Y3047464D01*
X2617535Y3062712D01*
X2628318Y3081388D01*
X2633385Y3100300D01*
D02*
G37*
G36*
Y2846300D02*
X2564699D01*
Y2777614D01*
X2583611Y2782681D01*
X2602287Y2793464D01*
X2617535Y2808712D01*
X2628318Y2827388D01*
X2633385Y2846300D01*
D02*
G37*
G36*
X2539299D02*
X2470613D01*
X2475680Y2827388D01*
X2486463Y2808712D01*
X2501711Y2793464D01*
X2520387Y2782681D01*
X2539299Y2777614D01*
Y2846300D01*
D02*
G37*
G36*
X2561412Y2676500D02*
X2542586D01*
X2524401Y2671627D01*
X2508097Y2662214D01*
X2494785Y2648902D01*
X2485744Y2633243D01*
X2354000D01*
Y2676500D01*
X2144000D01*
Y2541500D01*
X2354000D01*
Y2576757D01*
X2485744D01*
X2494785Y2561098D01*
X2508097Y2547786D01*
X2524401Y2538373D01*
X2542586Y2533500D01*
X2561412D01*
X2579597Y2538373D01*
X2595901Y2547786D01*
X2609213Y2561098D01*
X2618626Y2577402D01*
X2623499Y2595587D01*
Y2614413D01*
X2618626Y2632598D01*
X2609213Y2648902D01*
X2595901Y2662214D01*
X2579597Y2671627D01*
X2561412Y2676500D01*
D02*
G37*
G36*
X2633899Y2432900D02*
X2564699D01*
Y2363700D01*
X2633899D01*
Y2432900D01*
D02*
G37*
G36*
X2539299D02*
X2470099D01*
Y2363700D01*
X2539299D01*
Y2432900D01*
D02*
G37*
G36*
X304216Y2019000D02*
X285784D01*
X267981Y2014229D01*
X252019Y2005014D01*
X238986Y1991981D01*
X229770Y1976019D01*
X225000Y1958216D01*
Y1939784D01*
X229770Y1921981D01*
X238986Y1906019D01*
X252019Y1892986D01*
X267981Y1883770D01*
X285784Y1879000D01*
X304216D01*
X322019Y1883770D01*
X337981Y1892986D01*
X351014Y1906019D01*
X360229Y1921981D01*
X365000Y1939784D01*
Y1958216D01*
X360229Y1976019D01*
X351014Y1991981D01*
X337981Y2005014D01*
X322019Y2014229D01*
X304216Y2019000D01*
D02*
G37*
G36*
X646500Y2046500D02*
X451500D01*
Y1851500D01*
X646500D01*
Y2046500D01*
D02*
G37*
G36*
X1994559Y1840940D02*
X1893198D01*
Y1810700D01*
X1994559D01*
Y1840940D01*
D02*
G37*
G36*
X1867798D02*
X1766439D01*
Y1810700D01*
X1867798D01*
Y1840940D01*
D02*
G37*
G36*
X1994559Y1785300D02*
X1893198D01*
Y1755060D01*
X1994559D01*
Y1785300D01*
D02*
G37*
G36*
X536300Y1792500D02*
X536164D01*
X511366Y1785855D01*
X489134Y1773019D01*
X470981Y1754866D01*
X458145Y1732634D01*
X451500Y1707836D01*
Y1707700D01*
X536300D01*
Y1792500D01*
D02*
G37*
G36*
X304216Y1765000D02*
X285784D01*
X267981Y1760229D01*
X252019Y1751014D01*
X238986Y1737981D01*
X229770Y1722019D01*
X225000Y1704216D01*
Y1685784D01*
X229770Y1667981D01*
X238986Y1652019D01*
X252019Y1638986D01*
X267981Y1629770D01*
X285784Y1625000D01*
X304216D01*
X322019Y1629770D01*
X337981Y1638986D01*
X351014Y1652019D01*
X360229Y1667981D01*
X365000Y1685784D01*
Y1704216D01*
X360229Y1722019D01*
X351014Y1737981D01*
X337981Y1751014D01*
X322019Y1760229D01*
X304216Y1765000D01*
D02*
G37*
G36*
X2633899Y2338300D02*
X2470099D01*
Y2269100D01*
X2523756D01*
Y2256002D01*
X2523756Y2256001D01*
X2525906Y2245193D01*
X2532028Y2236030D01*
X2611757Y2156301D01*
Y1758500D01*
Y1654170D01*
X2578390D01*
Y1561700D01*
X2649270D01*
X2720150D01*
Y1654170D01*
X2668243D01*
Y1758500D01*
Y2167999D01*
X2668243Y2168000D01*
X2666093Y2178808D01*
X2659971Y2187971D01*
X2591542Y2256400D01*
X2596802Y2269100D01*
X2633899D01*
Y2338300D01*
D02*
G37*
G36*
X1994559Y1586940D02*
X1893198D01*
Y1556700D01*
X1994559D01*
Y1586940D01*
D02*
G37*
G36*
X1867798Y1785300D02*
X1756737D01*
X1719029Y1747592D01*
X1712907Y1738429D01*
X1710757Y1727621D01*
X1710757Y1727620D01*
Y1614380D01*
X1710757Y1614379D01*
X1712907Y1603571D01*
X1719029Y1594408D01*
X1756737Y1556700D01*
X1867798D01*
Y1586940D01*
X1806380D01*
X1777960Y1615360D01*
X1783221Y1628060D01*
X1994559D01*
Y1713940D01*
X1783221D01*
X1777960Y1726640D01*
X1806380Y1755060D01*
X1867798D01*
Y1785300D01*
D02*
G37*
G36*
X2396552Y1838650D02*
X2375448D01*
X2355063Y1833188D01*
X2336787Y1822636D01*
X2321864Y1807713D01*
X2311312Y1789437D01*
X2305850Y1769052D01*
Y1747948D01*
X2311312Y1727563D01*
X2321864Y1709287D01*
X2336787Y1694364D01*
X2355063Y1683812D01*
X2357757Y1683090D01*
Y1654170D01*
X2278670D01*
Y1443830D01*
X2420430D01*
Y1654170D01*
X2414243D01*
Y1683090D01*
X2416937Y1683812D01*
X2435213Y1694364D01*
X2450136Y1709287D01*
X2460688Y1727563D01*
X2466150Y1747948D01*
Y1769052D01*
X2460688Y1789437D01*
X2450136Y1807713D01*
X2435213Y1822636D01*
X2416937Y1833188D01*
X2396552Y1838650D01*
D02*
G37*
G36*
X2720150Y1536300D02*
X2649270D01*
X2578390D01*
Y1443830D01*
X2610927D01*
X2616188Y1431130D01*
X2589633Y1404575D01*
X2586612Y1406319D01*
X2567700Y1411387D01*
Y1342700D01*
X2636386D01*
X2631319Y1361612D01*
X2629574Y1364633D01*
X2669241Y1404300D01*
X2675363Y1413462D01*
X2677513Y1424270D01*
X2677513Y1424272D01*
Y1443830D01*
X2720150D01*
Y1536300D01*
D02*
G37*
G36*
X2542300Y1411387D02*
X2523388Y1406319D01*
X2504712Y1395537D01*
X2489464Y1380288D01*
X2478681Y1361612D01*
X2473614Y1342700D01*
X2542300D01*
Y1411387D01*
D02*
G37*
G36*
X2636386Y1317300D02*
X2473614D01*
X2478681Y1298388D01*
X2489464Y1279713D01*
X2504712Y1264464D01*
X2523388Y1253682D01*
X2526757Y1252779D01*
Y1153222D01*
X2523388Y1152319D01*
X2504712Y1141537D01*
X2489464Y1126288D01*
X2478681Y1107612D01*
X2473614Y1088700D01*
X2636386D01*
X2631319Y1107612D01*
X2620536Y1126288D01*
X2605288Y1141537D01*
X2586612Y1152319D01*
X2583243Y1153222D01*
Y1252779D01*
X2586612Y1253682D01*
X2605288Y1264464D01*
X2620536Y1279713D01*
X2631319Y1298388D01*
X2636386Y1317300D01*
D02*
G37*
G36*
Y1063300D02*
X2567700D01*
Y994614D01*
X2586612Y999682D01*
X2605288Y1010464D01*
X2620536Y1025713D01*
X2631319Y1044388D01*
X2636386Y1063300D01*
D02*
G37*
G36*
X2542300D02*
X2473614D01*
X2478681Y1044388D01*
X2489464Y1025713D01*
X2504712Y1010464D01*
X2523388Y999682D01*
X2542300Y994614D01*
Y1063300D01*
D02*
G37*
G36*
X1136300Y939704D02*
X1113914Y933705D01*
X1093186Y921738D01*
X1076262Y904814D01*
X1064295Y884086D01*
X1058296Y861700D01*
X1136300D01*
Y939704D01*
D02*
G37*
G36*
X2564413Y893500D02*
X2545587D01*
X2527402Y888628D01*
X2511098Y879215D01*
X2497786Y865903D01*
X2488745Y850243D01*
X2354000D01*
Y885500D01*
X2144000D01*
Y750500D01*
X2354000D01*
Y793758D01*
X2488745D01*
X2497786Y778098D01*
X2511098Y764786D01*
X2527402Y755373D01*
X2545587Y750500D01*
X2564413D01*
X2582598Y755373D01*
X2598902Y764786D01*
X2612214Y778098D01*
X2621627Y794403D01*
X2626500Y812587D01*
Y831414D01*
X2621627Y849598D01*
X2612214Y865903D01*
X2598902Y879215D01*
X2582598Y888628D01*
X2564413Y893500D01*
D02*
G37*
G36*
X1136300Y836300D02*
X1058296D01*
X1064295Y813914D01*
X1076262Y793186D01*
X1093186Y776262D01*
X1113914Y764295D01*
X1136300Y758296D01*
Y836300D01*
D02*
G37*
G36*
X2636900Y649900D02*
X2567700D01*
Y580700D01*
X2636900D01*
Y649900D01*
D02*
G37*
G36*
X1160967Y685900D02*
X1137033D01*
X1113914Y679705D01*
X1093186Y667738D01*
X1076262Y650814D01*
X1064295Y630086D01*
X1058100Y606967D01*
Y583033D01*
X1064295Y559914D01*
X1076262Y539186D01*
X1093186Y522262D01*
X1113914Y510295D01*
X1137033Y504100D01*
X1160967D01*
X1184086Y510295D01*
X1204814Y522262D01*
X1221738Y539186D01*
X1231130Y555453D01*
X1243830Y552050D01*
Y498420D01*
X1454170D01*
Y640180D01*
X1243830D01*
Y637950D01*
X1231130Y634547D01*
X1221738Y650814D01*
X1204814Y667738D01*
X1184086Y679705D01*
X1160967Y685900D01*
D02*
G37*
G36*
X2636900Y555300D02*
X2567700D01*
Y486100D01*
X2636900D01*
Y555300D01*
D02*
G37*
G36*
X1922967Y431900D02*
X1899033D01*
X1875914Y425705D01*
X1855186Y413738D01*
X1838262Y396814D01*
X1826295Y376086D01*
X1820100Y352967D01*
Y329033D01*
X1826295Y305914D01*
X1838262Y285186D01*
X1855186Y268262D01*
X1875914Y256295D01*
X1899033Y250100D01*
X1922967D01*
X1946086Y256295D01*
X1966814Y268262D01*
X1983738Y285186D01*
X1995705Y305914D01*
X2001900Y329033D01*
Y352967D01*
X1995705Y376086D01*
X1983738Y396814D01*
X1966814Y413738D01*
X1946086Y425705D01*
X1922967Y431900D01*
D02*
G37*
%LPD*%
G36*
X1364924Y2649640D02*
X1375732Y2647490D01*
X1475731D01*
X1475732Y2647489D01*
X1476575Y2647657D01*
X1488754D01*
X1494014Y2634957D01*
X1458493Y2599436D01*
X1432249D01*
X1423567Y2597709D01*
X1416207Y2592792D01*
X1411290Y2585432D01*
X1409563Y2576750D01*
Y2470250D01*
X1411290Y2461569D01*
X1416207Y2454209D01*
X1423567Y2449291D01*
X1432249Y2447564D01*
X1475749D01*
X1484430Y2449291D01*
X1491790Y2454209D01*
X1496708Y2461569D01*
X1498435Y2470250D01*
Y2559494D01*
X1539697Y2600757D01*
X1597010D01*
X1603044Y2588057D01*
X1601290Y2585432D01*
X1599563Y2576750D01*
Y2470250D01*
X1601290Y2461569D01*
X1606208Y2454209D01*
X1613568Y2449291D01*
X1622249Y2447564D01*
X1665749D01*
X1674430Y2449291D01*
X1681790Y2454209D01*
X1686708Y2461569D01*
X1688435Y2470250D01*
Y2490757D01*
X1837301D01*
X1967385Y2360673D01*
X1962525Y2348940D01*
X1899701D01*
X1891082Y2357161D01*
X1888932Y2367969D01*
X1882810Y2377132D01*
X1841971Y2417971D01*
X1832808Y2424093D01*
X1822000Y2426243D01*
X1821999Y2426243D01*
X1380699D01*
X1326743Y2480199D01*
Y2536000D01*
X1346000D01*
Y2647563D01*
X1349503Y2650505D01*
X1358700Y2653798D01*
X1364924Y2649640D01*
D02*
G37*
G36*
X1064295Y3005914D02*
X1076262Y2985186D01*
X1093186Y2968262D01*
X1113914Y2956295D01*
X1137033Y2950100D01*
X1160967D01*
X1184086Y2956295D01*
X1204814Y2968262D01*
X1221738Y2985186D01*
X1231130Y3001453D01*
X1243830Y2998050D01*
Y2928260D01*
X1320757D01*
Y2702466D01*
X1320757Y2702465D01*
X1322907Y2691657D01*
X1329029Y2682494D01*
X1342824Y2668700D01*
X1337563Y2656000D01*
X1251000D01*
Y2536000D01*
X1270257D01*
Y2468501D01*
X1270257Y2468500D01*
X1272407Y2457692D01*
X1278529Y2448529D01*
X1349029Y2378030D01*
X1349029Y2378029D01*
X1358192Y2371907D01*
X1369000Y2369757D01*
X1369001Y2369757D01*
X1810301D01*
X1819385Y2360673D01*
X1814525Y2348940D01*
X1766439D01*
Y2268243D01*
X1501799D01*
Y2348940D01*
X1273679D01*
Y2334243D01*
X966699D01*
X875243Y2425699D01*
Y2849301D01*
X1038699Y3012757D01*
X1062461D01*
X1064295Y3005914D01*
D02*
G37*
G36*
X1766439Y2136060D02*
X1977777D01*
X1983037Y2123360D01*
X1954617Y2094940D01*
X1766439D01*
Y2017243D01*
X1680698D01*
X1625971Y2071971D01*
X1616808Y2078093D01*
X1606000Y2080243D01*
X1605999Y2080243D01*
X1501799D01*
Y2094940D01*
X1290461D01*
X1285200Y2107640D01*
X1313620Y2136060D01*
X1501799D01*
Y2150757D01*
X1766439D01*
Y2136060D01*
D02*
G37*
G36*
X2150757Y2297301D02*
Y2060698D01*
X2049573Y1959515D01*
X2047759Y1959969D01*
X2043956Y1974014D01*
X2128970Y2059028D01*
X2128971Y2059029D01*
X2135093Y2068191D01*
X2137243Y2079000D01*
Y2259000D01*
X2135093Y2269808D01*
X2128971Y2278971D01*
X1868971Y2538971D01*
X1859808Y2545093D01*
X1849000Y2547243D01*
X1848999Y2547243D01*
X1688435D01*
Y2576750D01*
X1686708Y2585432D01*
X1684954Y2588057D01*
X1690988Y2600757D01*
X1847301D01*
X2150757Y2297301D01*
D02*
G37*
G36*
X1649029Y1969030D02*
X1649029Y1969029D01*
X1653648Y1965943D01*
X1653867Y1964257D01*
X1648101Y1953243D01*
X1501799D01*
Y1967940D01*
X1277243D01*
Y2009060D01*
X1501799D01*
Y2023757D01*
X1594301D01*
X1649029Y1969030D01*
D02*
G37*
G36*
X1520757Y1565083D02*
Y1445644D01*
X1518568Y1445209D01*
X1511209Y1440292D01*
X1508556Y1436321D01*
X1506306Y1435678D01*
X1496693D01*
X1494444Y1436321D01*
X1491791Y1440292D01*
X1484431Y1445209D01*
X1475750Y1446936D01*
X1432250D01*
X1423568Y1445209D01*
X1416208Y1440292D01*
X1411291Y1432932D01*
X1409564Y1424250D01*
Y1399243D01*
X1368699D01*
X1279581Y1488360D01*
X1282889Y1501060D01*
X1501799D01*
Y1563955D01*
X1514499Y1569910D01*
X1520757Y1565083D01*
D02*
G37*
%LPC*%
G36*
X1160967Y2877900D02*
X1137033D01*
X1113914Y2871705D01*
X1093186Y2859738D01*
X1076262Y2842814D01*
X1064295Y2822086D01*
X1058100Y2798967D01*
Y2775033D01*
X1064295Y2751914D01*
X1076262Y2731186D01*
X1093186Y2714262D01*
X1113914Y2702295D01*
X1123007Y2699858D01*
Y2656000D01*
X1106000D01*
Y2536000D01*
X1125257D01*
Y2496500D01*
X1083500D01*
Y2365500D01*
X1214500D01*
Y2496500D01*
X1181743D01*
Y2536000D01*
X1201000D01*
Y2656000D01*
X1179493D01*
Y2701064D01*
X1184086Y2702295D01*
X1204814Y2714262D01*
X1221738Y2731186D01*
X1233705Y2751914D01*
X1239900Y2775033D01*
Y2798967D01*
X1233705Y2822086D01*
X1221738Y2842814D01*
X1204814Y2859738D01*
X1184086Y2871705D01*
X1160967Y2877900D01*
D02*
G37*
%LPD*%
D13*
X3895500Y349000D02*
D03*
X3585500D02*
D03*
X3899500Y2123000D02*
D03*
X3589500D02*
D03*
D15*
X3235020Y1415069D02*
X3303327Y1346762D01*
X3235020Y1415069D02*
Y1533120D01*
X6649000Y2867310D02*
X6681000Y2899310D01*
X7248999D01*
X3658000Y3504000D02*
Y3606500D01*
X3656000Y3608500D02*
X3658000Y3606500D01*
X3518860Y3409000D02*
X3563000D01*
X3518860D02*
Y3443290D01*
X3534740Y3459170D01*
X3563000Y3409000D02*
X3658000Y3504000D01*
X3762430Y3399570D02*
X3779140D01*
X3658000Y3504000D02*
X3762430Y3399570D01*
X4806830Y3186830D02*
X4909000Y3289000D01*
X4649000Y3186830D02*
X4806830D01*
X4909000Y3289000D02*
Y3629000D01*
X4759000Y3779000D02*
X4909000Y3629000D01*
X6653310Y3153310D02*
X7248999D01*
X5207310Y2867310D02*
X6649000D01*
X5129000Y2611500D02*
Y2789000D01*
X5207310Y2867310D01*
X5129000Y3149000D02*
X6649000D01*
X4679000Y2699000D02*
X5129000Y3149000D01*
X4205000Y2699000D02*
X4679000D01*
X5569000Y2105500D02*
Y2611500D01*
X4901500D02*
X5129000D01*
X4799000Y2509000D02*
X4901500Y2611500D01*
X4799000Y2359000D02*
Y2509000D01*
X4499000Y2119000D02*
Y2359000D01*
X4512500Y2105500D02*
X5128999D01*
X3899500Y2109000D02*
X4164000D01*
X4289500Y2359000D02*
X4499000D01*
X4189500Y2459000D02*
X4289500Y2359000D01*
X4189500Y2459000D02*
Y2714500D01*
X4089500Y2359000D02*
X4189500Y2459000D01*
X3882500Y2359000D02*
X4089500D01*
X3591500Y2363000D02*
Y2714500D01*
X3589500Y2123000D02*
Y2357000D01*
X3347500Y2160500D02*
Y2349499D01*
X3444500Y2714500D02*
X3591500D01*
X3345999Y2615999D02*
X3444500Y2714500D01*
X3362760Y2805240D02*
X3444500Y2723500D01*
X6149000Y1772000D02*
X6154250D01*
X6164750Y1761500D01*
X6648000D01*
X6649000Y1760500D01*
Y749000D02*
X6695000Y795000D01*
X7249000D01*
X4889000Y969000D02*
X5134000D01*
X5334000Y1174000D02*
X6149000D01*
X5216500Y1056500D02*
X5334000Y1174000D01*
X4048720Y1358720D02*
Y1583290D01*
X3518860Y1549000D02*
X3534740Y1564880D01*
Y1637240D01*
X3656000Y1758500D01*
X3749000Y1665500D01*
X3409651Y1758500D02*
X3530151Y1879000D01*
X3219140Y1583290D02*
X3235020Y1599170D01*
X3242670D01*
X3530151Y1879000D02*
X4819000D01*
X3219140Y1549000D02*
Y1583290D01*
X3242670Y1599170D02*
X3402000Y1758500D01*
X3349000Y1330000D02*
X3565470D01*
X3219140Y1549000D02*
X3235020Y1533120D01*
X3351984Y473790D02*
Y565016D01*
X3351157Y1066023D02*
X3485680Y931500D01*
X3388513Y836491D02*
X3483522Y931500D01*
X5216500Y421500D02*
X5349000Y289000D01*
X6439000D01*
X6649000Y499000D01*
X3351984Y473790D02*
X3408000Y417774D01*
X6154000Y1179000D02*
X6519000D01*
X6649000Y1049000D01*
X5569000Y509000D02*
Y969000D01*
X4799000Y879000D02*
X4889000Y969000D01*
X4799000Y601500D02*
Y879000D01*
X6649000Y499000D02*
Y749000D01*
X3986330Y1296330D02*
X4048720Y1358720D01*
X3898860Y1296330D02*
X3986330D01*
X3749000Y1549000D02*
Y1665500D01*
X4819000Y1879000D02*
X4949000Y1749000D01*
X3898860Y3159000D02*
X4049000D01*
X4098860Y3208860D01*
Y3409000D01*
X3910000Y3608500D02*
X4059500D01*
X4099000Y3569000D01*
Y3409140D02*
Y3569000D01*
X4098860Y3409000D02*
X4339000D01*
X4461830Y3531830D01*
X4649000D01*
X3572500Y3779000D02*
X4759000D01*
X3402000Y3608500D02*
X3572500Y3779000D01*
X3219140Y3222811D02*
X3328951Y3113000D01*
X3360788D02*
X3406788Y3159000D01*
X3599140D01*
X3219140Y3222811D02*
Y3409000D01*
X3289000Y3619000D02*
X3391500D01*
X3219140Y3409000D02*
Y3549140D01*
X3289000Y3619000D01*
X4949000Y1449000D02*
Y1749000D01*
X4849000Y1349000D02*
X4949000Y1449000D01*
X4673839Y1349000D02*
X4849000D01*
X6649000Y1049000D02*
X7249000D01*
X4045251Y1758500D02*
X4134590Y1669160D01*
X3910000Y1758500D02*
X4045251D01*
X4048720Y1583290D02*
X4134590Y1669160D01*
X4649000D01*
X4277499Y601500D02*
X4499000D01*
X4189500Y689500D02*
X4277499Y601500D01*
X4100500Y600500D02*
X4189500Y689500D01*
X3882500Y600500D02*
X4100500D01*
X4189500Y689500D02*
Y931500D01*
X4489000Y349000D02*
Y591500D01*
X3895500Y349000D02*
X4144000D01*
X3585500D02*
Y598500D01*
X3485680Y931500D02*
X3591500D01*
Y604500D02*
Y931500D01*
D16*
X1149000Y2787000D02*
X1151250Y2784750D01*
X1153500Y2435500D02*
Y2596000D01*
X1151250Y2598250D02*
X1153500Y2596000D01*
X1151250Y2598250D02*
Y2784750D01*
X1154500Y2145500D02*
X1249000Y2240000D01*
X1154500Y1930500D02*
Y2145500D01*
X1249000Y2240000D02*
X1993000D01*
X955000Y2306000D02*
X1362920D01*
X847000Y2414000D02*
X955000Y2306000D01*
X847000Y2861000D02*
X1027000Y3041000D01*
X847000Y2414000D02*
Y2861000D01*
X1027000Y3041000D02*
X1149000D01*
X1307140D01*
X1880499Y2052000D02*
X1951619D01*
X2027479Y2127860D02*
Y2205521D01*
X1993000Y2240000D02*
X2027479Y2205521D01*
X1951619Y2052000D02*
X2027479Y2127860D01*
X1249000Y1479000D02*
Y2111381D01*
X1316619Y2179000D02*
X1387739D01*
X1249000Y2111381D02*
X1316619Y2179000D01*
X1387739D02*
X1880499D01*
X1149000Y1539000D02*
Y1780000D01*
X1154500Y1785500D01*
X1149000Y2431000D02*
X1153500Y2435500D01*
X1862839Y2321240D02*
X1878079Y2306000D01*
X1822000Y2398000D02*
X1862839Y2357161D01*
X1878079Y2306000D02*
X1880499D01*
X1862839Y2321240D02*
Y2357161D01*
X1369000Y2398000D02*
X1822000D01*
X1298500Y2468500D02*
X1369000Y2398000D01*
X1298500Y2468500D02*
Y2596000D01*
X749000Y1749000D02*
Y3179000D01*
X3760462Y3379938D02*
X3799140Y3341260D01*
X3345999Y2605000D02*
Y2615999D01*
X3444500Y2714500D02*
Y2723500D01*
X3362760Y2805240D02*
Y2842238D01*
X3345999Y2859000D02*
X3362760Y2842238D01*
X7203000Y749000D02*
X7249000Y795000D01*
X3565470Y1330000D02*
X3599140Y1296330D01*
X3351157Y1066023D02*
Y1076000D01*
X3363490Y836491D02*
X3388513D01*
X3349000Y822000D02*
X3363490Y836491D01*
X1117000Y341000D02*
X1149000D01*
X1387739Y1925000D02*
X1880499D01*
X1669000Y1989000D02*
X2019000D01*
X1606000Y2052000D02*
X1669000Y1989000D01*
X2019000D02*
X2109000Y2079000D01*
X1387739Y2052000D02*
X1606000D01*
X1880499Y1925000D02*
X2055000D01*
X865000Y3295000D02*
X1149000D01*
X749000Y3179000D02*
X865000Y3295000D01*
X1149000D02*
X1345140D01*
X1349000Y869020D02*
X1383290D01*
X1379346Y228000D02*
X1701828Y550482D01*
X1383290Y869020D02*
X1701828Y550482D01*
X2537482D01*
X780000Y228000D02*
X1379346D01*
X2537482Y550482D02*
X2555000Y568000D01*
X549000Y459000D02*
Y1695000D01*
Y459000D02*
X780000Y228000D01*
X1880499Y1380499D02*
Y1544000D01*
X1749000Y1249000D02*
X1880499Y1380499D01*
X1809379Y1544000D02*
X1880499D01*
X1739000Y1614379D02*
Y1727621D01*
Y1614379D02*
X1809379Y1544000D01*
X1739000Y1727621D02*
X1809379Y1798000D01*
X1880499D01*
X1527999Y2629000D02*
X1859000D01*
X1453999Y2555000D02*
X1527999Y2629000D01*
X1859000D02*
X2179000Y2309000D01*
X2055000Y1925000D02*
X2179000Y2049000D01*
Y2309000D01*
X1453999Y2523500D02*
Y2555000D01*
X1549000Y1371000D02*
Y1580859D01*
X1458859Y1671000D02*
X1549000Y1580859D01*
X1387739Y1671000D02*
X1458859D01*
X1375732Y2675733D02*
X1475732D01*
X1349000Y2702465D02*
Y2999140D01*
Y2702465D02*
X1375732Y2675733D01*
X1494534Y2675900D02*
X1532700Y2714066D01*
X1475900Y2675900D02*
X1494534D01*
X1475732Y2675733D02*
X1475900Y2675900D01*
X1458221Y2778721D02*
Y2858221D01*
X1509000Y2909000D01*
X2249000D01*
X1749000Y1151500D02*
X1846500Y1249000D01*
X1949000D01*
X1660300Y1151500D02*
X1749000D01*
X1644000Y1120000D02*
Y1135200D01*
X1660300Y1151500D01*
X2249000Y2609000D02*
X2253000Y2605000D01*
X2551999D01*
X1648499Y2519000D02*
X1849000D01*
X1643999Y2523500D02*
X1648499Y2519000D01*
X1849000D02*
X2109000Y2259000D01*
Y2079000D02*
Y2259000D01*
X1149000Y1103000D02*
Y1539000D01*
X1644000Y1371000D02*
Y1612859D01*
X1458859Y1798000D02*
X1644000Y1612859D01*
X1387739Y1798000D02*
X1458859D01*
X1249000Y1479000D02*
X1357000Y1371000D01*
X1454000D01*
X1349000Y1234121D02*
X1363879Y1249000D01*
X1349000Y869020D02*
Y1234121D01*
X1149000Y595000D02*
X1323300D01*
X1349000Y569300D01*
X1307140Y3041000D02*
X1349000Y2999140D01*
X2349550Y1549000D02*
X2386000Y1585450D01*
Y1758500D01*
X2373603Y3596103D02*
X2386000Y3608500D01*
X2349550Y3341260D02*
X2373603Y3365313D01*
X1549000Y2774500D02*
X1644000D01*
X1454000Y1120000D02*
X1549000D01*
X1565300Y1103700D01*
Y1059566D02*
X1856426Y768440D01*
X1565300Y1059566D02*
Y1103700D01*
X1891560Y768440D02*
X1911000Y749000D01*
X1856426Y768440D02*
X1891560D01*
X1532700Y2714066D02*
Y2758200D01*
X1549000Y2774500D01*
X2359140Y3409000D02*
X2386000Y3435860D01*
Y3608500D01*
X2640000Y3427860D02*
X2658860Y3409000D01*
Y3219861D02*
Y3409000D01*
X2640000Y3427860D02*
Y3608500D01*
Y1758500D02*
Y2168000D01*
X2551999Y3113000D02*
X2658860Y3219861D01*
X2551999Y2256001D02*
X2640000Y2168000D01*
X2551999Y2859000D02*
Y3113000D01*
Y2256001D02*
Y2351000D01*
X2649270Y1424270D02*
Y1549000D01*
X2640000Y1558270D02*
X2649270Y1549000D01*
X2555000Y1330000D02*
X2649270Y1424270D01*
X2640000Y1558270D02*
Y1758500D01*
X2555000Y1076000D02*
Y1330000D01*
X1345140Y3295000D02*
X1349000Y3298860D01*
X1549000Y1339500D02*
X1565300Y1323200D01*
X1549000Y1326866D02*
Y1339500D01*
Y1371000D01*
X695000Y1695000D02*
X749000Y1749000D01*
X549000Y1695000D02*
X695000D01*
X1565300Y1302340D02*
X1618640Y1249000D01*
X1565300Y1302340D02*
Y1323200D01*
X1618640Y1249000D02*
X1749000D01*
X1471134D02*
X1549000Y1326866D01*
X1363879Y1249000D02*
X1471134D01*
X1328980Y849000D02*
X1349000Y869020D01*
X1149000Y849000D02*
X1328980D01*
X3347500Y2160500D02*
X3349000Y2159000D01*
X3345999Y2351000D02*
X3347500Y2349499D01*
X3303327Y1346762D02*
X3332238D01*
X3349000Y1330000D01*
X1454000Y2774500D02*
X1458221Y2778721D01*
X4189500Y2714500D02*
X4205000Y2699000D01*
X6149000Y1174000D02*
X6154000Y1179000D01*
X4098860Y3409000D02*
X4099000Y3409140D01*
X3391500Y3619000D02*
X3402000Y3608500D01*
X4499000Y2119000D02*
X4512500Y2105500D01*
X1949000Y1249000D02*
X2049000Y1149000D01*
X2218000D01*
X2249000Y1118000D01*
X4649000Y1324160D02*
X4673839Y1349000D01*
X6649000Y3149000D02*
X6653310Y3153310D01*
X4649000Y3484500D02*
Y3521500D01*
X4489000Y349000D02*
X4521500Y381500D01*
X4489000Y591500D02*
X4499000Y601500D01*
X3585500Y598500D02*
X3587500Y600500D01*
X3591500Y604500D01*
X3898860Y1296330D02*
Y1330620D01*
X2249000Y818000D02*
X2253000Y822000D01*
X2555000D01*
X3910000Y3608500D02*
X3918419Y3600081D01*
D17*
X5134000Y969000D02*
X5216500Y1051500D01*
Y1056500D01*
X3349000Y568000D02*
X3351984Y565016D01*
X5129000Y509000D02*
X5134000D01*
X5216500Y426500D01*
Y421500D02*
Y426500D01*
X3408000Y406000D02*
Y417774D01*
X3587500Y2359000D02*
X3591500Y2363000D01*
X3328951Y3113000D02*
X3360788D01*
D18*
X1911000Y3549000D02*
D03*
Y2787000D02*
D03*
X1149000D02*
D03*
Y3041000D02*
D03*
Y3295000D02*
D03*
Y849000D02*
D03*
Y595000D02*
D03*
Y341000D02*
D03*
X1911000Y1103000D02*
D03*
Y341000D02*
D03*
D19*
X1149000Y3549000D02*
D03*
Y1103000D02*
D03*
D20*
X6649000Y3149000D02*
D03*
Y1049000D02*
D03*
Y1760500D02*
D03*
Y749000D02*
D03*
Y2867310D02*
D03*
D21*
X3910000Y3608500D02*
D03*
X3656000D02*
D03*
X3402000D02*
D03*
X2640000D02*
D03*
X2386000D02*
D03*
X3910000Y1758500D02*
D03*
X3656000D02*
D03*
X3402000D02*
D03*
X2640000D02*
D03*
X2386000D02*
D03*
D22*
X1149000Y1539000D02*
D03*
Y2431000D02*
D03*
D23*
X549000Y1695000D02*
D03*
X7249000Y1049000D02*
D03*
X7248999Y3153310D02*
D03*
D24*
X549000Y1949000D02*
D03*
X7249000Y795000D02*
D03*
X7248999Y2899310D02*
D03*
D25*
X295000Y1949000D02*
D03*
Y1695000D02*
D03*
X7503000Y1049000D02*
D03*
Y795000D02*
D03*
X7502999Y2899310D02*
D03*
Y3153310D02*
D03*
D26*
X3408000Y406000D02*
D03*
X1911000Y749000D02*
D03*
X3349000Y2159000D02*
D03*
D27*
X1154500Y1785500D02*
D03*
Y1930500D02*
D03*
D28*
X1298500Y2596000D02*
D03*
X1153500D02*
D03*
D29*
X1349000Y3298860D02*
D03*
Y2999140D02*
D03*
Y569300D02*
D03*
Y869020D02*
D03*
D30*
X6149000Y1174000D02*
D03*
Y1772000D02*
D03*
D31*
X5129000Y969000D02*
D03*
X5569000D02*
D03*
X5128999Y2105500D02*
D03*
X5129000Y509000D02*
D03*
Y2611500D02*
D03*
X5569000D02*
D03*
X5569000Y2105500D02*
D03*
X5569000Y509000D02*
D03*
D32*
X4499000Y601500D02*
D03*
Y2359000D02*
D03*
X4799000D02*
D03*
Y601500D02*
D03*
D33*
X3882500Y600500D02*
D03*
X3587500D02*
D03*
X3882500Y2359000D02*
D03*
X3587500D02*
D03*
D34*
X4489000Y349000D02*
D03*
X4509000Y2109000D02*
D03*
X4164000D02*
D03*
X4144000Y349000D02*
D03*
D35*
X1387739Y2306000D02*
D03*
X1880499Y1798000D02*
D03*
Y1544000D02*
D03*
X1387739Y1671000D02*
D03*
Y2179000D02*
D03*
X1880499D02*
D03*
Y2052000D02*
D03*
X1387739Y1925000D02*
D03*
X1880499D02*
D03*
Y2306000D02*
D03*
X1387739Y2052000D02*
D03*
Y1798000D02*
D03*
X1880499Y1671000D02*
D03*
X1387739Y1544000D02*
D03*
D36*
X1548999Y2774500D02*
D03*
X1643999D02*
D03*
X1454000Y1120000D02*
D03*
X1549000D02*
D03*
X1548999Y2523500D02*
D03*
X1549000Y1371000D02*
D03*
X1454000D02*
D03*
X1453999Y2523500D02*
D03*
X1643999D02*
D03*
X1644000Y1371000D02*
D03*
Y1120000D02*
D03*
X1453999Y2774500D02*
D03*
D37*
X2349550Y1549000D02*
D03*
X2359140Y3409000D02*
D03*
X2658860D02*
D03*
X2649270Y1549000D02*
D03*
X3599140Y1296330D02*
D03*
X3898860D02*
D03*
X3749000Y1549000D02*
D03*
X4048720D02*
D03*
X3518860D02*
D03*
X3219140D02*
D03*
X3898860Y3159000D02*
D03*
X3599140D02*
D03*
X4098860Y3409000D02*
D03*
X3799140D02*
D03*
X3518860D02*
D03*
X3219140D02*
D03*
D38*
X2551999Y3113000D02*
D03*
Y2859000D02*
D03*
X2555000Y1330000D02*
D03*
Y1076000D02*
D03*
X3349000Y1330000D02*
D03*
Y1076000D02*
D03*
Y822000D02*
D03*
Y568000D02*
D03*
X2555000Y822000D02*
D03*
X2551999Y2605000D02*
D03*
X3345999Y2351000D02*
D03*
Y2605000D02*
D03*
Y2859000D02*
D03*
Y3113000D02*
D03*
D39*
X2551999Y2351000D02*
D03*
X2555000Y568000D02*
D03*
D40*
X4649000Y1669160D02*
D03*
Y1324160D02*
D03*
Y3186830D02*
D03*
Y3531830D02*
D03*
D41*
X4189500Y931500D02*
D03*
X3591500D02*
D03*
X3591500Y2714500D02*
D03*
X4189500D02*
D03*
D42*
X2249000Y2609000D02*
D03*
Y2909000D02*
D03*
Y1118000D02*
D03*
Y818000D02*
D03*
%TF.MD5,dfa6bdc72b7bbd0f2ff41df81f356941*%
M02*
