%TF.GenerationSoftware,Altium Limited,Altium Designer,23.2.1 (34)*%
G04 Layer_Color=32768*
%FSLAX45Y45*%
%MOMM*%
%TF.SameCoordinates,30BCF74E-8D5C-4CB1-BD29-C8B6E5BAA9CA*%
%TF.FilePolarity,Positive*%
%TF.FileFunction,Other,Mechanical_15*%
%TF.Part,Single*%
G01*
G75*
%TA.AperFunction,NonConductor*%
%ADD46C,0.10000*%
%ADD47C,0.15240*%
%ADD86C,0.05000*%
G36*
X1263279Y1462720D02*
X2004959D01*
Y2387280D01*
X1263279D01*
Y1462720D01*
D02*
G37*
D46*
X4125300Y3728825D02*
Y3919700D01*
Y2860000D02*
Y3158075D01*
X3679225Y2860000D02*
X4125300D01*
X2112400Y2860000D02*
X2634675D01*
Y2796500D02*
Y2796500D01*
X2112400Y3700250D02*
Y3919700D01*
Y2860000D02*
Y3097750D01*
Y3700250D01*
X2634675Y2860000D02*
X3679225D01*
X4125300Y3158075D02*
Y3728825D01*
X2112400Y3919700D02*
X4125300Y3919700D01*
X1896500Y946500D02*
Y2151500D01*
Y946500D02*
X4201500D01*
Y2151500D01*
X1896500D02*
X4201500D01*
X4001500Y1931500D02*
Y2286500D01*
X4671500D01*
Y1931500D02*
Y2286500D01*
X4001500Y1931500D02*
X4671500D01*
X3981500Y171500D02*
X4651500D01*
Y526500D01*
X3981500D02*
X4651500D01*
X3981500Y171500D02*
Y526500D01*
D47*
X2004959Y1462720D02*
Y2387280D01*
X1263279D02*
X2004959D01*
X1263279Y1462720D02*
Y2387280D01*
Y1462720D02*
X2004959D01*
D86*
X1466000Y1557000D02*
Y1897000D01*
X1656000D01*
Y1557000D02*
Y1897000D01*
X1466000Y1557000D02*
X1656000D01*
X1815000Y1642000D02*
Y1877000D01*
X1705000Y1642000D02*
X1815000D01*
X1705000D02*
Y1877000D01*
X1815000D01*
X1705000Y2206500D02*
Y2441500D01*
X1815000D01*
Y2206500D02*
Y2441500D01*
X1705000Y2206500D02*
X1815000D01*
X1656000Y2186500D02*
Y2526500D01*
X1466000Y2186500D02*
X1656000D01*
X1466000D02*
Y2526500D01*
X1656000D01*
X230000Y3904000D02*
X2109000D01*
X230000Y2635000D02*
X2109000D01*
Y3904000D01*
X230000Y2635000D02*
Y3904000D01*
X1084500Y1728000D02*
Y1988000D01*
Y1728000D02*
X1224500D01*
Y1988000D01*
X1084500D02*
X1224500D01*
X1096000Y2526000D02*
X1356000D01*
Y2666000D01*
X1096000D02*
X1356000D01*
X1096000Y2526000D02*
Y2666000D01*
X6560500Y3002080D02*
Y3295920D01*
X6737500Y3002080D02*
Y3295920D01*
X6560500Y3002080D02*
X6737500D01*
X6560500Y3295920D02*
X6737500D01*
X230000Y1458000D02*
X2109000D01*
X230000Y189000D02*
X2109000D01*
Y1458000D01*
X230000Y189000D02*
Y1458000D01*
X5958000Y1087200D02*
X6340000D01*
X5958000Y1858800D02*
X6340000D01*
X5958000Y1087200D02*
Y1858800D01*
X6340000Y1087200D02*
Y1858800D01*
X4991500Y746500D02*
X5706500D01*
Y1191500D01*
X4991500D02*
X5706500D01*
X4991500Y746500D02*
Y1191500D01*
X1002080Y1627500D02*
X1295920D01*
X1002080Y1450500D02*
X1295920D01*
X1002080D02*
Y1627500D01*
X1295920Y1450500D02*
Y1627500D01*
Y2342500D02*
Y2519500D01*
X1002080Y2342500D02*
Y2519500D01*
Y2342500D02*
X1295920D01*
X1002080Y2519500D02*
X1295920D01*
X1379000Y1140500D02*
Y1350500D01*
X1400000Y1034500D02*
X1698000D01*
X1379000Y1140500D02*
X1400000D01*
Y1034500D02*
Y1140500D01*
X1719000D02*
Y1350500D01*
X1400000Y1456500D02*
X1698000D01*
Y1350500D02*
X1719000D01*
X1698000D02*
Y1456500D01*
X1379000Y1350500D02*
X1400000D01*
Y1456500D01*
X1698000Y1140500D02*
X1719000D01*
X1698000Y1034500D02*
Y1140500D01*
X1399999Y2754000D02*
Y2860000D01*
X1378999Y2754000D02*
X1399999D01*
X1697999Y2438000D02*
Y2544000D01*
X1718999D01*
X1399999Y2438000D02*
Y2544000D01*
X1378999D02*
X1399999D01*
Y2438000D02*
X1697999D01*
X1378999Y2544000D02*
Y2754000D01*
X1697999D02*
Y2860000D01*
Y2754000D02*
X1718999D01*
X1399999Y2860000D02*
X1697999D01*
X1718999Y2544000D02*
Y2754000D01*
X4274000Y1884000D02*
X5424000D01*
X4274000Y413999D02*
Y1884000D01*
Y413999D02*
X5424000D01*
Y1884000D01*
X5374000Y2214000D02*
X6524000D01*
Y3684000D01*
X5374000D02*
X6524000D01*
X5374000Y2214000D02*
Y3684000D01*
X4876500Y2244000D02*
Y2474000D01*
X4421500Y2244000D02*
X4876500D01*
X4421500D02*
Y2474000D01*
X4876500D01*
Y486500D02*
Y716500D01*
X4421500Y486500D02*
X4876500D01*
X4421500D02*
Y716500D01*
X4876500D01*
X4409000Y1161660D02*
Y1831661D01*
Y1161660D02*
X4889000D01*
Y1831661D01*
X4409000D02*
X4889000D01*
X4991500Y2389000D02*
X5706500D01*
Y2834000D01*
X4991500D02*
X5706500D01*
X4991500Y2389000D02*
Y2834000D01*
X4991500Y1883000D02*
Y2328000D01*
X5706499D01*
Y1883000D02*
Y2328000D01*
X4991500Y1883000D02*
X5706499D01*
X4991500Y286500D02*
X5706500D01*
Y731500D01*
X4991500D02*
X5706500D01*
X4991500Y286500D02*
Y731500D01*
X3965800Y484700D02*
Y716300D01*
X3504201Y484700D02*
Y716300D01*
Y484700D02*
X3965800D01*
X3504201Y716300D02*
X3965800D01*
X3514500Y459000D02*
X3966500D01*
X3514500Y239000D02*
Y459000D01*
Y239000D02*
X3966500D01*
Y459000D01*
X4276300Y740500D02*
Y1122500D01*
X3504700Y740500D02*
Y1122500D01*
Y740500D02*
X4276300D01*
X3504700Y1122500D02*
X4276300D01*
X3518500Y2233000D02*
X3970500D01*
X3518500Y2013000D02*
Y2233000D01*
Y2013000D02*
X3970500D01*
Y2233000D01*
X3965800Y2243200D02*
Y2474800D01*
X3504201Y2243200D02*
Y2474800D01*
Y2243200D02*
X3965800D01*
X3504201Y2474800D02*
X3965800D01*
X3504700Y2905500D02*
X4276300D01*
X3504700Y2523500D02*
X4276300D01*
X3504700D02*
Y2905500D01*
X4276300Y2523500D02*
Y2905500D01*
X4409000Y3694330D02*
X4889000D01*
Y3024330D02*
Y3694330D01*
X4409000Y3024330D02*
X4889000D01*
X4409000D02*
Y3694330D01*
X2457500Y416000D02*
X3446500D01*
Y1482000D01*
X2457500D02*
X3446500D01*
X2457500Y416000D02*
Y1482000D01*
X2454499Y2199000D02*
Y3265000D01*
X3443499D01*
Y2199000D02*
Y3265000D01*
X2454499Y2199000D02*
X3443499D01*
X6560500Y902080D02*
Y1195920D01*
X6737500Y902080D02*
Y1195920D01*
X6560500Y902080D02*
X6737500D01*
X6560500Y1195920D02*
X6737500D01*
X5374000Y413999D02*
X6524000D01*
Y1884000D01*
X5374000D02*
X6524000D01*
X5374000Y413999D02*
Y1884000D01*
X5424000Y2214000D02*
Y3684000D01*
X4274000Y2214000D02*
X5424000D01*
X4274000D02*
Y3684000D01*
X5424000D01*
X214000Y1520000D02*
Y2124000D01*
Y1520000D02*
X884000D01*
Y2124000D01*
X214000D02*
X884000D01*
X6914000Y620000D02*
X7584000D01*
X6914000D02*
Y1224000D01*
X7584000D01*
Y620000D02*
Y1224000D01*
X7583999Y2724310D02*
Y3328310D01*
X6913999D02*
X7583999D01*
X6913999Y2724310D02*
Y3328310D01*
Y2724310D02*
X7583999D01*
X6560500Y1907420D02*
X6737500D01*
X6560500Y1613580D02*
X6737500D01*
Y1907420D01*
X6560500Y1613580D02*
Y1907420D01*
X2134000Y2986500D02*
X2364000D01*
Y2531500D02*
Y2986500D01*
X2134000Y2531500D02*
X2364000D01*
X2134000D02*
Y2986500D01*
X2193999Y2206500D02*
Y2344000D01*
Y2206500D02*
X2306500Y2094000D01*
X2904000D01*
Y2344000D01*
Y2554000D02*
Y2804000D01*
X2306500D02*
X2904000D01*
X2193999Y2691500D02*
X2306500Y2804000D01*
X2193999Y2554000D02*
Y2691500D01*
X2114000Y2344000D02*
Y2554000D01*
Y2344000D02*
X2193999D01*
X2904000D02*
X2983999D01*
Y2554000D01*
X2904000D02*
X2983999D01*
X2114000D02*
X2193999D01*
X2134000Y1195500D02*
X2364000D01*
Y740500D02*
Y1195500D01*
X2134000Y740500D02*
X2364000D01*
X2134000D02*
Y1195500D01*
X6560500Y895920D02*
X6737500D01*
X6560500Y602080D02*
X6737500D01*
Y895920D01*
X6560500Y602080D02*
Y895920D01*
X930000Y2139000D02*
Y2359000D01*
X478000D02*
X930000D01*
X478000Y2139000D02*
Y2359000D01*
Y2139000D02*
X930000D01*
X2194000Y356600D02*
Y494100D01*
Y356600D02*
X2306500Y244100D01*
X2904000D01*
Y494100D01*
Y704100D02*
Y954100D01*
X2306500D02*
X2904000D01*
X2194000Y841600D02*
X2306500Y954100D01*
X2194000Y704100D02*
Y841600D01*
X2114000Y494100D02*
Y704100D01*
Y494100D02*
X2194000D01*
X2904000D02*
X2984000D01*
Y704100D01*
X2904000D02*
X2984000D01*
X2114000D02*
X2194000D01*
X6560500Y2720390D02*
Y3014230D01*
X6737500Y2720390D02*
Y3014230D01*
X6560500Y2720390D02*
X6737500D01*
X6560500Y3014230D02*
X6737500D01*
%TF.MD5,edb4d341b06d31be205a704b6f85e84e*%
M02*
