%TF.GenerationSoftware,Altium Limited,Altium Designer,23.2.1 (34)*%
G04 Layer_Color=32768*
%FSLAX45Y45*%
%MOMM*%
%TF.SameCoordinates,3015DBAE-21F6-41EF-B07E-3AD50EAB7A3F*%
%TF.FilePolarity,Positive*%
%TF.FileFunction,Other,Mechanical_15*%
%TF.Part,Single*%
G01*
G75*
%TA.AperFunction,NonConductor*%
%ADD46C,0.15240*%
%ADD47C,0.10000*%
%ADD83C,0.05000*%
G36*
X1187160Y2357010D02*
X1266560D01*
Y2196990D01*
X1187160D01*
Y2171590D01*
X935700D01*
Y2196990D01*
X856300D01*
Y2357010D01*
X935700D01*
Y2364630D01*
X1187160D01*
Y2357010D01*
D02*
G37*
G36*
X1880010Y2527800D02*
X1905410D01*
Y2387280D01*
X2280959D01*
Y1462720D01*
X1539279D01*
Y2387280D01*
X1712370D01*
Y2527800D01*
X1719990D01*
Y2607200D01*
X1880010D01*
Y2527800D01*
D02*
G37*
D46*
X1712370Y2276340D02*
Y2527800D01*
Y2276340D02*
X1719990D01*
X1880010D02*
X1905410D01*
Y2527800D01*
X1880010D02*
X1905410D01*
X1712370D02*
X1719990D01*
Y2607200D01*
Y2196940D02*
Y2276340D01*
Y2196940D02*
X1880010D01*
Y2276340D01*
Y2527800D02*
Y2607200D01*
X1719990D02*
X1880010D01*
X1887630Y1551840D02*
Y1803300D01*
X1880010D02*
X1887630D01*
X1694590D02*
X1719990D01*
X1694590Y1551840D02*
Y1803300D01*
Y1551840D02*
X1719990D01*
X1880010D02*
X1887630D01*
X1880010Y1472440D02*
Y1551840D01*
Y1803300D02*
Y1882700D01*
X1719990D02*
X1880010D01*
X1719990Y1803300D02*
Y1882700D01*
Y1472440D02*
Y1551840D01*
Y1472440D02*
X1880010D01*
X935700Y2364630D02*
X1187160D01*
X935700Y2357010D02*
Y2364630D01*
Y2171590D02*
Y2196990D01*
Y2171590D02*
X1187160D01*
Y2196990D01*
Y2357010D02*
Y2364630D01*
Y2357010D02*
X1266560D01*
X856300D02*
X935700D01*
X856300Y2196990D02*
Y2357010D01*
Y2196990D02*
X935700D01*
X1187160D02*
X1266560D01*
Y2357010D01*
X1539279Y1462720D02*
X2280959D01*
X1539279D02*
Y2387280D01*
X2280959D01*
Y1462720D02*
Y2387280D01*
D47*
X2172500Y946500D02*
Y2151500D01*
Y946500D02*
X4477500D01*
Y2151500D01*
X2172500D02*
X4477500D01*
X1490000Y2022000D02*
X1590000D01*
X1540000Y1972000D02*
Y2072000D01*
X4393300Y3833825D02*
Y4024700D01*
Y2965000D02*
Y3263075D01*
X3947225Y2965000D02*
X4393300D01*
X2380400Y2965000D02*
X2902675D01*
Y2901500D02*
Y2901500D01*
X2380400Y3805250D02*
Y4024700D01*
Y2965000D02*
Y3202750D01*
Y3805250D01*
X2902675Y2965000D02*
X3947225D01*
X4393300Y3263075D02*
Y3833825D01*
X2380400Y4024700D02*
X4393300Y4024700D01*
X4099000Y306000D02*
X4199000D01*
X4149000Y256000D02*
Y356000D01*
X4101000Y2180000D02*
X4201000D01*
X4151000Y2130000D02*
Y2230000D01*
X4580000Y123500D02*
Y478500D01*
X5250000D01*
Y123500D02*
Y478500D01*
X4580000Y123500D02*
X5250000D01*
X4546000Y2009500D02*
Y2364500D01*
X5216000D01*
Y2009500D02*
Y2364500D01*
X4546000Y2009500D02*
X5216000D01*
D83*
X6912981Y1628634D02*
Y2145634D01*
X7162981D01*
Y1628634D02*
Y2145634D01*
X6912981Y1628634D02*
X7162981D01*
X6912981Y1237634D02*
Y1754634D01*
X7162981D01*
Y1237634D02*
Y1754634D01*
X6912981Y1237634D02*
X7162981D01*
X6702980Y761134D02*
X7372980D01*
X6702980D02*
Y1365134D01*
X7372980D01*
Y761134D02*
Y1365134D01*
X6930000Y3228500D02*
Y3745500D01*
X7180000D01*
Y3228500D02*
Y3745500D01*
X6930000Y3228500D02*
X7180000D01*
X6930000Y2276500D02*
Y2793500D01*
X7180000D01*
Y2276500D02*
Y2793500D01*
X6930000Y2276500D02*
X7180000D01*
X2349000Y704100D02*
X2429000D01*
X3139000D02*
X3219000D01*
Y494100D02*
Y704100D01*
X3139000Y494100D02*
X3219000D01*
X2349000D02*
X2429000D01*
X2349000D02*
Y704100D01*
X2429000D02*
Y841600D01*
X2541500Y954100D01*
X3139000D01*
Y704100D02*
Y954100D01*
Y244100D02*
Y494100D01*
X2541500Y244100D02*
X3139000D01*
X2429000Y356600D02*
X2541500Y244100D01*
X2429000Y356600D02*
Y494100D01*
X7390000Y2720000D02*
Y3324000D01*
X6720000D02*
X7390000D01*
X6720000Y2720000D02*
Y3324000D01*
Y2720000D02*
X7390000D01*
X5573000Y420000D02*
Y1890000D01*
X4423000Y420000D02*
X5573000D01*
X4423000D02*
Y1890000D01*
X5573000D01*
X5523000Y420000D02*
Y1890000D01*
X6673000D01*
Y420000D02*
Y1890000D01*
X5523000Y420000D02*
X6673000D01*
X5525000Y2220000D02*
Y3690000D01*
X6675000D01*
Y2220000D02*
Y3690000D01*
X5525000Y2220000D02*
X6675000D01*
X4425000Y3690000D02*
X5575000D01*
X4425000Y2220000D02*
Y3690000D01*
Y2220000D02*
X5575000D01*
Y3690000D01*
X1907500Y1822000D02*
Y2222000D01*
X1172500Y1822000D02*
Y2222000D01*
Y1822000D02*
X1907500D01*
X1172500Y2222000D02*
X1907500D01*
X1971000Y2610000D02*
X2181000D01*
X1971000Y2090000D02*
Y2610000D01*
Y2090000D02*
X2181000D01*
Y2610000D01*
X1960000Y1483000D02*
X2170000D01*
Y2003000D01*
X1960000D02*
X2170000D01*
X1960000Y1483000D02*
Y2003000D01*
X1207000Y1371500D02*
Y1888500D01*
X1457000D01*
Y1371500D02*
Y1888500D01*
X1207000Y1371500D02*
X1457000D01*
X1207000Y2262060D02*
X1457000D01*
Y2779061D01*
X1207000D02*
X1457000D01*
X1207000Y2262060D02*
Y2779061D01*
X501000Y2388000D02*
Y2598000D01*
Y2388000D02*
X1021000D01*
Y2598000D01*
X501000D02*
X1021000D01*
X506000Y189000D02*
Y1458000D01*
X2385000Y189000D02*
Y1458000D01*
X506000Y189000D02*
X2385000D01*
X506000Y1458000D02*
X2385000D01*
X221000Y2126000D02*
X891000D01*
Y1522000D02*
Y2126000D01*
X221000Y1522000D02*
X891000D01*
X221000D02*
Y2126000D01*
X507000Y4026000D02*
X2386000D01*
X507000Y2757000D02*
X2386000D01*
Y4026000D01*
X507000Y2757000D02*
Y4026000D01*
X6914981Y313634D02*
Y830634D01*
X7164981D01*
Y313634D02*
Y830634D01*
X6914981Y313634D02*
X7164981D01*
X1675000Y2797000D02*
Y2903000D01*
X1654000Y2797000D02*
X1675000D01*
X1973000Y2481000D02*
Y2587000D01*
X1994000D01*
X1675000Y2481000D02*
Y2587000D01*
X1654000D02*
X1675000D01*
Y2481000D02*
X1973000D01*
X1654000Y2587000D02*
Y2797000D01*
X1973000D02*
Y2903000D01*
Y2797000D02*
X1994000D01*
X1675000Y2903000D02*
X1973000D01*
X1994000Y2587000D02*
Y2797000D01*
X2402000Y3091500D02*
X2632000D01*
Y2636500D02*
Y3091500D01*
X2402000Y2636500D02*
X2632000D01*
X2402000D02*
Y3091500D01*
X2722499Y2304000D02*
Y3370000D01*
X3711499D01*
Y2304000D02*
Y3370000D01*
X2722499Y2304000D02*
X3711499D01*
X2733500Y416000D02*
Y1482000D01*
X3722500D01*
Y416000D02*
Y1482000D01*
X2733500Y416000D02*
X3722500D01*
X4516500Y106000D02*
Y506000D01*
X3781500Y106000D02*
Y506000D01*
X4516500D01*
X3781500Y106000D02*
X4516500D01*
X3780201Y716300D02*
X4241801D01*
X3780201Y484700D02*
X4241801D01*
X3780201D02*
Y716300D01*
X4241801Y484700D02*
Y716300D01*
X3780700Y1122500D02*
X4552300D01*
X3780700Y740500D02*
X4552300D01*
X3780700D02*
Y1122500D01*
X4552300Y740500D02*
Y1122500D01*
X3768700Y2579800D02*
X4230300D01*
X3768700Y2348200D02*
X4230300D01*
X3768700D02*
Y2579800D01*
X4230300Y2348200D02*
Y2579800D01*
X4518500Y1980000D02*
Y2380000D01*
X3783500Y1980000D02*
Y2380000D01*
X4518500D01*
X3783500Y1980000D02*
X4518500D01*
X3772700Y3010500D02*
X4544301D01*
X3772700Y2628500D02*
X4544301D01*
X3772700D02*
Y3010500D01*
X4544301Y2628500D02*
Y3010500D01*
X4697500Y716500D02*
X5152500D01*
X4697500Y486500D02*
Y716500D01*
Y486500D02*
X5152500D01*
Y716500D01*
X5267500Y286500D02*
Y731500D01*
X5982500D01*
Y286500D02*
Y731500D01*
X5267500Y286500D02*
X5982500D01*
X5267500Y746500D02*
Y1191500D01*
X5982500D01*
Y746500D02*
Y1191500D01*
X5267500Y746500D02*
X5982500D01*
X4685000Y1831661D02*
X5165000D01*
Y1161660D02*
Y1831661D01*
X4685000Y1161660D02*
X5165000D01*
X4685000D02*
Y1831661D01*
X5144500Y2349000D02*
Y2579000D01*
X4689500Y2349000D02*
X5144500D01*
X4689500D02*
Y2579000D01*
X5144500D01*
X6616000Y1087200D02*
Y1858800D01*
X6234000Y1087200D02*
Y1858800D01*
X6616000D01*
X6234000Y1087200D02*
X6616000D01*
X5259500Y1988000D02*
Y2433000D01*
X5974500D01*
Y1988000D02*
Y2433000D01*
X5259500Y1988000D02*
X5974500D01*
X5259500Y2494000D02*
X5974500D01*
Y2939000D01*
X5259500D02*
X5974500D01*
X5259500Y2494000D02*
Y2939000D01*
X4677000Y3799330D02*
X5157000D01*
Y3129330D02*
Y3799330D01*
X4677000Y3129330D02*
X5157000D01*
X4677000D02*
Y3799330D01*
X1974000Y1034500D02*
Y1140500D01*
X1995000D01*
X1676000Y1350500D02*
Y1456500D01*
X1655000Y1350500D02*
X1676000D01*
X1974000D02*
Y1456500D01*
Y1350500D02*
X1995000D01*
X1676000Y1456500D02*
X1974000D01*
X1995000Y1140500D02*
Y1350500D01*
X1676000Y1034500D02*
Y1140500D01*
X1655000D02*
X1676000D01*
Y1034500D02*
X1974000D01*
X1655000Y1140500D02*
Y1350500D01*
X1370500Y1772500D02*
Y2215500D01*
X1147500Y1772500D02*
Y2215500D01*
X1370500D01*
X1147500Y1772500D02*
X1370500D01*
X2410000Y740500D02*
Y1195500D01*
Y740500D02*
X2640000D01*
Y1195500D01*
X2410000D02*
X2640000D01*
X1086500Y2526500D02*
Y2969500D01*
X1309500Y2526500D02*
Y2969500D01*
X1086500Y2526500D02*
X1309500D01*
X1086500Y2969500D02*
X1309500D01*
X2349000Y2558000D02*
X2429000D01*
X3139000D02*
X3219000D01*
Y2348000D02*
Y2558000D01*
X3139000Y2348000D02*
X3219000D01*
X2349000D02*
X2429000D01*
X2349000D02*
Y2558000D01*
X2429000D02*
Y2695500D01*
X2541500Y2808000D01*
X3139000D01*
Y2558000D02*
Y2808000D01*
Y2098000D02*
Y2348000D01*
X2541500Y2098000D02*
X3139000D01*
X2429000Y2210500D02*
X2541500Y2098000D01*
X2429000Y2210500D02*
Y2348000D01*
%TF.MD5,46140ea21a45883d5595d7fd312af814*%
M02*
