%TF.GenerationSoftware,Altium Limited,Altium Designer,23.2.1 (34)*%
G04 Layer_Color=8388736*
%FSLAX45Y45*%
%MOMM*%
%TF.SameCoordinates,30BCF74E-8D5C-4CB1-BD29-C8B6E5BAA9CA*%
%TF.FilePolarity,Negative*%
%TF.FileFunction,Soldermask,Top*%
%TF.Part,Single*%
G01*
G75*
%TA.AperFunction,Conductor*%
%ADD15C,0.80000*%
%ADD16C,0.25400*%
%TA.AperFunction,SMDPad,CuDef*%
%ADD50R,1.20320X1.10320*%
%ADD51R,0.80320X0.95320*%
%ADD52R,3.40320X1.80320*%
%ADD53R,1.32320X1.42320*%
%ADD54R,2.35320X5.30320*%
%TA.AperFunction,Conductor*%
%ADD55C,1.00320*%
%ADD56C,0.45400*%
%ADD57C,0.70320*%
%TA.AperFunction,ComponentPad*%
%ADD58C,1.72120*%
%ADD59R,1.72120X1.72120*%
%ADD60R,1.21320X1.21320*%
%ADD61C,1.50620*%
%ADD62R,1.21320X1.21320*%
%ADD63C,1.85320*%
%ADD64R,1.85320X1.85320*%
%ADD65C,1.30320*%
%TA.AperFunction,ViaPad*%
%ADD66C,1.47320*%
D15*
X3229000Y2279527D02*
Y3688000D01*
Y2279527D02*
X3349000Y2159527D01*
X3402000Y2786000D02*
Y3608500D01*
X3669000Y2519000D02*
X4849000D01*
X3402000Y2786000D02*
X3669000Y2519000D01*
X3405000Y409000D02*
Y783000D01*
D16*
X1954000Y2379000D02*
X2015000Y2318000D01*
Y2156000D02*
Y2318000D01*
X1760000Y2379000D02*
X1954000D01*
X1909000Y2050000D02*
X2015000Y2156000D01*
X1760000Y1704500D02*
X1919621D01*
X1999000Y1783879D02*
Y1960000D01*
X1919621Y1704500D02*
X1999000Y1783879D01*
X1909000Y2050000D02*
X1999000Y1960000D01*
X1167000Y2050000D02*
X1909000D01*
X859000Y2249000D02*
X968000D01*
X1167000Y2050000D01*
X1760000Y900000D02*
Y1704500D01*
Y900000D02*
X1911000Y749000D01*
X1568500Y1814500D02*
X1760000D01*
X1149000Y1103000D02*
Y1539000D01*
X1257000Y1647000D01*
X1561000D01*
X1568500Y2269000D02*
X1760000D01*
X1149000Y3041000D02*
X1495000D01*
X1760000Y2776000D01*
Y2379000D02*
Y2776000D01*
X1154500Y2436500D02*
X1561000D01*
X1149000Y2431000D02*
Y2787000D01*
D50*
X1561000Y1807000D02*
D03*
Y1647000D02*
D03*
Y2276500D02*
D03*
Y2436500D02*
D03*
D51*
X1760000Y1704500D02*
D03*
Y1814500D02*
D03*
Y2379000D02*
D03*
Y2269000D02*
D03*
D52*
X2299000Y599100D02*
D03*
X2298999Y2449000D02*
D03*
X2798999D02*
D03*
X2799000Y599100D02*
D03*
D53*
X859000Y2249000D02*
D03*
X549000D02*
D03*
D54*
X4849000Y719000D02*
D03*
Y1578999D02*
D03*
X5949000Y3379000D02*
D03*
Y2519000D02*
D03*
Y1578999D02*
D03*
Y719000D02*
D03*
X4849000Y3379000D02*
D03*
Y2519000D02*
D03*
D55*
X4707000Y259000D02*
X4849000Y401000D01*
X3219000Y363000D02*
X3323000Y259000D01*
X4707000D01*
X3649000Y3601500D02*
X3662671Y3587830D01*
X6695000Y795000D02*
X7249000D01*
X6649000Y749000D02*
X6695000Y795000D01*
X3786500Y1889000D02*
X4686499D01*
X4849000Y1726499D01*
X6703789Y2899310D02*
X7248999D01*
X6674500Y2892810D02*
X6697290D01*
X5872000Y2920000D02*
X5949000Y2997000D01*
Y3379000D01*
X4849000D02*
X5949000D01*
X5720000Y2920000D02*
X5872000D01*
X5649000Y2849000D02*
X5720000Y2920000D01*
X3662671Y3513329D02*
X3797000Y3379000D01*
X4849000D01*
X3662671Y3513329D02*
Y3587830D01*
X3910000Y3608500D02*
X4100500Y3799000D01*
X6199000D01*
X6349000Y3649000D01*
Y2649000D02*
Y3649000D01*
X6219000Y2519000D02*
X6349000Y2649000D01*
X5949000Y2519000D02*
X6219000D01*
X3405000Y783000D02*
X3910000Y1288000D01*
X4849000Y401000D02*
Y719000D01*
X3219000Y363000D02*
Y1575500D01*
X3656000Y1758500D02*
X3786500Y1889000D01*
X3910000Y1288000D02*
X3989000Y1209000D01*
X5758839D02*
X5948129Y1019710D01*
X3989000Y1209000D02*
X5758839D01*
X5948129Y719870D02*
Y1019710D01*
X5649000Y2249000D02*
Y2849000D01*
Y2249000D02*
X5749000Y2149000D01*
X6549000D01*
X6649000Y2249000D01*
Y2867310D01*
X6653310Y3153310D02*
X7248999D01*
X3219000Y1575500D02*
X3402000Y1758500D01*
X3910000Y1288000D02*
Y1758500D01*
X4849000Y1578999D02*
X5949000D01*
X6419000D01*
X6649000Y1349000D01*
Y1049000D02*
Y1349000D01*
Y1049000D02*
X7249000D01*
D56*
X2386000Y1886000D02*
X2449000Y1949000D01*
X2249000Y2023000D02*
X2386000Y1886000D01*
X2249000Y2023000D02*
Y2399000D01*
X2386000Y1758500D02*
Y1886000D01*
X2449000Y1949000D02*
X2703000D01*
X2779000Y1873000D01*
Y1279000D02*
Y1873000D01*
X2649000Y1149000D02*
X2779000Y1279000D01*
X2349000Y1149000D02*
X2649000D01*
X2588000Y226000D02*
X2799000Y437000D01*
Y599100D01*
X780000Y226000D02*
X2588000D01*
X549000Y457000D02*
X780000Y226000D01*
X549000Y457000D02*
Y1695000D01*
X2299000Y599100D02*
Y1099000D01*
X2349000Y1149000D01*
X2060900Y599100D02*
X2299000D01*
X1911000Y749000D02*
X2060900Y599100D01*
X1149000Y595000D02*
X1757000D01*
X1911000Y749000D01*
X2386000Y2516300D02*
Y3608500D01*
X2798999Y2283106D02*
Y2449000D01*
Y2283106D02*
X2899000Y2183106D01*
X2802321Y746427D02*
X2899000Y843106D01*
Y2183106D01*
X2802321Y649000D02*
Y746427D01*
X549000Y1949000D02*
Y2249000D01*
D57*
X6649000Y2867310D02*
X6674500Y2892810D01*
X6697290D02*
X6703789Y2899310D01*
X5948129Y719870D02*
X5949000Y719000D01*
D58*
X1911000Y3549000D02*
D03*
Y2787000D02*
D03*
X1149000D02*
D03*
Y3041000D02*
D03*
Y3295000D02*
D03*
Y849000D02*
D03*
Y595000D02*
D03*
Y341000D02*
D03*
X1911000Y1103000D02*
D03*
Y341000D02*
D03*
D59*
X1149000Y3549000D02*
D03*
Y1103000D02*
D03*
D60*
X6649000Y3149000D02*
D03*
Y1049000D02*
D03*
Y1760500D02*
D03*
Y749000D02*
D03*
Y2867310D02*
D03*
D61*
X3910000Y3608500D02*
D03*
X3656000D02*
D03*
X3402000D02*
D03*
X2640000D02*
D03*
X2386000D02*
D03*
X3910000Y1758500D02*
D03*
X3656000D02*
D03*
X3402000D02*
D03*
X2640000D02*
D03*
X2386000D02*
D03*
D62*
X1149000Y1539000D02*
D03*
Y2431000D02*
D03*
D63*
X549000Y1695000D02*
D03*
X7249000Y1049000D02*
D03*
X7248999Y3153310D02*
D03*
D64*
X549000Y1949000D02*
D03*
X7249000Y795000D02*
D03*
X7248999Y2899310D02*
D03*
D65*
X295000Y1949000D02*
D03*
Y1695000D02*
D03*
X7503000Y1049000D02*
D03*
Y795000D02*
D03*
X7502999Y2899310D02*
D03*
Y3153310D02*
D03*
D66*
X3408000Y406000D02*
D03*
X1911000Y749000D02*
D03*
X3349000Y2159000D02*
D03*
%TF.MD5,144f6b65187d1cc81855b10ade6549b0*%
M02*
