%TF.GenerationSoftware,Altium Limited,Altium Designer,23.2.1 (34)*%
G04 Layer_Color=65535*
%FSLAX45Y45*%
%MOMM*%
%TF.SameCoordinates,3015DBAE-21F6-41EF-B07E-3AD50EAB7A3F*%
%TF.FilePolarity,Positive*%
%TF.FileFunction,Legend,Top*%
%TF.Part,Single*%
G01*
G75*
%TA.AperFunction,NonConductor*%
%ADD43C,0.20000*%
%ADD44C,0.25400*%
%ADD45C,0.25000*%
%ADD46C,0.15240*%
%ADD47C,0.10000*%
%ADD48C,0.12700*%
D43*
X2282500Y1738500D02*
G03*
X2282500Y1758500I0J10000D01*
G01*
D02*
G03*
X2282500Y1738500I0J-10000D01*
G01*
X7047981Y736134D02*
G03*
X7047981Y736134I-10000J0D01*
G01*
X2379000Y734100D02*
G03*
X2379000Y734100I-10000J0D01*
G01*
X7077001Y3353690D02*
G03*
X7077001Y3353690I-10000J0D01*
G01*
X1277000Y1107000D02*
G03*
X1277000Y1107000I-10000J0D01*
G01*
X566000Y2151000D02*
G03*
X566000Y2151000I-10000J0D01*
G01*
X1279000Y3675000D02*
G03*
X1279000Y3675000I-10000J0D01*
G01*
X2274500Y3693500D02*
G03*
X2274500Y3713500I0J10000D01*
G01*
D02*
G03*
X2274500Y3693500I0J-10000D01*
G01*
X2379000Y2588000D02*
G03*
X2379000Y2588000I-10000J0D01*
G01*
X6937981Y1987134D02*
X6977481D01*
X7098481D02*
X7137981D01*
X7098481Y1787134D02*
X7137981D01*
X6937981D02*
X6977481D01*
X6937981Y1960134D02*
Y1987134D01*
X7137981Y1960134D02*
Y1987134D01*
X6937981Y1787134D02*
Y1814134D01*
X7137981Y1787134D02*
Y1814134D01*
X6937981Y1596134D02*
X6977481D01*
X7098481D02*
X7137981D01*
X7098481Y1396134D02*
X7137981D01*
X6937981D02*
X6977481D01*
X6937981Y1569134D02*
Y1596134D01*
X7137981Y1569134D02*
Y1596134D01*
X6937981Y1396134D02*
Y1423134D01*
X7137981Y1396134D02*
Y1423134D01*
X6955000Y3587000D02*
X6994500D01*
X7115500D02*
X7155000D01*
X7115500Y3387000D02*
X7155000D01*
X6955000D02*
X6994500D01*
X6955000Y3560000D02*
Y3587000D01*
X7155000Y3560000D02*
Y3587000D01*
X6955000Y3387000D02*
Y3414000D01*
X7155000Y3387000D02*
Y3414000D01*
X6955000Y2635000D02*
X6994500D01*
X7115500D02*
X7155000D01*
X7115500Y2435000D02*
X7155000D01*
X6955000D02*
X6994500D01*
X6955000Y2608000D02*
Y2635000D01*
X7155000Y2608000D02*
Y2635000D01*
X6955000Y2435000D02*
Y2462000D01*
X7155000Y2435000D02*
Y2462000D01*
X5522000Y1414000D02*
X5523000Y630000D01*
X4473000D02*
Y1417500D01*
X5573000Y899000D02*
Y1680000D01*
X6623000Y892500D02*
Y1680000D01*
X5573000Y899000D02*
X5841000Y631000D01*
X5568000Y2702000D02*
X5575000Y3480000D01*
X6625000Y2692500D02*
Y3480000D01*
X4475000Y2430000D02*
X4478000Y2427000D01*
X4861000D01*
X5525000Y2430000D02*
Y3209000D01*
X4475000Y2430000D02*
Y3217500D01*
X5146000Y2430000D02*
X5525000D01*
X5837000Y2433000D02*
X5949000D01*
X5568000Y2702000D02*
X5837000Y2433000D01*
X5249000Y3485000D02*
X5525000Y3209000D01*
X4475000Y3217500D02*
X4742500Y3485000D01*
X6362500Y2430000D02*
X6625000Y2692500D01*
X6258000Y2430000D02*
X6362500D01*
X5142000Y3485000D02*
X5249000D01*
X6263000Y3480000D02*
X6625000D01*
X5575000D02*
X5947000D01*
X4742500Y3485000D02*
X4850000D01*
X1300000Y1872000D02*
X1780000D01*
X1300000Y2172000D02*
X1780000D01*
Y1872000D02*
Y1897000D01*
X1300000Y1872000D02*
Y1897000D01*
X1780000Y2147000D02*
Y2172000D01*
X1300000Y2147000D02*
Y2172000D01*
X1232000Y1730000D02*
X1271500D01*
X1392500D02*
X1432000D01*
X1392500Y1530000D02*
X1432000D01*
X1232000D02*
X1271500D01*
X1232000Y1703000D02*
Y1730000D01*
X1432000Y1703000D02*
Y1730000D01*
X1232000Y1530000D02*
Y1557000D01*
X1432000Y1530000D02*
Y1557000D01*
Y2420561D02*
Y2447561D01*
X1232000Y2420561D02*
Y2447561D01*
X1432000Y2593561D02*
Y2620561D01*
X1232000Y2593561D02*
Y2620561D01*
Y2420561D02*
X1271500D01*
X1392500D02*
X1432000D01*
X1392500Y2620561D02*
X1432000D01*
X1232000D02*
X1271500D01*
X6939981Y672134D02*
X6979481D01*
X7100481D02*
X7139981D01*
X7100481Y472134D02*
X7139981D01*
X6939981D02*
X6979481D01*
X6939981Y645134D02*
Y672134D01*
X7139981Y645134D02*
Y672134D01*
X6939981Y472134D02*
Y499134D01*
X7139981Y472134D02*
Y499134D01*
X4473000Y630000D02*
X4845000D01*
X5152001D02*
X5523000D01*
X5841000Y631000D02*
X5947000D01*
X6243000Y629000D02*
X6359501D01*
X6623000Y892500D01*
X4473000Y1417500D02*
X4730501Y1675000D01*
X4848000D01*
X5162000D02*
X5261000D01*
X5522000Y1414000D01*
X5573000Y1680000D02*
X5952000D01*
X6240001D02*
X6623000D01*
D44*
X5941500Y2300000D02*
G03*
X5941500Y2300000I-12500J0D01*
G01*
X5214500Y3614000D02*
G03*
X5214500Y3614000I-12500J0D01*
G01*
X6066500Y499000D02*
G03*
X6066500Y499000I-12500J0D01*
G01*
X5212500Y1796000D02*
G03*
X5212500Y1796000I-12500J0D01*
G01*
X7806000Y1000D02*
Y4194000D01*
X0D02*
X7806000D01*
X0Y1000D02*
Y4194000D01*
Y1000D02*
X7806000D01*
X5140045Y4103690D02*
X5106723D01*
X5123384D01*
Y4020384D01*
X5106723Y4003722D01*
X5090061D01*
X5073400Y4020384D01*
X5190029Y4003722D02*
X5223352D01*
X5240013Y4020384D01*
Y4053706D01*
X5223352Y4070368D01*
X5190029D01*
X5173368Y4053706D01*
Y4020384D01*
X5190029Y4003722D01*
X5273336D02*
X5323320D01*
X5339981Y4020384D01*
X5323320Y4037045D01*
X5289997D01*
X5273336Y4053706D01*
X5289997Y4070368D01*
X5339981D01*
X5423287Y4003722D02*
X5389965D01*
X5373303Y4020384D01*
Y4053706D01*
X5389965Y4070368D01*
X5423287D01*
X5439948Y4053706D01*
Y4037045D01*
X5373303D01*
X5573239Y4003722D02*
Y4070368D01*
X5606562Y4103690D01*
X5639884Y4070368D01*
Y4003722D01*
Y4053706D01*
X5573239D01*
X5673207Y4003722D02*
Y4070368D01*
X5723191D01*
X5739852Y4053706D01*
Y4003722D01*
X5806497Y3970400D02*
X5823159D01*
X5839820Y3987061D01*
Y4070368D01*
X5789836D01*
X5773175Y4053706D01*
Y4020384D01*
X5789836Y4003722D01*
X5839820D01*
X5923126D02*
X5889804D01*
X5873142Y4020384D01*
Y4053706D01*
X5889804Y4070368D01*
X5923126D01*
X5939787Y4053706D01*
Y4037045D01*
X5873142D01*
X5973110Y4003722D02*
X6006433D01*
X5989772D01*
Y4103690D01*
X5973110D01*
X6156384Y4003722D02*
Y4103690D01*
X6206368D01*
X6223029Y4087029D01*
Y4053706D01*
X6206368Y4037045D01*
X6156384D01*
X6189707D02*
X6223029Y4003722D01*
X6273014D02*
X6306336D01*
X6322997Y4020384D01*
Y4053706D01*
X6306336Y4070368D01*
X6273014D01*
X6256352Y4053706D01*
Y4020384D01*
X6273014Y4003722D01*
X6356320D02*
X6406304D01*
X6422965Y4020384D01*
X6406304Y4037045D01*
X6372981D01*
X6356320Y4053706D01*
X6372981Y4070368D01*
X6422965D01*
X6472949Y4087029D02*
Y4070368D01*
X6456288D01*
X6489610D01*
X6472949D01*
Y4020384D01*
X6489610Y4003722D01*
X6539594Y4070368D02*
Y4003722D01*
Y4037045D01*
X6556256Y4053706D01*
X6572917Y4070368D01*
X6589578D01*
X6656223Y4003722D02*
X6689546D01*
X6706207Y4020384D01*
Y4053706D01*
X6689546Y4070368D01*
X6656223D01*
X6639562Y4053706D01*
Y4020384D01*
X6656223Y4003722D01*
X6839498Y4103690D02*
Y4003722D01*
Y4053706D01*
X6906143D01*
Y4103690D01*
Y4003722D01*
X7006110Y4103690D02*
Y4003722D01*
X6956127D01*
X6939465Y4020384D01*
Y4053706D01*
X6956127Y4070368D01*
X7006110D01*
X7039433D02*
X7106078D01*
X7039433Y4003722D01*
X7106078D01*
X6053400Y3908029D02*
Y3808061D01*
X6103384D01*
X6120045Y3824723D01*
Y3891368D01*
X6103384Y3908029D01*
X6053400D01*
X6153368Y3874706D02*
Y3808061D01*
Y3841384D01*
X6170029Y3858045D01*
X6186690Y3874706D01*
X6203352D01*
X6253335Y3808061D02*
X6286658D01*
X6269997D01*
Y3874706D01*
X6253335D01*
X6336642D02*
X6369964Y3808061D01*
X6403287Y3874706D01*
X6486594Y3808061D02*
X6453271D01*
X6436610Y3824723D01*
Y3858045D01*
X6453271Y3874706D01*
X6486594D01*
X6503255Y3858045D01*
Y3841384D01*
X6436610D01*
X6536577Y3874706D02*
Y3808061D01*
Y3841384D01*
X6553239Y3858045D01*
X6569900Y3874706D01*
X6586561D01*
X6636545Y3791400D02*
X6703190D01*
X6736513Y3908029D02*
Y3841384D01*
X6769836Y3808061D01*
X6803158Y3841384D01*
Y3908029D01*
X6903126Y3808061D02*
X6836481D01*
X6903126Y3874706D01*
Y3891368D01*
X6886465Y3908029D01*
X6853142D01*
X6836481Y3891368D01*
X6936449Y3808061D02*
Y3824723D01*
X6953110D01*
Y3808061D01*
X6936449D01*
X7019755Y3891368D02*
X7036416Y3908029D01*
X7069739D01*
X7086400Y3891368D01*
Y3824723D01*
X7069739Y3808061D01*
X7036416D01*
X7019755Y3824723D01*
Y3891368D01*
X1486694Y2332984D02*
Y2233016D01*
X1536678D01*
X1553339Y2249677D01*
Y2316323D01*
X1536678Y2332984D01*
X1486694D01*
X1653307Y2233016D02*
X1586662D01*
X1653307Y2299661D01*
Y2316323D01*
X1636645Y2332984D01*
X1603323D01*
X1586662Y2316323D01*
X703355Y2613016D02*
Y2712984D01*
X753339D01*
X770000Y2696323D01*
Y2663000D01*
X753339Y2646339D01*
X703355D01*
X736678D02*
X770000Y2613016D01*
X803323D02*
X836646D01*
X819984D01*
Y2712984D01*
X803323Y2696323D01*
X1040355Y2476984D02*
Y2377016D01*
X1090339D01*
X1107000Y2393677D01*
Y2460322D01*
X1090339Y2476984D01*
X1040355D01*
X1140323Y2377016D02*
X1173646D01*
X1156984D01*
Y2476984D01*
X1140323Y2460322D01*
X1722694Y1393984D02*
Y1294016D01*
X1772678D01*
X1789339Y1310678D01*
Y1377323D01*
X1772678Y1393984D01*
X1722694D01*
X1822662D02*
X1889307D01*
Y1377323D01*
X1822662Y1310678D01*
Y1294016D01*
X1729394Y2704174D02*
Y2604206D01*
X1779378D01*
X1796039Y2620867D01*
Y2687512D01*
X1779378Y2704174D01*
X1729394D01*
X1829362Y2687512D02*
X1846023Y2704174D01*
X1879345D01*
X1896007Y2687512D01*
Y2670851D01*
X1879345Y2654190D01*
X1862684D01*
X1879345D01*
X1896007Y2637528D01*
Y2620867D01*
X1879345Y2604206D01*
X1846023D01*
X1829362Y2620867D01*
X2183694Y2299016D02*
Y2398984D01*
X2233678D01*
X2250339Y2382322D01*
Y2349000D01*
X2233678Y2332338D01*
X2183694D01*
X2217016D02*
X2250339Y2299016D01*
X2350307Y2398984D02*
X2316984Y2382322D01*
X2283662Y2349000D01*
Y2315677D01*
X2300323Y2299016D01*
X2333646D01*
X2350307Y2315677D01*
Y2332338D01*
X2333646Y2349000D01*
X2283662D01*
X2171694Y1687016D02*
Y1786984D01*
X2221678D01*
X2238339Y1770323D01*
Y1737000D01*
X2221678Y1720339D01*
X2171694D01*
X2205016D02*
X2238339Y1687016D01*
X2271662Y1703678D02*
X2288323Y1687016D01*
X2321646D01*
X2338307Y1703678D01*
Y1770323D01*
X2321646Y1786984D01*
X2288323D01*
X2271662Y1770323D01*
Y1753661D01*
X2288323Y1737000D01*
X2338307D01*
X7283032Y1558315D02*
X7216387D01*
Y1458347D01*
X7283032D01*
X7216387Y1508331D02*
X7249710D01*
X7316355Y1441685D02*
X7383000D01*
X7482968Y1541653D02*
X7466307Y1558315D01*
X7432984D01*
X7416323Y1541653D01*
Y1524992D01*
X7432984Y1508331D01*
X7466307D01*
X7482968Y1491669D01*
Y1475008D01*
X7466307Y1458347D01*
X7432984D01*
X7416323Y1475008D01*
X7516291Y1458347D02*
X7549613D01*
X7532952D01*
Y1558315D01*
X7516291Y1541653D01*
X7283032Y602653D02*
X7266371Y619314D01*
X7233049D01*
X7216387Y602653D01*
Y536008D01*
X7233049Y519347D01*
X7266371D01*
X7283032Y536008D01*
Y569331D01*
X7249710D01*
X7316355Y502685D02*
X7383000D01*
X7482968Y602653D02*
X7466307Y619314D01*
X7432984D01*
X7416323Y602653D01*
Y585992D01*
X7432984Y569331D01*
X7466307D01*
X7482968Y552669D01*
Y536008D01*
X7466307Y519347D01*
X7432984D01*
X7416323Y536008D01*
X7516291Y519347D02*
X7549613D01*
X7532952D01*
Y619314D01*
X7516291Y602653D01*
X7297371Y3520653D02*
X7280710Y3537314D01*
X7247387D01*
X7230726Y3520653D01*
Y3454008D01*
X7247387Y3437347D01*
X7280710D01*
X7297371Y3454008D01*
Y3487331D01*
X7264048D01*
X7330693Y3420685D02*
X7397339D01*
X7497306Y3520653D02*
X7480645Y3537314D01*
X7447323D01*
X7430661Y3520653D01*
Y3503992D01*
X7447323Y3487331D01*
X7480645D01*
X7497306Y3470669D01*
Y3454008D01*
X7480645Y3437347D01*
X7447323D01*
X7430661Y3454008D01*
X7597274Y3437347D02*
X7530629D01*
X7597274Y3503992D01*
Y3520653D01*
X7580613Y3537314D01*
X7547290D01*
X7530629Y3520653D01*
X1321339Y1371323D02*
X1304678Y1387984D01*
X1271355D01*
X1254694Y1371323D01*
Y1354661D01*
X1271355Y1338000D01*
X1304678D01*
X1321339Y1321339D01*
Y1304678D01*
X1304678Y1288016D01*
X1271355D01*
X1254694Y1304678D01*
X1421307Y1288016D02*
X1354662D01*
X1421307Y1354661D01*
Y1371323D01*
X1404645Y1387984D01*
X1371323D01*
X1354662Y1371323D01*
X7240371Y1927984D02*
X7307016D01*
X7273694D01*
Y1828016D01*
X7340339D02*
Y1927984D01*
X7390323D01*
X7406984Y1911323D01*
Y1878000D01*
X7390323Y1861339D01*
X7340339D01*
X7440307Y1828016D02*
X7473629D01*
X7456968D01*
Y1927984D01*
X7440307Y1911323D01*
X7297371Y2586315D02*
X7230726D01*
Y2486347D01*
X7297371D01*
X7230726Y2536331D02*
X7264048D01*
X7330693Y2469685D02*
X7397339D01*
X7497306Y2569653D02*
X7480645Y2586315D01*
X7447323D01*
X7430661Y2569653D01*
Y2552992D01*
X7447323Y2536331D01*
X7480645D01*
X7497306Y2519669D01*
Y2503008D01*
X7480645Y2486347D01*
X7447323D01*
X7430661Y2503008D01*
X7597274Y2486347D02*
X7530629D01*
X7597274Y2552992D01*
Y2569653D01*
X7580613Y2586315D01*
X7547290D01*
X7530629Y2569653D01*
X1334000Y2759883D02*
X1317339Y2776545D01*
X1284016D01*
X1267355Y2759883D01*
Y2743222D01*
X1284016Y2726561D01*
X1317339D01*
X1334000Y2709899D01*
Y2693238D01*
X1317339Y2676577D01*
X1284016D01*
X1267355Y2693238D01*
X1367323Y2676577D02*
X1400645D01*
X1383984D01*
Y2776545D01*
X1367323Y2759883D01*
X622694Y3930984D02*
Y3847677D01*
X639355Y3831016D01*
X672678D01*
X689339Y3847677D01*
Y3930984D01*
X789307Y3831016D02*
X722661D01*
X789307Y3897661D01*
Y3914322D01*
X772645Y3930984D01*
X739323D01*
X722661Y3914322D01*
X619694Y370984D02*
Y287677D01*
X636355Y271016D01*
X669678D01*
X686339Y287677D01*
Y370984D01*
X769645Y271016D02*
Y370984D01*
X719662Y321000D01*
X786307D01*
X3193694Y3923984D02*
Y3840678D01*
X3210355Y3824016D01*
X3243678D01*
X3260339Y3840678D01*
Y3923984D01*
X3293662D02*
X3360307D01*
Y3907323D01*
X3293662Y3840678D01*
Y3824016D01*
X7526339Y3086984D02*
X7493016D01*
X7509677D01*
Y3003678D01*
X7493016Y2987016D01*
X7476355D01*
X7459693Y3003678D01*
X7559661Y3070323D02*
X7576323Y3086984D01*
X7609645D01*
X7626306Y3070323D01*
Y3053661D01*
X7609645Y3037000D01*
X7592984D01*
X7609645D01*
X7626306Y3020339D01*
Y3003678D01*
X7609645Y2987016D01*
X7576323D01*
X7559661Y3003678D01*
X7482339Y1116984D02*
X7449016D01*
X7465677D01*
Y1033677D01*
X7449016Y1017016D01*
X7432355D01*
X7415694Y1033677D01*
X7582306Y1017016D02*
X7515661D01*
X7582306Y1083661D01*
Y1100322D01*
X7565645Y1116984D01*
X7532323D01*
X7515661Y1100322D01*
X746000Y1880984D02*
X712678D01*
X729339D01*
Y1797677D01*
X712678Y1781016D01*
X696016D01*
X679355Y1797677D01*
X779323Y1781016D02*
X812645D01*
X795984D01*
Y1880984D01*
X779323Y1864322D01*
X3201694Y1968984D02*
Y1885677D01*
X3218355Y1869016D01*
X3251678D01*
X3268339Y1885677D01*
Y1968984D01*
X3301662Y1952322D02*
X3318323Y1968984D01*
X3351646D01*
X3368307Y1952322D01*
Y1935661D01*
X3351646Y1919000D01*
X3334984D01*
X3351646D01*
X3368307Y1902339D01*
Y1885677D01*
X3351646Y1869016D01*
X3318323D01*
X3301662Y1885677D01*
X4682686Y2966323D02*
X4666024Y2982984D01*
X4632702D01*
X4616041Y2966323D01*
Y2899678D01*
X4632702Y2883016D01*
X4666024D01*
X4682686Y2899678D01*
X4716008Y2883016D02*
X4749331D01*
X4732670D01*
Y2982984D01*
X4716008Y2966323D01*
X4799315Y2899678D02*
X4815976Y2883016D01*
X4849299D01*
X4865960Y2899678D01*
Y2966323D01*
X4849299Y2982984D01*
X4815976D01*
X4799315Y2966323D01*
Y2949661D01*
X4815976Y2933000D01*
X4865960D01*
X5773686Y2953323D02*
X5757025Y2969984D01*
X5723702D01*
X5707041Y2953323D01*
Y2886678D01*
X5723702Y2870016D01*
X5757025D01*
X5773686Y2886678D01*
X5807008Y2870016D02*
X5840331D01*
X5823670D01*
Y2969984D01*
X5807008Y2953323D01*
X5890315Y2969984D02*
X5956960D01*
Y2953323D01*
X5890315Y2886678D01*
Y2870016D01*
X2705686Y2266322D02*
X2689025Y2282984D01*
X2655702D01*
X2639041Y2266322D01*
Y2199677D01*
X2655702Y2183016D01*
X2689025D01*
X2705686Y2199677D01*
X2739009Y2183016D02*
X2772331D01*
X2755670D01*
Y2282984D01*
X2739009Y2266322D01*
X2888960Y2282984D02*
X2822315D01*
Y2233000D01*
X2855638Y2249661D01*
X2872299D01*
X2888960Y2233000D01*
Y2199677D01*
X2872299Y2183016D01*
X2838977D01*
X2822315Y2199677D01*
X4672339Y1208323D02*
X4655678Y1224984D01*
X4622355D01*
X4605694Y1208323D01*
Y1141678D01*
X4622355Y1125016D01*
X4655678D01*
X4672339Y1141678D01*
X4705662D02*
X4722323Y1125016D01*
X4755646D01*
X4772307Y1141678D01*
Y1208323D01*
X4755646Y1224984D01*
X4722323D01*
X4705662Y1208323D01*
Y1191661D01*
X4722323Y1175000D01*
X4772307D01*
X5794339Y1188323D02*
X5777678Y1204984D01*
X5744355D01*
X5727694Y1188323D01*
Y1121678D01*
X5744355Y1105016D01*
X5777678D01*
X5794339Y1121678D01*
X5827662Y1204984D02*
X5894307D01*
Y1188323D01*
X5827662Y1121678D01*
Y1105016D01*
X2777339Y402323D02*
X2760677Y418984D01*
X2727355D01*
X2710694Y402323D01*
Y335678D01*
X2727355Y319016D01*
X2760677D01*
X2777339Y335678D01*
X2877306Y418984D02*
X2810661D01*
Y369000D01*
X2843984Y385661D01*
X2860645D01*
X2877306Y369000D01*
Y335678D01*
X2860645Y319016D01*
X2827323D01*
X2810661Y335678D01*
D45*
X1890000Y1882000D02*
G03*
X1890000Y1882000I-12500J0D01*
G01*
D46*
X1907700Y2556000D02*
G03*
X1907700Y2556000I-12700J0D01*
G01*
X1715269Y1518600D02*
G03*
X1715269Y1518600I-12700J0D01*
G01*
X1236100Y2186000D02*
G03*
X1236100Y2186000I-12700J0D01*
G01*
X1874930Y2373149D02*
Y2430991D01*
X1725070Y2373149D02*
Y2430991D01*
Y1648649D02*
Y1706491D01*
X1874930Y1648649D02*
Y1706491D01*
X1032509Y2202070D02*
X1090351D01*
X1032509Y2351930D02*
X1090351D01*
D47*
X2412500Y1046500D02*
Y2051500D01*
Y1046500D02*
X4377500D01*
Y2051500D01*
X2412500D02*
X4377500D01*
X2404500Y3001500D02*
Y4006500D01*
Y3001500D02*
X4369500D01*
Y4006500D01*
X2404500D02*
X4369500D01*
D48*
X7347980Y1277134D02*
Y1340133D01*
Y1023134D02*
Y1103133D01*
Y786134D02*
Y849133D01*
X6727980Y786134D02*
X7347980D01*
X6727980D02*
Y1340133D01*
X7347980D01*
X2454000Y369100D02*
X2554000Y269100D01*
X3114000D01*
X2554000Y929100D02*
X3114000D01*
X2454000Y829100D02*
X2554000Y929100D01*
X2454000Y711100D02*
Y829100D01*
Y369100D02*
Y487100D01*
X3114000Y711100D02*
Y929100D01*
Y269100D02*
Y487100D01*
X6745000Y3299000D02*
X7365000D01*
X6745000Y2745000D02*
Y3299000D01*
Y2745000D02*
X7365000D01*
Y2808000D01*
Y2982000D02*
Y3062000D01*
Y3236000D02*
Y3299000D01*
X2156000Y2272000D02*
Y2428000D01*
X1996000Y2272000D02*
Y2428000D01*
X1985000Y1665000D02*
Y1821000D01*
X2145000Y1665000D02*
Y1821000D01*
X683000Y2573000D02*
X839000D01*
X683000Y2413000D02*
X839000D01*
X531000Y214000D02*
Y1433000D01*
Y214000D02*
X2360000D01*
X531000Y1433000D02*
X2360000D01*
X246000Y1547000D02*
Y1610000D01*
Y1784000D02*
Y1864000D01*
Y2038000D02*
Y2101000D01*
X866000D01*
Y1547000D02*
Y2101000D01*
X246000Y1547000D02*
X866000D01*
X532000Y4001000D02*
X2361000D01*
X532000Y2782000D02*
X2361000D01*
X532000D02*
Y4001000D01*
X2454000Y2223000D02*
X2554000Y2123000D01*
X3114000D01*
X2554000Y2783000D02*
X3114000D01*
X2454000Y2683000D02*
X2554000Y2783000D01*
X2454000Y2565000D02*
Y2683000D01*
Y2223000D02*
Y2341000D01*
X3114000Y2565000D02*
Y2783000D01*
Y2123000D02*
Y2341000D01*
%TF.MD5,b0f271e1a79bf013271f4081ad4e4eea*%
M02*
