%TF.GenerationSoftware,Altium Limited,Altium Designer,23.2.1 (34)*%
G04 Layer_Physical_Order=1*
G04 Layer_Color=255*
%FSLAX45Y45*%
%MOMM*%
%TF.SameCoordinates,3015DBAE-21F6-41EF-B07E-3AD50EAB7A3F*%
%TF.FilePolarity,Positive*%
%TF.FileFunction,Copper,L1,Top,Signal*%
%TF.Part,Single*%
G01*
G75*
%TA.AperFunction,SMDPad,CuDef*%
%ADD10R,3.20000X1.60000*%
%ADD11R,2.15000X5.10000*%
%ADD12R,2.95000X1.70000*%
%ADD13R,1.09220X1.24460*%
%ADD14R,1.50000X1.25000*%
%ADD15R,1.24460X1.09220*%
%ADD16R,1.25000X1.50000*%
%TA.AperFunction,Conductor*%
%ADD17C,0.25400*%
%ADD18C,0.80000*%
%ADD19C,0.50000*%
%TA.AperFunction,ComponentPad*%
%ADD20C,1.30300*%
%ADD21C,1.65000*%
%ADD22R,1.65000X1.65000*%
%ADD23C,1.10000*%
%TA.AperFunction,WasherPad*%
%ADD24C,1.52400*%
%TA.AperFunction,ComponentPad*%
%ADD25C,1.51800*%
%ADD26R,1.51800X1.51800*%
%TA.AperFunction,ViaPad*%
%ADD27C,1.27000*%
G36*
X3208000Y2548000D02*
X3062243D01*
Y3587499D01*
X3062243Y3587500D01*
X3060093Y3598308D01*
X3053971Y3607471D01*
X3053970Y3607472D01*
X2988907Y3672535D01*
X2992379Y3678549D01*
X2998341Y3700800D01*
X2920700D01*
Y3623159D01*
X2942951Y3629121D01*
X2948966Y3632593D01*
X3005757Y3575802D01*
Y2548000D01*
X2859000D01*
Y2465700D01*
X3034000D01*
Y2440300D01*
X2859000D01*
Y2358000D01*
X3005757D01*
Y1809536D01*
X2993057Y1806133D01*
X2988458Y1814099D01*
X2971599Y1830958D01*
X2950951Y1842879D01*
X2928700Y1848841D01*
Y1758500D01*
Y1668159D01*
X2950951Y1674121D01*
X2971599Y1686042D01*
X2988458Y1702901D01*
X2993057Y1710867D01*
X3005757Y1707463D01*
Y694100D01*
X2859000D01*
Y611800D01*
X3034000D01*
Y586400D01*
X2859000D01*
Y504100D01*
X3005757D01*
Y407698D01*
X2831302Y233243D01*
X1088699D01*
X853243Y468699D01*
Y1428000D01*
X851093Y1438808D01*
X844971Y1447970D01*
X844970Y1447971D01*
X641994Y1650947D01*
X646855Y1659366D01*
X653500Y1684164D01*
Y1684300D01*
X568700D01*
Y1599500D01*
X568836D01*
X593634Y1606145D01*
X602053Y1611005D01*
X796757Y1416301D01*
Y457001D01*
X796757Y457000D01*
X798907Y446192D01*
X805029Y437029D01*
X1057029Y185029D01*
X1066192Y178907D01*
X1077000Y176757D01*
X1077001Y176757D01*
X2842999D01*
X2843000Y176757D01*
X2853809Y178907D01*
X2862971Y185029D01*
X3053971Y376029D01*
X3060093Y385192D01*
X3062243Y396000D01*
X3062243Y396001D01*
Y504100D01*
X3208000D01*
Y1000D01*
X0D01*
Y4193000D01*
X3208000D01*
Y2548000D01*
D02*
G37*
G36*
Y694100D02*
X3062243D01*
Y2358000D01*
X3208000D01*
Y694100D01*
D02*
G37*
G36*
X7806000Y1000D02*
X3426000D01*
Y2008000D01*
X7806000D01*
Y1000D01*
D02*
G37*
G36*
Y2068000D02*
X3428000D01*
Y4193000D01*
X7806000D01*
Y2068000D01*
D02*
G37*
%LPC*%
G36*
X2920700Y3803841D02*
Y3726200D01*
X2998341D01*
X2992379Y3748451D01*
X2980458Y3769099D01*
X2963599Y3785958D01*
X2942951Y3797879D01*
X2920700Y3803841D01*
D02*
G37*
G36*
X2895300D02*
X2873049Y3797879D01*
X2852401Y3785958D01*
X2835542Y3769099D01*
X2823621Y3748451D01*
X2817659Y3726200D01*
X2895300D01*
Y3803841D01*
D02*
G37*
G36*
X2664552Y3793650D02*
X2643448D01*
X2623064Y3788188D01*
X2604787Y3777636D01*
X2589864Y3762713D01*
X2579312Y3744437D01*
X2573850Y3724052D01*
Y3702948D01*
X2579312Y3682563D01*
X2580707Y3680148D01*
X2514029Y3613471D01*
X2507907Y3604308D01*
X2505757Y3593500D01*
X2505757Y3593499D01*
Y2548000D01*
X2359000D01*
Y2358000D01*
X2505757D01*
Y1886502D01*
X2505757Y1886500D01*
X2507907Y1875692D01*
X2514029Y1866530D01*
X2588707Y1791852D01*
X2587312Y1789437D01*
X2581850Y1769052D01*
Y1747948D01*
X2587312Y1727563D01*
X2588707Y1725148D01*
X2514029Y1650470D01*
X2507907Y1641308D01*
X2505757Y1630500D01*
X2505757Y1630498D01*
Y694100D01*
X2359000D01*
Y632892D01*
X2346300Y629641D01*
X2259086Y716856D01*
X2260151Y718700D01*
X2265500Y738665D01*
Y759335D01*
X2260151Y779300D01*
X2249816Y797200D01*
X2235200Y811816D01*
X2217300Y822151D01*
X2197335Y827500D01*
X2176665D01*
X2156700Y822151D01*
X2154856Y821086D01*
X2093243Y882699D01*
Y1058192D01*
X2105943Y1061596D01*
X2114262Y1047186D01*
X2131186Y1030262D01*
X2151914Y1018295D01*
X2175033Y1012100D01*
X2198967D01*
X2222086Y1018295D01*
X2242814Y1030262D01*
X2259738Y1047186D01*
X2271705Y1067914D01*
X2277900Y1091033D01*
Y1114967D01*
X2271705Y1138086D01*
X2259738Y1158814D01*
X2242814Y1175738D01*
X2222086Y1187705D01*
X2198967Y1193900D01*
X2175033D01*
X2151914Y1187705D01*
X2131186Y1175738D01*
X2114262Y1158814D01*
X2105943Y1144405D01*
X2093243Y1147808D01*
Y1493000D01*
X2155000D01*
Y1539239D01*
X2190481D01*
X2190482Y1539239D01*
X2201290Y1541389D01*
X2210453Y1547511D01*
X2294971Y1632030D01*
X2301093Y1641192D01*
X2303243Y1652000D01*
Y1959999D01*
X2303243Y1960000D01*
X2301093Y1970808D01*
X2294971Y1979971D01*
X2294970Y1979971D01*
X2224942Y2050000D01*
X2310971Y2136029D01*
X2317093Y2145192D01*
X2319243Y2156000D01*
X2319243Y2156001D01*
Y2460999D01*
X2319243Y2461000D01*
X2317093Y2471808D01*
X2310971Y2480971D01*
X2310970Y2480971D01*
X2246712Y2545229D01*
X2237550Y2551352D01*
X2226742Y2553502D01*
X2226740Y2553501D01*
X2166000D01*
Y2600000D01*
X2028941D01*
X1507163Y3121779D01*
X1510705Y3127914D01*
X1516900Y3151033D01*
Y3174967D01*
X1510705Y3198086D01*
X1498738Y3218814D01*
X1481814Y3235738D01*
X1461086Y3247705D01*
X1437967Y3253900D01*
X1414033D01*
X1390914Y3247705D01*
X1370186Y3235738D01*
X1353262Y3218814D01*
X1341295Y3198086D01*
X1335100Y3174967D01*
Y3151033D01*
X1341295Y3127914D01*
X1353262Y3107186D01*
X1370186Y3090262D01*
X1390914Y3078295D01*
X1414033Y3072100D01*
X1437967D01*
X1461086Y3078295D01*
X1467222Y3081837D01*
X1986000Y2563059D01*
Y2445000D01*
X2166000D01*
Y2497016D01*
X2215043D01*
X2262757Y2449301D01*
Y2167699D01*
X2173301Y2078243D01*
X1917500D01*
Y2122000D01*
X1592500D01*
Y1922000D01*
X1917500D01*
Y2021757D01*
X2173301D01*
X2246758Y1948301D01*
Y1663699D01*
X2178783Y1595725D01*
X2155000D01*
Y1648000D01*
X1975000D01*
Y1493000D01*
X2036757D01*
Y871001D01*
X2036757Y871000D01*
X2038907Y860192D01*
X2045029Y851029D01*
X2114914Y781144D01*
X2113850Y779300D01*
X2108500Y759335D01*
Y738665D01*
X2113850Y718700D01*
X2114914Y716856D01*
X2021302Y623243D01*
X1511539D01*
X1509705Y630086D01*
X1497738Y650814D01*
X1480814Y667738D01*
X1460086Y679705D01*
X1436967Y685900D01*
X1413033D01*
X1389914Y679705D01*
X1369186Y667738D01*
X1352262Y650814D01*
X1340295Y630086D01*
X1334100Y606967D01*
Y583033D01*
X1340295Y559914D01*
X1352262Y539186D01*
X1369186Y522262D01*
X1389914Y510295D01*
X1413033Y504100D01*
X1436967D01*
X1460086Y510295D01*
X1480814Y522262D01*
X1497738Y539186D01*
X1509705Y559914D01*
X1511539Y566757D01*
X2032999D01*
X2033000Y566757D01*
X2043808Y568907D01*
X2052971Y575029D01*
X2154856Y676914D01*
X2156700Y675850D01*
X2176665Y670500D01*
X2197335D01*
X2217300Y675850D01*
X2219144Y676914D01*
X2316929Y579130D01*
X2316930Y579129D01*
X2326092Y573007D01*
X2336900Y570857D01*
X2359000D01*
Y504100D01*
X2709000D01*
Y694100D01*
X2562243D01*
Y1618801D01*
X2628648Y1685206D01*
X2631064Y1683812D01*
X2651448Y1678350D01*
X2672552D01*
X2692937Y1683812D01*
X2711214Y1694364D01*
X2726136Y1709287D01*
X2736688Y1727563D01*
X2742150Y1747948D01*
Y1769052D01*
X2736688Y1789437D01*
X2726136Y1807713D01*
X2711214Y1822636D01*
X2692937Y1833188D01*
X2672552Y1838650D01*
X2651448D01*
X2631064Y1833188D01*
X2628649Y1831793D01*
X2562243Y1898199D01*
Y2358000D01*
X2709000D01*
Y2548000D01*
X2562243D01*
Y3581801D01*
X2620648Y3640207D01*
X2623064Y3638812D01*
X2643448Y3633350D01*
X2664552D01*
X2684937Y3638812D01*
X2703214Y3649364D01*
X2718136Y3664287D01*
X2728688Y3682563D01*
X2734150Y3702948D01*
Y3724052D01*
X2728688Y3744437D01*
X2718136Y3762713D01*
X2703214Y3777636D01*
X2684937Y3788188D01*
X2664552Y3793650D01*
D02*
G37*
G36*
X2895300Y3700800D02*
X2817659D01*
X2823621Y3678549D01*
X2835542Y3657901D01*
X2852401Y3641042D01*
X2873049Y3629121D01*
X2895300Y3623159D01*
Y3700800D01*
D02*
G37*
G36*
X2199967Y3761900D02*
X2176033D01*
X2152914Y3755705D01*
X2132186Y3743738D01*
X2115262Y3726814D01*
X2103295Y3706086D01*
X2097100Y3682967D01*
Y3659033D01*
X2103295Y3635914D01*
X2115262Y3615186D01*
X2132186Y3598262D01*
X2152914Y3586295D01*
X2176033Y3580100D01*
X2199967D01*
X2223086Y3586295D01*
X2243814Y3598262D01*
X2260738Y3615186D01*
X2272705Y3635914D01*
X2278900Y3659033D01*
Y3682967D01*
X2272705Y3706086D01*
X2260738Y3726814D01*
X2243814Y3743738D01*
X2223086Y3755705D01*
X2199967Y3761900D01*
D02*
G37*
G36*
X1439336Y3518300D02*
X1438700D01*
Y3429700D01*
X1527300D01*
Y3430336D01*
X1520397Y3456100D01*
X1507060Y3479200D01*
X1488200Y3498060D01*
X1465100Y3511397D01*
X1439336Y3518300D01*
D02*
G37*
G36*
X1413300D02*
X1412664D01*
X1386900Y3511397D01*
X1363801Y3498060D01*
X1344940Y3479200D01*
X1331604Y3456100D01*
X1324700Y3430336D01*
Y3429700D01*
X1413300D01*
Y3518300D01*
D02*
G37*
G36*
X1527300Y3404300D02*
X1438700D01*
Y3315700D01*
X1439336D01*
X1465100Y3322603D01*
X1488200Y3335940D01*
X1507060Y3354801D01*
X1520397Y3377900D01*
X1527300Y3403664D01*
Y3404300D01*
D02*
G37*
G36*
X1413300D02*
X1324700D01*
Y3403664D01*
X1331604Y3377900D01*
X1344940Y3354801D01*
X1363801Y3335940D01*
X1386900Y3322603D01*
X1412664Y3315700D01*
X1413300D01*
Y3404300D01*
D02*
G37*
G36*
X2199967Y2999900D02*
X2176033D01*
X2152914Y2993705D01*
X2132186Y2981738D01*
X2115262Y2964814D01*
X2103295Y2944086D01*
X2097100Y2920967D01*
Y2897033D01*
X2103295Y2873914D01*
X2115262Y2853186D01*
X2132186Y2836262D01*
X2152914Y2824295D01*
X2176033Y2818100D01*
X2199967D01*
X2223086Y2824295D01*
X2243814Y2836262D01*
X2260738Y2853186D01*
X2272705Y2873914D01*
X2278900Y2897033D01*
Y2920967D01*
X2272705Y2944086D01*
X2260738Y2964814D01*
X2243814Y2981738D01*
X2223086Y2993705D01*
X2199967Y2999900D01*
D02*
G37*
G36*
X1437967D02*
X1414033D01*
X1390914Y2993705D01*
X1370186Y2981738D01*
X1353262Y2964814D01*
X1341295Y2944086D01*
X1335100Y2920967D01*
Y2897033D01*
X1341295Y2873914D01*
X1353262Y2853186D01*
X1370186Y2836262D01*
X1390914Y2824295D01*
X1414033Y2818100D01*
X1437967D01*
X1461086Y2824295D01*
X1481814Y2836262D01*
X1498738Y2853186D01*
X1510705Y2873914D01*
X1516900Y2897033D01*
Y2920967D01*
X1510705Y2944086D01*
X1498738Y2964814D01*
X1481814Y2981738D01*
X1461086Y2993705D01*
X1437967Y2999900D01*
D02*
G37*
G36*
X1516900Y3761900D02*
X1335100D01*
Y3620041D01*
X1190029Y3474971D01*
X1183907Y3465808D01*
X1181757Y3455000D01*
X1181757Y3454999D01*
Y2599682D01*
X1181757Y2599681D01*
X1183907Y2588873D01*
X1190029Y2579710D01*
X1214292Y2555448D01*
X1214293Y2555447D01*
X1223456Y2549325D01*
X1226032Y2548812D01*
X1235968Y2538876D01*
X1234500Y2533397D01*
Y2507724D01*
X1241145Y2482927D01*
X1253981Y2460694D01*
X1272134Y2442541D01*
X1294366Y2429705D01*
X1319164Y2423061D01*
X1344836D01*
X1369634Y2429705D01*
X1391866Y2442541D01*
X1410020Y2460694D01*
X1422855Y2482927D01*
X1425106Y2491327D01*
X1730390D01*
Y2442340D01*
X1869610D01*
Y2596800D01*
X1730390D01*
Y2547813D01*
X1425637D01*
X1422855Y2558194D01*
X1410020Y2580427D01*
X1391866Y2598580D01*
X1369634Y2611416D01*
X1344836Y2618061D01*
X1319164D01*
X1294366Y2611416D01*
X1272134Y2598580D01*
X1264140Y2590586D01*
X1259338Y2595389D01*
X1250176Y2601511D01*
X1247599Y2602023D01*
X1238243Y2611380D01*
Y3443301D01*
X1375041Y3580100D01*
X1516900D01*
Y3761900D01*
D02*
G37*
G36*
X1011000Y2583000D02*
X856000D01*
Y2403000D01*
X905258D01*
Y2346610D01*
X866700D01*
Y2207390D01*
X1021160D01*
Y2346610D01*
X961743D01*
Y2403000D01*
X1011000D01*
Y2583000D01*
D02*
G37*
G36*
X1869610Y2361800D02*
X1730390D01*
Y2207340D01*
X1869610D01*
Y2275757D01*
X1937802D01*
X1986000Y2227558D01*
Y2100000D01*
X2166000D01*
Y2255000D01*
X2038441D01*
X1969471Y2323971D01*
X1960309Y2330093D01*
X1949500Y2332243D01*
X1949499Y2332243D01*
X1869610D01*
Y2361800D01*
D02*
G37*
G36*
X1256160Y2346610D02*
X1101700D01*
Y2207390D01*
X1208599D01*
X1282255Y2133733D01*
X1277395Y2122000D01*
X1162501D01*
Y1922000D01*
X1487500D01*
Y2122000D01*
X1361389D01*
X1353243Y2130930D01*
X1351093Y2141738D01*
X1344971Y2150900D01*
X1256160Y2239712D01*
Y2346610D01*
D02*
G37*
G36*
X311216Y2021000D02*
X292784D01*
X274981Y2016229D01*
X259019Y2007014D01*
X245986Y1993981D01*
X236770Y1978019D01*
X232000Y1960216D01*
Y1941784D01*
X236770Y1923981D01*
X245986Y1908019D01*
X259019Y1894986D01*
X274981Y1885770D01*
X292784Y1881000D01*
X311216D01*
X329019Y1885770D01*
X344981Y1894986D01*
X358014Y1908019D01*
X367229Y1923981D01*
X372000Y1941784D01*
Y1960216D01*
X367229Y1978019D01*
X358014Y1993981D01*
X344981Y2007014D01*
X329019Y2016229D01*
X311216Y2021000D01*
D02*
G37*
G36*
X666000Y2583000D02*
X511000D01*
Y2403000D01*
X560257D01*
Y2048500D01*
X458500D01*
Y1853500D01*
X653500D01*
Y2048500D01*
X616743D01*
Y2403000D01*
X666000D01*
Y2583000D01*
D02*
G37*
G36*
X2155000Y1993000D02*
X1975000D01*
Y1877942D01*
X1920371Y1823313D01*
X1869610D01*
Y1872300D01*
X1730390D01*
Y1717840D01*
X1869610D01*
Y1766827D01*
X1932069D01*
X1932070Y1766827D01*
X1942878Y1768977D01*
X1952041Y1775099D01*
X2014942Y1838000D01*
X2155000D01*
Y1993000D01*
D02*
G37*
G36*
X2903300Y1848841D02*
X2881049Y1842879D01*
X2860401Y1830958D01*
X2843542Y1814099D01*
X2831621Y1793451D01*
X2825659Y1771200D01*
X2903300D01*
Y1848841D01*
D02*
G37*
G36*
X568836Y1794500D02*
X568700D01*
Y1709700D01*
X653500D01*
Y1709836D01*
X646855Y1734634D01*
X634019Y1756866D01*
X615866Y1775019D01*
X593634Y1787855D01*
X568836Y1794500D01*
D02*
G37*
G36*
X543300D02*
X543164D01*
X518366Y1787855D01*
X496134Y1775019D01*
X477981Y1756866D01*
X465145Y1734634D01*
X458500Y1709836D01*
Y1709700D01*
X543300D01*
Y1794500D01*
D02*
G37*
G36*
X2903300Y1745800D02*
X2825659D01*
X2831621Y1723549D01*
X2843542Y1702901D01*
X2860401Y1686042D01*
X2881049Y1674121D01*
X2903300Y1668159D01*
Y1745800D01*
D02*
G37*
G36*
X311216Y1767000D02*
X292784D01*
X274981Y1762229D01*
X259019Y1753014D01*
X245986Y1739981D01*
X236770Y1724019D01*
X232000Y1706216D01*
Y1687784D01*
X236770Y1669981D01*
X245986Y1654019D01*
X259019Y1640986D01*
X274981Y1631770D01*
X292784Y1627000D01*
X311216D01*
X329019Y1631770D01*
X344981Y1640986D01*
X358014Y1654019D01*
X367229Y1669981D01*
X372000Y1687784D01*
Y1706216D01*
X367229Y1724019D01*
X358014Y1739981D01*
X344981Y1753014D01*
X329019Y1762229D01*
X311216Y1767000D01*
D02*
G37*
G36*
X543300Y1684300D02*
X458500D01*
Y1684164D01*
X465145Y1659366D01*
X477981Y1637134D01*
X496134Y1618981D01*
X518366Y1606145D01*
X543164Y1599500D01*
X543300D01*
Y1684300D01*
D02*
G37*
G36*
X1344836Y1727500D02*
X1319164D01*
X1294366Y1720855D01*
X1272134Y1708019D01*
X1253981Y1689866D01*
X1241145Y1667634D01*
X1234500Y1642836D01*
Y1617164D01*
X1241145Y1592366D01*
X1253981Y1570134D01*
X1272134Y1551981D01*
X1294366Y1539145D01*
X1319164Y1532500D01*
X1344836D01*
X1369634Y1539145D01*
X1378053Y1544006D01*
X1389029Y1533029D01*
X1398192Y1526907D01*
X1409000Y1524757D01*
X1409001Y1524757D01*
X1730390D01*
Y1482840D01*
X1771757D01*
Y1282699D01*
X1620302Y1131243D01*
X1515900D01*
Y1193900D01*
X1334100D01*
Y1012100D01*
X1515900D01*
Y1074757D01*
X1631999D01*
X1632000Y1074757D01*
X1642808Y1076907D01*
X1651971Y1083029D01*
X1819971Y1251029D01*
X1826093Y1260192D01*
X1828243Y1271000D01*
X1828243Y1271001D01*
Y1482840D01*
X1869610D01*
Y1637300D01*
X1730390D01*
Y1581243D01*
X1431098D01*
X1425063Y1589387D01*
X1423278Y1593943D01*
X1429500Y1617164D01*
Y1642836D01*
X1422855Y1667634D01*
X1410020Y1689866D01*
X1391866Y1708019D01*
X1369634Y1720855D01*
X1344836Y1727500D01*
D02*
G37*
G36*
X1437700Y939704D02*
Y861700D01*
X1515704D01*
X1509705Y884086D01*
X1497738Y904814D01*
X1480814Y921738D01*
X1460086Y933705D01*
X1437700Y939704D01*
D02*
G37*
G36*
X1412300D02*
X1389914Y933705D01*
X1369186Y921738D01*
X1352262Y904814D01*
X1340295Y884086D01*
X1334297Y861700D01*
X1412300D01*
Y939704D01*
D02*
G37*
G36*
X1515704Y836300D02*
X1437700D01*
Y758296D01*
X1460086Y764295D01*
X1480814Y776262D01*
X1497738Y793186D01*
X1509705Y813914D01*
X1515704Y836300D01*
D02*
G37*
G36*
X1412300D02*
X1334297D01*
X1340295Y813914D01*
X1352262Y793186D01*
X1369186Y776262D01*
X1389914Y764295D01*
X1412300Y758296D01*
Y836300D01*
D02*
G37*
G36*
X2198967Y431900D02*
X2175033D01*
X2151914Y425705D01*
X2131186Y413738D01*
X2114262Y396814D01*
X2102295Y376086D01*
X2096100Y352967D01*
Y329033D01*
X2102295Y305914D01*
X2114262Y285186D01*
X2131186Y268262D01*
X2151914Y256295D01*
X2175033Y250100D01*
X2198967D01*
X2222086Y256295D01*
X2242814Y268262D01*
X2259738Y285186D01*
X2271705Y305914D01*
X2277900Y329033D01*
Y352967D01*
X2271705Y376086D01*
X2259738Y396814D01*
X2242814Y413738D01*
X2222086Y425705D01*
X2198967Y431900D01*
D02*
G37*
G36*
X1436967D02*
X1413033D01*
X1389914Y425705D01*
X1369186Y413738D01*
X1352262Y396814D01*
X1340295Y376086D01*
X1334100Y352967D01*
Y329033D01*
X1340295Y305914D01*
X1352262Y285186D01*
X1369186Y268262D01*
X1389914Y256295D01*
X1413033Y250100D01*
X1436967D01*
X1460086Y256295D01*
X1480814Y268262D01*
X1497738Y285186D01*
X1509705Y305914D01*
X1515900Y329033D01*
Y352967D01*
X1509705Y376086D01*
X1497738Y396814D01*
X1480814Y413738D01*
X1460086Y425705D01*
X1436967Y431900D01*
D02*
G37*
G36*
X287236Y450000D02*
X252764D01*
X218954Y443275D01*
X187106Y430083D01*
X158444Y410931D01*
X134069Y386556D01*
X114917Y357894D01*
X101725Y326046D01*
X95000Y292236D01*
Y257764D01*
X101725Y223954D01*
X114917Y192106D01*
X134069Y163444D01*
X158444Y139069D01*
X187106Y119917D01*
X218954Y106725D01*
X252764Y100000D01*
X287236D01*
X321046Y106725D01*
X352894Y119917D01*
X381556Y139069D01*
X405931Y163444D01*
X425083Y192106D01*
X438275Y223954D01*
X445000Y257764D01*
Y292236D01*
X438275Y326046D01*
X425083Y357894D01*
X405931Y386556D01*
X381556Y410931D01*
X352894Y430083D01*
X321046Y443275D01*
X287236Y450000D01*
D02*
G37*
G36*
X7050817Y1984634D02*
X7025144D01*
X7000347Y1977989D01*
X6978114Y1965153D01*
X6959961Y1947000D01*
X6947125Y1924767D01*
X6940481Y1899970D01*
Y1874297D01*
X6947125Y1849500D01*
X6959961Y1827267D01*
X6978114Y1809114D01*
X7000347Y1796278D01*
X7025144Y1789634D01*
X7050817D01*
X7075614Y1796278D01*
X7097847Y1809114D01*
X7116000Y1827267D01*
X7128836Y1849500D01*
X7135481Y1874297D01*
Y1899970D01*
X7128836Y1924767D01*
X7116000Y1947000D01*
X7097847Y1965153D01*
X7075614Y1977989D01*
X7050817Y1984634D01*
D02*
G37*
G36*
X3919300Y1848841D02*
X3897049Y1842879D01*
X3876401Y1830958D01*
X3859542Y1814099D01*
X3847621Y1793451D01*
X3841659Y1771200D01*
X3919300D01*
Y1848841D01*
D02*
G37*
G36*
X4022341Y1745800D02*
X3944700D01*
Y1668159D01*
X3966951Y1674121D01*
X3987599Y1686042D01*
X4004458Y1702901D01*
X4016379Y1723549D01*
X4022341Y1745800D01*
D02*
G37*
G36*
X3919300D02*
X3841659D01*
X3847621Y1723549D01*
X3859542Y1702901D01*
X3876401Y1686042D01*
X3897049Y1674121D01*
X3919300Y1668159D01*
Y1745800D01*
D02*
G37*
G36*
X6085300Y1865400D02*
X5965100D01*
Y1641077D01*
X5130900D01*
Y1865400D01*
X5010700D01*
Y1585000D01*
Y1304600D01*
X5130900D01*
Y1528922D01*
X5965100D01*
Y1304600D01*
X6085300D01*
Y1585000D01*
Y1865400D01*
D02*
G37*
G36*
X4809500Y1977077D02*
X4094500D01*
X4073040Y1972809D01*
X4054848Y1960653D01*
X3944700Y1850505D01*
Y1771200D01*
X4024006D01*
X4117728Y1864923D01*
X4786272D01*
X4865100Y1786094D01*
Y1597700D01*
X4985300D01*
Y1865400D01*
X4944405D01*
X4849152Y1960653D01*
X4830960Y1972809D01*
X4809500Y1977077D01*
D02*
G37*
G36*
X7052186Y1604034D02*
X7050681D01*
Y1508834D01*
X7145881D01*
Y1510339D01*
X7138528Y1537782D01*
X7124322Y1562386D01*
X7104233Y1582475D01*
X7079628Y1596681D01*
X7052186Y1604034D01*
D02*
G37*
G36*
X6230900Y1865400D02*
X6110700D01*
Y1585000D01*
Y1304600D01*
X6230900D01*
Y1528922D01*
X6924079D01*
X6932440Y1519142D01*
X6930081Y1510339D01*
Y1508834D01*
X7025281D01*
Y1604034D01*
X7023775D01*
X7012035Y1600888D01*
X6988271Y1624652D01*
X6970078Y1636808D01*
X6948618Y1641077D01*
X6230900D01*
Y1865400D01*
D02*
G37*
G36*
X4985300Y1572300D02*
X4865100D01*
Y1304600D01*
X4985300D01*
Y1572300D01*
D02*
G37*
G36*
X7145881Y1483434D02*
X6930081D01*
Y1481928D01*
X6937434Y1454486D01*
X6951639Y1429882D01*
X6971729Y1409792D01*
X6981903Y1403918D01*
Y1282349D01*
X6971729Y1276475D01*
X6951639Y1256386D01*
X6937434Y1231781D01*
X6930081Y1204339D01*
Y1202833D01*
X7037981D01*
X7145881D01*
Y1204339D01*
X7138528Y1231781D01*
X7124322Y1256386D01*
X7104233Y1276475D01*
X7094058Y1282349D01*
Y1403918D01*
X7104233Y1409792D01*
X7124322Y1429882D01*
X7138528Y1454486D01*
X7145881Y1481928D01*
Y1483434D01*
D02*
G37*
G36*
X7301196Y1260133D02*
X7282765D01*
X7264962Y1255363D01*
X7249000Y1246147D01*
X7235967Y1233114D01*
X7226751Y1217153D01*
X7221981Y1199349D01*
Y1180918D01*
X7226751Y1163115D01*
X7235967Y1147153D01*
X7249000Y1134120D01*
X7264962Y1124904D01*
X7282765Y1120134D01*
X7301196D01*
X7319000Y1124904D01*
X7334961Y1134120D01*
X7347994Y1147153D01*
X7357210Y1163115D01*
X7361980Y1180918D01*
Y1199349D01*
X7357210Y1217153D01*
X7347994Y1233114D01*
X7334961Y1246147D01*
X7319000Y1255363D01*
X7301196Y1260133D01*
D02*
G37*
G36*
X7145881Y1177433D02*
X7050681D01*
Y1082234D01*
X7052186D01*
X7079628Y1089587D01*
X7104233Y1103792D01*
X7124322Y1123881D01*
X7138528Y1148486D01*
X7145881Y1175928D01*
Y1177433D01*
D02*
G37*
G36*
X7025281D02*
X6930081D01*
Y1175928D01*
X6937434Y1148486D01*
X6951639Y1123881D01*
X6971729Y1103792D01*
X6996333Y1089587D01*
X7023775Y1082234D01*
X7025281D01*
Y1177433D01*
D02*
G37*
G36*
X7301196Y1006133D02*
X7282765D01*
X7264962Y1001363D01*
X7249000Y992147D01*
X7235967Y979114D01*
X7226751Y963153D01*
X7221981Y945349D01*
Y926918D01*
X7226751Y909115D01*
X7235967Y893153D01*
X7249000Y880120D01*
X7264962Y870904D01*
X7282765Y866134D01*
X7301196D01*
X7319000Y870904D01*
X7334961Y880120D01*
X7347994Y893153D01*
X7357210Y909115D01*
X7361980Y926918D01*
Y945349D01*
X7357210Y963153D01*
X7347994Y979114D01*
X7334961Y992147D01*
X7319000Y1001363D01*
X7301196Y1006133D01*
D02*
G37*
G36*
X7135481Y1033633D02*
X6940481D01*
Y838634D01*
X6982903D01*
Y651763D01*
X6980114Y650153D01*
X6961961Y632000D01*
X6949125Y609767D01*
X6942481Y584970D01*
Y559298D01*
X6949125Y534500D01*
X6961961Y512267D01*
X6980114Y494114D01*
X7002347Y481278D01*
X7027144Y474634D01*
X7052817D01*
X7077614Y481278D01*
X7099847Y494114D01*
X7118000Y512267D01*
X7130836Y534500D01*
X7137481Y559298D01*
Y584970D01*
X7130836Y609767D01*
X7118000Y632000D01*
X7099847Y650153D01*
X7095058Y652918D01*
Y838634D01*
X7135481D01*
Y1033633D01*
D02*
G37*
G36*
X4196552Y1838650D02*
X4175448D01*
X4155064Y1833188D01*
X4136787Y1822636D01*
X4121864Y1807713D01*
X4111312Y1789437D01*
X4105850Y1769052D01*
Y1747948D01*
X4111312Y1727563D01*
X4121864Y1709287D01*
X4129923Y1701228D01*
Y1311228D01*
X3641348Y822653D01*
X3629192Y804460D01*
X3624923Y783000D01*
Y457939D01*
X3621185Y454200D01*
X3610850Y436300D01*
X3605500Y416335D01*
Y395665D01*
X3610850Y375700D01*
X3621185Y357800D01*
X3635800Y343184D01*
X3653700Y332849D01*
X3673665Y327500D01*
X3672996Y315077D01*
X3622228D01*
X3551077Y386228D01*
Y1552272D01*
X3677156Y1678350D01*
X3688552D01*
X3708937Y1683812D01*
X3727214Y1694364D01*
X3742136Y1709287D01*
X3752688Y1727563D01*
X3758150Y1747948D01*
Y1769052D01*
X3752688Y1789437D01*
X3742136Y1807713D01*
X3727214Y1822636D01*
X3708937Y1833188D01*
X3688552Y1838650D01*
X3667448D01*
X3647064Y1833188D01*
X3628787Y1822636D01*
X3613864Y1807713D01*
X3603312Y1789437D01*
X3597850Y1769052D01*
Y1757655D01*
X3455347Y1615152D01*
X3443191Y1596960D01*
X3438923Y1575500D01*
Y363000D01*
X3443191Y341540D01*
X3455347Y323348D01*
X3559348Y219347D01*
X3577540Y207191D01*
X3599000Y202923D01*
X4850000D01*
X4871460Y207191D01*
X4889653Y219347D01*
X5037653Y367347D01*
X5049809Y385540D01*
X5054078Y407000D01*
Y455000D01*
X5120500D01*
Y995000D01*
X4875500D01*
Y455000D01*
X4941923D01*
Y430228D01*
X4826772Y315077D01*
X3695005D01*
X3694335Y327500D01*
X3714300Y332849D01*
X3732200Y343184D01*
X3746816Y357800D01*
X3757151Y375700D01*
X3762500Y395665D01*
Y416335D01*
X3757151Y436300D01*
X3746816Y454200D01*
X3737078Y463938D01*
Y759772D01*
X4186000Y1208694D01*
X4252347Y1142347D01*
X4270540Y1130191D01*
X4292000Y1125923D01*
X5917612D01*
X6035835Y1007700D01*
X6030574Y995000D01*
X5975500D01*
Y455000D01*
X6220500D01*
Y995000D01*
X6153207D01*
Y1025710D01*
X6148938Y1047170D01*
X6136782Y1065363D01*
X5980492Y1221653D01*
X5962300Y1233809D01*
X5940840Y1238077D01*
X4315228D01*
X4242078Y1311228D01*
Y1701228D01*
X4250136Y1709287D01*
X4260688Y1727563D01*
X4266150Y1747948D01*
Y1769052D01*
X4260688Y1789437D01*
X4250136Y1807713D01*
X4235214Y1822636D01*
X4216937Y1833188D01*
X4196552Y1838650D01*
D02*
G37*
G36*
X7544236Y450000D02*
X7509764D01*
X7475954Y443275D01*
X7444106Y430083D01*
X7415444Y410931D01*
X7391069Y386556D01*
X7371917Y357894D01*
X7358725Y326046D01*
X7352000Y292236D01*
Y257764D01*
X7358725Y223954D01*
X7371917Y192106D01*
X7391069Y163444D01*
X7415444Y139069D01*
X7444106Y119917D01*
X7475954Y106725D01*
X7509764Y100000D01*
X7544236D01*
X7578046Y106725D01*
X7609894Y119917D01*
X7638556Y139069D01*
X7662931Y163444D01*
X7682083Y192106D01*
X7695275Y223954D01*
X7702000Y257764D01*
Y292236D01*
X7695275Y326046D01*
X7682083Y357894D01*
X7662931Y386556D01*
X7638556Y410931D01*
X7609894Y430083D01*
X7578046Y443275D01*
X7544236Y450000D01*
D02*
G37*
G36*
X6251000Y3960077D02*
X4368500D01*
X4347040Y3955809D01*
X4328848Y3943653D01*
X4178845Y3793650D01*
X4177156D01*
X4037153Y3933653D01*
X4018960Y3945809D01*
X3997500Y3950077D01*
X3616660D01*
X3595200Y3945809D01*
X3577007Y3933653D01*
X3465347Y3821993D01*
X3453191Y3803800D01*
X3448923Y3782340D01*
Y2388718D01*
X3453191Y2367258D01*
X3465347Y2349065D01*
X3538834Y2275579D01*
X3538500Y2274335D01*
Y2253665D01*
X3543850Y2233700D01*
X3554184Y2215800D01*
X3568800Y2201184D01*
X3586700Y2190850D01*
X3606665Y2185500D01*
X3627335D01*
X3647300Y2190850D01*
X3665200Y2201184D01*
X3679816Y2215800D01*
X3690151Y2233700D01*
X3695500Y2253665D01*
Y2274335D01*
X3690151Y2294300D01*
X3679816Y2312200D01*
X3665200Y2326816D01*
X3647300Y2337151D01*
X3631691Y2341333D01*
X3561077Y2411946D01*
Y3759112D01*
X3639888Y3837923D01*
X3974272D01*
X4097850Y3714345D01*
Y3702948D01*
X4103312Y3682563D01*
X4113864Y3664287D01*
X4128787Y3649364D01*
X4147064Y3638812D01*
X4167448Y3633350D01*
X4188552D01*
X4208937Y3638812D01*
X4227214Y3649364D01*
X4242136Y3664287D01*
X4252688Y3682563D01*
X4258150Y3702948D01*
Y3714345D01*
X4391728Y3847923D01*
X6227772D01*
X6331923Y3743772D01*
Y2646228D01*
X6266772Y2581078D01*
X6222500D01*
Y2795000D01*
X5977500D01*
Y2255000D01*
X6222500D01*
Y2468923D01*
X6290000D01*
X6311460Y2473192D01*
X6329653Y2485348D01*
X6427653Y2583347D01*
X6439809Y2601540D01*
X6444077Y2623000D01*
Y3767000D01*
X6439809Y3788460D01*
X6427653Y3806653D01*
X6290653Y3943653D01*
X6272460Y3955809D01*
X6251000Y3960077D01*
D02*
G37*
G36*
X7544236Y4111000D02*
X7509764D01*
X7475954Y4104275D01*
X7444106Y4091083D01*
X7415444Y4071931D01*
X7391069Y4047556D01*
X7371917Y4018894D01*
X7358725Y3987046D01*
X7352000Y3953236D01*
Y3918764D01*
X7358725Y3884954D01*
X7371917Y3853106D01*
X7391069Y3824444D01*
X7415444Y3800069D01*
X7444106Y3780917D01*
X7475954Y3767725D01*
X7509764Y3761000D01*
X7544236D01*
X7578046Y3767725D01*
X7609894Y3780917D01*
X7638556Y3800069D01*
X7662931Y3824444D01*
X7682083Y3853106D01*
X7695275Y3884954D01*
X7702000Y3918764D01*
Y3953236D01*
X7695275Y3987046D01*
X7682083Y4018894D01*
X7662931Y4047556D01*
X7638556Y4071931D01*
X7609894Y4091083D01*
X7578046Y4104275D01*
X7544236Y4111000D01*
D02*
G37*
G36*
X3936700Y3803841D02*
Y3726200D01*
X4014341D01*
X4008379Y3748451D01*
X3996458Y3769099D01*
X3979599Y3785958D01*
X3958951Y3797879D01*
X3936700Y3803841D01*
D02*
G37*
G36*
X3911300D02*
X3889049Y3797879D01*
X3868401Y3785958D01*
X3851542Y3769099D01*
X3839621Y3748451D01*
X3833659Y3726200D01*
X3911300D01*
Y3803841D01*
D02*
G37*
G36*
X6087301Y3665400D02*
X5967100D01*
Y3435077D01*
X5132900D01*
Y3665400D01*
X5012700D01*
Y3385001D01*
Y3104600D01*
X5132900D01*
Y3322922D01*
X5967100D01*
Y3181406D01*
X5760347Y2974653D01*
X5748191Y2956460D01*
X5743923Y2935000D01*
Y2304300D01*
X5748191Y2282840D01*
X5760347Y2264647D01*
X5915648Y2109347D01*
X5933841Y2097191D01*
X5955300Y2092923D01*
X6669000D01*
X6690460Y2097191D01*
X6708653Y2109347D01*
X7029446Y2430141D01*
X7040795Y2427100D01*
X7042300D01*
Y2522300D01*
X6947100D01*
Y2520795D01*
X6950141Y2509446D01*
X6645772Y2205077D01*
X5978528D01*
X5856077Y2327528D01*
Y2911772D01*
X6048906Y3104600D01*
X6087301D01*
Y3385000D01*
Y3665400D01*
D02*
G37*
G36*
X6232900D02*
X6112701D01*
Y3397700D01*
X6232900D01*
Y3665400D01*
D02*
G37*
G36*
Y3372300D02*
X6112701D01*
Y3104600D01*
X6232900D01*
Y3372300D01*
D02*
G37*
G36*
X4014341Y3700800D02*
X3833659D01*
X3839621Y3678549D01*
X3851542Y3657901D01*
X3867923Y3641520D01*
Y3528000D01*
X3872192Y3506540D01*
X3884348Y3488347D01*
X4033348Y3339347D01*
X4051540Y3327191D01*
X4073000Y3322922D01*
X4867100D01*
Y3104600D01*
X4987300D01*
Y3385001D01*
Y3665400D01*
X4867100D01*
Y3435077D01*
X4096228D01*
X3980078Y3551228D01*
Y3641520D01*
X3996458Y3657901D01*
X4008379Y3678549D01*
X4014341Y3700800D01*
D02*
G37*
G36*
X7318216Y3219000D02*
X7299784D01*
X7281981Y3214230D01*
X7266019Y3205014D01*
X7252986Y3191981D01*
X7243771Y3176019D01*
X7239000Y3158216D01*
Y3139784D01*
X7243771Y3121981D01*
X7252986Y3106019D01*
X7266019Y3092986D01*
X7281981Y3083771D01*
X7299784Y3079000D01*
X7318216D01*
X7336019Y3083771D01*
X7351981Y3092986D01*
X7365014Y3106019D01*
X7374230Y3121981D01*
X7379000Y3139784D01*
Y3158216D01*
X7374230Y3176019D01*
X7365014Y3191981D01*
X7351981Y3205014D01*
X7336019Y3214230D01*
X7318216Y3219000D01*
D02*
G37*
G36*
X7067836Y3584500D02*
X7042164D01*
X7017366Y3577855D01*
X6995134Y3565019D01*
X6976981Y3546866D01*
X6964145Y3524634D01*
X6957500Y3499836D01*
Y3474164D01*
X6964145Y3449366D01*
X6976981Y3427134D01*
X6995134Y3408980D01*
X6998923Y3406793D01*
Y3246500D01*
X6957500D01*
Y3051500D01*
X7152500D01*
Y3246500D01*
X7111077D01*
Y3406793D01*
X7114866Y3408980D01*
X7133020Y3427134D01*
X7145855Y3449366D01*
X7152500Y3474164D01*
Y3499836D01*
X7145855Y3524634D01*
X7133020Y3546866D01*
X7114866Y3565019D01*
X7092634Y3577855D01*
X7067836Y3584500D01*
D02*
G37*
G36*
X7069205Y3002900D02*
X7067700D01*
Y2907700D01*
X7162900D01*
Y2909205D01*
X7155547Y2936648D01*
X7141342Y2961252D01*
X7121252Y2981342D01*
X7096648Y2995547D01*
X7069205Y3002900D01*
D02*
G37*
G36*
X7042300D02*
X7040795D01*
X7013352Y2995547D01*
X6988748Y2981342D01*
X6968659Y2961252D01*
X6954453Y2936648D01*
X6947100Y2909205D01*
Y2907700D01*
X7042300D01*
Y3002900D01*
D02*
G37*
G36*
X7318216Y2965000D02*
X7299784D01*
X7281981Y2960230D01*
X7266019Y2951014D01*
X7252986Y2937981D01*
X7243771Y2922019D01*
X7239000Y2904216D01*
Y2885784D01*
X7243771Y2867981D01*
X7252986Y2852019D01*
X7266019Y2838986D01*
X7281981Y2829771D01*
X7299784Y2825000D01*
X7318216D01*
X7336019Y2829771D01*
X7351981Y2838986D01*
X7365014Y2852019D01*
X7374230Y2867981D01*
X7379000Y2885784D01*
Y2904216D01*
X7374230Y2922019D01*
X7365014Y2937981D01*
X7351981Y2951014D01*
X7336019Y2960230D01*
X7318216Y2965000D01*
D02*
G37*
G36*
X7162900Y2882300D02*
X7055000D01*
X6947100D01*
Y2880795D01*
X6954453Y2853352D01*
X6968659Y2828748D01*
X6988748Y2808659D01*
X6998923Y2802784D01*
Y2627216D01*
X6988748Y2621341D01*
X6968659Y2601252D01*
X6954453Y2576648D01*
X6947100Y2549205D01*
Y2547700D01*
X7162900D01*
Y2549205D01*
X7155547Y2576648D01*
X7141342Y2601252D01*
X7121252Y2621341D01*
X7111077Y2627216D01*
Y2802784D01*
X7121252Y2808659D01*
X7141342Y2828748D01*
X7155547Y2853352D01*
X7162900Y2880795D01*
Y2882300D01*
D02*
G37*
G36*
Y2522300D02*
X7067700D01*
Y2427100D01*
X7069205D01*
X7096648Y2434453D01*
X7121252Y2448659D01*
X7141342Y2468748D01*
X7155547Y2493352D01*
X7162900Y2520795D01*
Y2522300D01*
D02*
G37*
G36*
X3680552Y3793650D02*
X3659448D01*
X3639064Y3788188D01*
X3620787Y3777636D01*
X3605864Y3762713D01*
X3595312Y3744437D01*
X3589850Y3724052D01*
Y3702948D01*
X3595312Y3682563D01*
X3605864Y3664287D01*
X3620787Y3649364D01*
X3621923Y3648708D01*
Y2786000D01*
X3626192Y2764540D01*
X3638348Y2746347D01*
X3905347Y2479347D01*
X3923540Y2467191D01*
X3945000Y2462923D01*
X4877500D01*
Y2255000D01*
X5122500D01*
Y2795000D01*
X4877500D01*
Y2575077D01*
X3968228D01*
X3734078Y2809228D01*
Y3664228D01*
X3734136Y3664287D01*
X3744688Y3682563D01*
X3750150Y3702948D01*
Y3724052D01*
X3744688Y3744437D01*
X3734136Y3762713D01*
X3719214Y3777636D01*
X3700937Y3788188D01*
X3680552Y3793650D01*
D02*
G37*
%LPD*%
D10*
X3034000Y599100D02*
D03*
X2534000D02*
D03*
X3034000Y2453000D02*
D03*
X2534000D02*
D03*
D11*
X4998000Y725000D02*
D03*
Y1585000D02*
D03*
X6098000D02*
D03*
Y725000D02*
D03*
X6100000Y2525000D02*
D03*
Y3385000D02*
D03*
X5000000Y2525000D02*
D03*
Y3385000D02*
D03*
D12*
X1755000Y2022000D02*
D03*
X1325000D02*
D03*
D13*
X1800000Y2284570D02*
D03*
Y2519570D02*
D03*
Y1795070D02*
D03*
Y1560070D02*
D03*
D14*
X2076000Y2522500D02*
D03*
Y2177500D02*
D03*
X2065000Y1570500D02*
D03*
Y1915500D02*
D03*
D15*
X943930Y2277000D02*
D03*
X1178930D02*
D03*
D16*
X588500Y2493000D02*
D03*
X933500D02*
D03*
D17*
X2534000Y1886500D02*
Y3593500D01*
Y1886500D02*
X2662000Y1758500D01*
X2534000Y1630500D02*
X2662000Y1758500D01*
X2534000Y599100D02*
Y1630500D01*
X1755000Y2022000D02*
X1783000Y2050000D01*
X2185000D01*
X3034000Y599100D02*
Y3587500D01*
X2336900Y599100D02*
X2534000D01*
X3034000Y396000D02*
Y599100D01*
X2843000Y205000D02*
X3034000Y396000D01*
X1077000Y205000D02*
X2843000D01*
X825000Y457000D02*
X1077000Y205000D01*
X825000Y457000D02*
Y1428000D01*
X556000Y1697000D02*
X825000Y1428000D01*
X2187000Y749000D02*
X2336900Y599100D01*
X4998000Y1585000D02*
Y1732499D01*
X2534000Y3593500D02*
X2654000Y3713500D01*
X2908000D02*
X3034000Y3587500D01*
X1800000Y1271000D02*
Y1560070D01*
X2013700Y2572300D02*
X2063500Y2522500D01*
X2013700Y2572300D02*
Y2575300D01*
X1239368Y2575418D02*
X1294225Y2520561D01*
X2065000Y871000D02*
Y1570500D01*
X588500Y1983500D02*
Y2493000D01*
X1332991Y2519570D02*
X1800000D01*
X1332000Y2520561D02*
X1332991Y2519570D01*
X1178930Y2277000D02*
X1325000Y2130930D01*
Y2022000D02*
Y2130930D01*
X1932070Y1795070D02*
X2052500Y1915500D01*
X1800000Y1795070D02*
X1932070D01*
X1409000Y1553000D02*
X1792930D01*
X1332000Y1630000D02*
X1409000Y1553000D01*
X933500Y2287430D02*
Y2493000D01*
X1949500Y2304000D02*
X2076000Y2177500D01*
X1800000Y2284570D02*
X1819430Y2304000D01*
X1949500D01*
X2063500Y2522500D02*
X2076000D01*
X1294225Y2520561D02*
X1332000D01*
X2064500Y1916000D02*
X2065000Y1915500D01*
Y1570500D02*
X2068018Y1567482D01*
X2190482D01*
X2275000Y1652000D01*
Y1960000D01*
X2185000Y2050000D02*
X2275000Y1960000D01*
X2052500Y1915500D02*
X2065000D01*
X1792930Y1553000D02*
X1800000Y1560070D01*
X933500Y2287430D02*
X943930Y2277000D01*
X2076000Y2522500D02*
X2078759Y2525259D01*
X2226742D01*
X2291000Y2461000D01*
Y2156000D02*
Y2461000D01*
X2185000Y2050000D02*
X2291000Y2156000D01*
X556000Y1951000D02*
X588500Y1983500D01*
X2065000Y871000D02*
X2187000Y749000D01*
X1210000Y3455000D02*
X1426000Y3671000D01*
X1210000Y2599681D02*
Y3455000D01*
Y2599681D02*
X1234263Y2575418D01*
X1239368D01*
X1426000Y3163000D02*
X2013700Y2575300D01*
X1632000Y1103000D02*
X1800000Y1271000D01*
X1425000Y1103000D02*
X1632000D01*
X1425000Y595000D02*
X2033000D01*
X2187000Y749000D01*
D18*
X3932000Y1758500D02*
X4094500Y1921000D01*
X4809500D01*
X4186000Y1288000D02*
Y1758500D01*
X3495000Y1575500D02*
X3678000Y1758500D01*
X3495000Y363000D02*
Y1575500D01*
Y363000D02*
X3599000Y259000D01*
X4850000D01*
X4998000Y407000D01*
Y725000D01*
X4809500Y1921000D02*
X4998000Y1732499D01*
X6948618Y1585000D02*
X7037484Y1496134D01*
X6098000Y1585000D02*
X6948618D01*
X7037484Y1496134D02*
X7037981D01*
Y1190134D02*
Y1496134D01*
Y936134D02*
X7038981Y935134D01*
Y573134D02*
Y935134D01*
Y573134D02*
X7039981Y572134D01*
X6032500Y3167500D02*
Y3317500D01*
X5800000Y2304300D02*
Y2935000D01*
X6032500Y3167500D01*
Y3317500D02*
X6100000Y3385000D01*
X5955300Y2149000D02*
X6669000D01*
X7055000Y2535000D01*
Y2566189D02*
Y2895000D01*
Y3149000D02*
Y3487000D01*
X5800000Y2304300D02*
X5955300Y2149000D01*
X4292000Y1182000D02*
X5940840D01*
X6097130Y1025710D01*
X4186000Y1288000D02*
X4292000Y1182000D01*
X6097130Y725871D02*
Y1025710D01*
X4998000Y1585000D02*
X6098000D01*
X6290000Y2525000D02*
X6388000Y2623000D01*
X6251000Y3904000D02*
X6388000Y3767000D01*
Y2623000D02*
Y3767000D01*
X6100000Y2525000D02*
X6290000D01*
X5006000Y3379000D02*
X6094000D01*
X6100000Y3385000D01*
X5000000D02*
X5006000Y3379000D01*
X4368500Y3904000D02*
X6251000D01*
X4178000Y3713500D02*
X4368500Y3904000D01*
X3945000Y2519000D02*
X4994000D01*
X5000000Y2525000D01*
X3678000Y2786000D02*
X3945000Y2519000D01*
X3678000Y2786000D02*
Y3705500D01*
X3670000Y3713500D02*
X3678000Y3705500D01*
X4073000Y3379000D02*
X4994000D01*
X5000000Y3385000D01*
X3924000Y3528000D02*
Y3713500D01*
Y3528000D02*
X4073000Y3379000D01*
X3681001Y409000D02*
Y783000D01*
X4186000Y1288000D01*
X3617000Y2264000D02*
Y2276718D01*
X3505000Y2388718D02*
X3617000Y2276718D01*
X3505000Y2388718D02*
Y3782340D01*
X3997500Y3894000D02*
X4178000Y3713500D01*
X3505000Y3782340D02*
X3616660Y3894000D01*
X3997500D01*
D19*
X6097130Y725871D02*
X6098000Y725000D01*
X3681001Y409000D02*
X3684000Y406000D01*
D20*
X3678000Y1758500D02*
D03*
X3932000D02*
D03*
X4186000D02*
D03*
X2916000D02*
D03*
X2662000D02*
D03*
X4178000Y3713500D02*
D03*
X3924000D02*
D03*
X3670000D02*
D03*
X2908000D02*
D03*
X2654000D02*
D03*
D21*
X7037981Y1887134D02*
D03*
Y1496134D02*
D03*
Y1190134D02*
D03*
X7055000Y3487000D02*
D03*
Y2535000D02*
D03*
Y2895000D02*
D03*
X1332000Y1630000D02*
D03*
Y2520561D02*
D03*
X556000Y1697000D02*
D03*
X7039981Y572134D02*
D03*
D22*
X7037981Y936134D02*
D03*
X7055000Y3149000D02*
D03*
X556000Y1951000D02*
D03*
D23*
X7291981Y1190134D02*
D03*
Y936134D02*
D03*
X7309000Y2895000D02*
D03*
Y3149000D02*
D03*
X302000Y1697000D02*
D03*
Y1951000D02*
D03*
D24*
X270000Y275000D02*
D03*
Y3936000D02*
D03*
X7527000Y275000D02*
D03*
Y3936000D02*
D03*
D25*
X2187000Y341000D02*
D03*
Y1103000D02*
D03*
X1425000Y341000D02*
D03*
Y595000D02*
D03*
Y849000D02*
D03*
X2188000Y3671000D02*
D03*
Y2909000D02*
D03*
X1426000D02*
D03*
Y3163000D02*
D03*
Y3417000D02*
D03*
D26*
X1425000Y1103000D02*
D03*
X1426000Y3671000D02*
D03*
D27*
X3684000Y406000D02*
D03*
X2187000Y749000D02*
D03*
X3617000Y2264000D02*
D03*
%TF.MD5,5814d53a43d4a2b10bcf6c263d0f96c9*%
M02*
